SplineFontDB: 3.0
FontName: Bristol-BoldItalic
FullName: Bristol Bold Italic
FamilyName: Bristol
Weight: Bold
Copyright: Copyright (c) 2011 by Pablo Impallari. www.impallari.com Igino Marini. www.ikern.com. All rights reserved.
Version: 1.00
DefaultBaseFilename: Bristol-700-Italic
ItalicAngle: 0
UnderlinePosition: -100
UnderlineWidth: 50
Ascent: 800
Descent: 200
InvalidEm: 0
sfntRevision: 0x00010189
LayerCount: 2
Layer: 0 1 "Back" 1
Layer: 1 1 "Fore" 0
FSType: 0
OS2Version: 3
OS2_WeightWidthSlopeOnly: 0
OS2_UseTypoMetrics: 1
CreationTime: 1321858664
ModificationTime: 1431295592
PfmFamily: 33
TTFWeight: 700
TTFWidth: 5
LineGap: 0
VLineGap: 0
Panose: 2 11 8 3 5 2 2 2 0 4
OS2TypoAscent: 965
OS2TypoAOffset: 0
OS2TypoDescent: -250
OS2TypoDOffset: 0
OS2TypoLinegap: 0
OS2WinAscent: 965
OS2WinAOffset: 0
OS2WinDescent: 250
OS2WinDOffset: 0
HheadAscent: 965
HheadAOffset: 0
HheadDescent: -250
HheadDOffset: 0
OS2SubXSize: 700
OS2SubYSize: 650
OS2SubXOff: 0
OS2SubYOff: 140
OS2SupXSize: 700
OS2SupYSize: 650
OS2SupXOff: 0
OS2SupYOff: 477
OS2StrikeYSize: 50
OS2StrikeYPos: 250
OS2CapHeight: 700
OS2XHeight: 500
OS2FamilyClass: 2050
OS2Vendor: '    '
OS2CodePages: 00000001.00000000
OS2UnicodeRanges: 8000002f.0000000b.00000000.00000000
Lookup: 1 0 0 "'aalt' Access All Alternates in Latin lookup 0" { "'aalt' Access All Alternates in Latin lookup 0 subtable"  } ['aalt' ('latn' <'dflt' > ) ]
Lookup: 1 0 0 "'smcp' Lowercase to Small Capitals in Latin lookup 1" { "'smcp' Lowercase to Small Capitals in Latin lookup 1 subtable"  } ['smcp' ('latn' <'dflt' > ) ]
Lookup: 258 0 0 "'kern' Horizontal Kerning in Latin lookup 0" { "'kern' Horizontal Kerning in Latin lookup 0 per glyph data 0"  "'kern' Horizontal Kerning in Latin lookup 0 kerning class 1"  "'kern' Horizontal Kerning in Latin lookup 0 kerning class 2"  "'kern' Horizontal Kerning in Latin lookup 0 kerning class 3"  "'kern' Horizontal Kerning in Latin lookup 0 kerning class 4"  } ['kern' ('latn' <'dflt' > ) ]
MarkAttachClasses: 1

StartChar: .notdef
Encoding: 65536 -1 0
Width: 225
Flags: W
LayerCount: 2
Back
Fore
SplineSet
85 240 m 1,0,-1
 108 370 l 1,1,-1
 233 370 l 1,2,-1
 210 240 l 1,3,-1
 85 240 l 1,0,-1
EndSplineSet
EndChar

StartChar: exclam
Encoding: 33 33 2
Width: 248
Flags: W
LayerCount: 2
Back
Fore
SplineSet
150 200 m 1,0,-1
 66 200 l 1,1,-1
 149 750 l 1,2,-1
 261 750 l 1,3,-1
 150 200 l 1,0,-1
9 0 m 1,4,-1
 31 124 l 1,5,-1
 158 124 l 1,6,-1
 136 0 l 1,7,-1
 9 0 l 1,4,-1
EndSplineSet
EndChar

StartChar: quotedbl
Encoding: 34 34 3
Width: 387
Flags: W
LayerCount: 2
Back
Fore
SplineSet
339 450 m 1,0,-1
 251 450 l 1,1,-1
 286 750 l 1,2,-1
 410 750 l 1,3,-1
 339 450 l 1,0,-1
170 450 m 1,4,-1
 83 450 l 1,5,-1
 118 750 l 1,6,-1
 241 750 l 1,7,-1
 170 450 l 1,4,-1
EndSplineSet
EndChar

StartChar: numbersign
Encoding: 35 35 4
Width: 688
Flags: W
LayerCount: 2
Back
Fore
SplineSet
608 414 m 1,0,-1
 506 414 l 1,1,-1
 455 309 l 1,2,-1
 567 309 l 1,3,-1
 506 211 l 1,4,-1
 402 211 l 1,5,-1
 288 -11 l 1,6,-1
 197 -11 l 1,7,-1
 307 211 l 1,8,-1
 218 211 l 1,9,-1
 102 -11 l 1,10,-1
 11 -11 l 1,11,-1
 125 211 l 1,12,-1
 20 211 l 1,13,-1
 78 309 l 1,14,-1
 177 309 l 1,15,-1
 229 414 l 1,16,-1
 122 414 l 1,17,-1
 169 512 l 1,18,-1
 281 512 l 1,19,-1
 381 700 l 1,20,-1
 472 700 l 1,21,-1
 374 512 l 1,22,-1
 467 512 l 1,23,-1
 564 700 l 1,24,-1
 655 700 l 1,25,-1
 559 512 l 1,26,-1
 658 512 l 1,27,-1
 608 414 l 1,0,-1
322 414 m 1,28,-1
 268 309 l 1,29,-1
 360 309 l 1,30,-1
 414 414 l 1,31,-1
 322 414 l 1,28,-1
EndSplineSet
EndChar

StartChar: dollar
Encoding: 36 36 5
Width: 511
Flags: W
LayerCount: 2
Back
Fore
SplineSet
237 -32 m 1,0,-1
 134 -32 l 1,1,-1
 168 79 l 1,2,3
 117 82 117 82 77.5 93.5 c 128,-1,4
 38 105 38 105 18 119 c 1,5,-1
 58 246 l 1,6,7
 75 222 75 222 115.5 202.5 c 128,-1,8
 156 183 156 183 217 183 c 0,9,10
 267 183 267 183 291 197 c 128,-1,11
 315 211 315 211 315 244 c 0,12,13
 315 266 315 266 297 280.5 c 128,-1,14
 279 295 279 295 252 306.5 c 128,-1,15
 225 318 225 318 193.5 329 c 128,-1,16
 162 340 162 340 135 356 c 128,-1,17
 108 372 108 372 90 395 c 128,-1,18
 72 418 72 418 72 454 c 0,19,20
 72 479 72 479 82.5 508.5 c 128,-1,21
 93 538 93 538 116 563.5 c 128,-1,22
 139 589 139 589 176 608 c 128,-1,23
 213 627 213 627 266 633 c 1,24,-1
 272 748 l 1,25,-1
 375 748 l 1,26,-1
 340 633 l 1,27,28
 383 630 383 630 421 618 c 128,-1,29
 459 606 459 606 476 594 c 1,30,-1
 445 481 l 1,31,32
 410 503 410 503 370.5 518 c 128,-1,33
 331 533 331 533 298 533 c 0,34,35
 280 533 280 533 261 531 c 128,-1,36
 242 529 242 529 226.5 523 c 128,-1,37
 211 517 211 517 201 506.5 c 128,-1,38
 191 496 191 496 191 479 c 0,39,40
 191 458 191 458 209.5 445.5 c 128,-1,41
 228 433 228 433 256.5 422.5 c 128,-1,42
 285 412 285 412 317.5 401.5 c 128,-1,43
 350 391 350 391 378.5 374 c 128,-1,44
 407 357 407 357 425.5 330.5 c 128,-1,45
 444 304 444 304 444 263 c 0,46,47
 444 242 444 242 437 213.5 c 128,-1,48
 430 185 430 185 409 157.5 c 128,-1,49
 388 130 388 130 348.5 108 c 128,-1,50
 309 86 309 86 243 80 c 1,51,-1
 237 -32 l 1,0,-1
EndSplineSet
EndChar

StartChar: percent
Encoding: 37 37 6
Width: 817
Flags: W
LayerCount: 2
Back
Fore
SplineSet
184 -12 m 1,0,-1
 79 -12 l 1,1,-1
 585 700 l 1,2,-1
 690 700 l 1,3,-1
 184 -12 l 1,0,-1
180 335 m 0,4,5
 128 335 128 335 99.5 373 c 128,-1,6
 71 411 71 411 71 474 c 0,7,8
 71 525 71 525 85.5 567.5 c 128,-1,9
 100 610 100 610 125 640 c 128,-1,10
 150 670 150 670 182 687 c 128,-1,11
 214 704 214 704 250 704 c 0,12,13
 301 704 301 704 330 666.5 c 128,-1,14
 359 629 359 629 359 564 c 0,15,16
 359 515 359 515 345.5 473 c 128,-1,17
 332 431 332 431 308.5 400.5 c 128,-1,18
 285 370 285 370 252 352.5 c 128,-1,19
 219 335 219 335 180 335 c 0,4,5
236 632 m 0,20,21
 223 632 223 632 208.5 622.5 c 128,-1,22
 194 613 194 613 181.5 594 c 128,-1,23
 169 575 169 575 160.5 546.5 c 128,-1,24
 152 518 152 518 152 479 c 0,25,26
 152 442 152 442 163.5 424.5 c 128,-1,27
 175 407 175 407 194 407 c 0,28,29
 231 407 231 407 254.5 447 c 128,-1,30
 278 487 278 487 278 558 c 0,31,32
 278 596 278 596 265.5 614 c 128,-1,33
 253 632 253 632 236 632 c 0,20,21
542 -9 m 0,34,35
 489 -9 489 -9 460.5 29 c 128,-1,36
 432 67 432 67 432 130 c 0,37,38
 432 181 432 181 446.5 223.5 c 128,-1,39
 461 266 461 266 486 296 c 128,-1,40
 511 326 511 326 543 343 c 128,-1,41
 575 360 575 360 611 360 c 0,42,43
 662 360 662 360 691 322.5 c 128,-1,44
 720 285 720 285 720 220 c 0,45,46
 720 171 720 171 706.5 129 c 128,-1,47
 693 87 693 87 669.5 56.5 c 128,-1,48
 646 26 646 26 613.5 8.5 c 128,-1,49
 581 -9 581 -9 542 -9 c 0,34,35
598 288 m 0,50,51
 584 288 584 288 569.5 278.5 c 128,-1,52
 555 269 555 269 542.5 250 c 128,-1,53
 530 231 530 231 521.5 202.5 c 128,-1,54
 513 174 513 174 513 135 c 0,55,56
 513 98 513 98 525 80.5 c 128,-1,57
 537 63 537 63 556 63 c 0,58,59
 593 63 593 63 616.5 103 c 128,-1,60
 640 143 640 143 640 214 c 0,61,62
 640 252 640 252 627.5 270 c 128,-1,63
 615 288 615 288 598 288 c 0,50,51
EndSplineSet
EndChar

StartChar: ampersand
Encoding: 38 38 7
Width: 605
Flags: W
LayerCount: 2
Back
Fore
SplineSet
379 0 m 1,0,-1
 363 34 l 1,1,2
 333 8 333 8 289 -8 c 128,-1,3
 245 -24 245 -24 188 -24 c 0,4,5
 141 -24 141 -24 107 -11 c 128,-1,6
 73 2 73 2 51.5 24 c 128,-1,7
 30 46 30 46 19.5 75.5 c 128,-1,8
 9 105 9 105 9 137 c 0,9,10
 9 178 9 178 22.5 211.5 c 128,-1,11
 36 245 36 245 57.5 272.5 c 128,-1,12
 79 300 79 300 105 323 c 128,-1,13
 131 346 131 346 156 367 c 1,14,15
 142 399 142 399 129 436.5 c 128,-1,16
 116 474 116 474 116 514 c 0,17,18
 116 558 116 558 135.5 593 c 128,-1,19
 155 628 155 628 185.5 652.5 c 128,-1,20
 216 677 216 677 255 690 c 128,-1,21
 294 703 294 703 333 703 c 0,22,23
 394 703 394 703 427 670.5 c 128,-1,24
 460 638 460 638 460 585 c 0,25,26
 460 547 460 547 447 517 c 128,-1,27
 434 487 434 487 412 461.5 c 128,-1,28
 390 436 390 436 362.5 414.5 c 128,-1,29
 335 393 335 393 305 371 c 1,30,-1
 383 211 l 1,31,32
 390 246 390 246 395 283 c 128,-1,33
 400 320 400 320 406 352 c 1,34,-1
 528 352 l 1,35,36
 524 331 524 331 518 303 c 128,-1,37
 512 275 512 275 502.5 244.5 c 128,-1,38
 493 214 493 214 480 182 c 128,-1,39
 467 150 467 150 449 120 c 1,40,-1
 529 0 l 1,41,-1
 379 0 l 1,0,-1
313 604 m 0,42,43
 281 604 281 604 261.5 581 c 128,-1,44
 242 558 242 558 242 518 c 0,45,46
 242 498 242 498 248 476.5 c 128,-1,47
 254 455 254 455 263 432 c 1,48,49
 296 461 296 461 321 491 c 128,-1,50
 346 521 346 521 346 563 c 0,51,52
 346 586 346 586 337 595 c 128,-1,53
 328 604 328 604 313 604 c 0,42,43
204 300 m 1,54,55
 175 266 175 266 159 230 c 128,-1,56
 143 194 143 194 143 150 c 0,57,58
 143 135 143 135 146.5 121 c 128,-1,59
 150 107 150 107 159.5 95.5 c 128,-1,60
 169 84 169 84 185 77.5 c 128,-1,61
 201 71 201 71 226 71 c 0,62,63
 252 71 252 71 273 80 c 128,-1,64
 294 89 294 89 311 105 c 1,65,-1
 204 300 l 1,54,55
EndSplineSet
EndChar

StartChar: quotesingle
Encoding: 39 39 8
Width: 199
Flags: W
LayerCount: 2
Back
Fore
SplineSet
167 450 m 1,0,-1
 84 450 l 1,1,-1
 118 750 l 1,2,-1
 239 750 l 1,3,-1
 167 450 l 1,0,-1
EndSplineSet
EndChar

StartChar: parenleft
Encoding: 40 40 9
Width: 279
Flags: W
LayerCount: 2
Back
Fore
SplineSet
58 -136 m 1,0,1
 44 -90 44 -90 36 -24.5 c 128,-1,2
 28 41 28 41 28 116 c 0,3,4
 28 187 28 187 36 263 c 128,-1,5
 44 339 44 339 65 419 c 128,-1,6
 86 499 86 499 122 582 c 128,-1,7
 158 665 158 665 214 750 c 1,8,-1
 329 750 l 1,9,10
 291 692 291 692 256 627.5 c 128,-1,11
 221 563 221 563 194.5 489.5 c 128,-1,12
 168 416 168 416 152 331.5 c 128,-1,13
 136 247 136 247 136 149 c 0,14,15
 136 64 136 64 146.5 -10 c 128,-1,16
 157 -84 157 -84 173 -136 c 1,17,-1
 58 -136 l 1,0,1
EndSplineSet
EndChar

StartChar: parenright
Encoding: 41 41 10
Width: 279
Flags: W
LayerCount: 2
Back
Fore
SplineSet
-53 -136 m 1,0,1
 -14 -78 -14 -78 21 -13.5 c 128,-1,2
 56 51 56 51 82.5 124.5 c 128,-1,3
 109 198 109 198 125 282.5 c 128,-1,4
 141 367 141 367 141 465 c 0,5,6
 141 550 141 550 130.5 624 c 128,-1,7
 120 698 120 698 103 750 c 1,8,-1
 218 750 l 1,9,10
 232 704 232 704 240 638.5 c 128,-1,11
 248 573 248 573 248 498 c 0,12,13
 248 427 248 427 239.5 351 c 128,-1,14
 231 275 231 275 210 195 c 128,-1,15
 189 115 189 115 153 32 c 128,-1,16
 117 -51 117 -51 62 -136 c 1,17,-1
 -53 -136 l 1,0,1
EndSplineSet
EndChar

StartChar: asterisk
Encoding: 42 42 11
Width: 436
Flags: W
LayerCount: 2
Back
Fore
SplineSet
256 549 m 1,0,-1
 159 409 l 1,1,-1
 97 474 l 1,2,-1
 227 565 l 1,3,-1
 88 617 l 1,4,-1
 154 699 l 1,5,-1
 249 592 l 1,6,-1
 237 749 l 1,7,-1
 340 749 l 1,8,-1
 272 592 l 1,9,-1
 406 699 l 1,10,-1
 443 617 l 1,11,-1
 291 567 l 1,12,-1
 385 477 l 1,13,-1
 301 412 l 1,14,-1
 256 549 l 1,0,-1
EndSplineSet
EndChar

StartChar: plus
Encoding: 43 43 12
Width: 443
Flags: W
LayerCount: 2
Back
Fore
SplineSet
244 230 m 1,0,-1
 221 102 l 1,1,-1
 131 102 l 1,2,-1
 153 230 l 1,3,-1
 32 230 l 1,4,-1
 49 324 l 1,5,-1
 170 324 l 1,6,-1
 193 452 l 1,7,-1
 283 452 l 1,8,-1
 260 324 l 1,9,-1
 382 324 l 1,10,-1
 365 230 l 1,11,-1
 244 230 l 1,0,-1
EndSplineSet
EndChar

StartChar: comma
Encoding: 44 44 13
Width: 234
Flags: W
LayerCount: 2
Back
Fore
SplineSet
9 -110 m 1,0,-1
 -13 -96 l 1,1,-1
 31 -10 l 1,2,-1
 4 0 l 1,3,-1
 26 130 l 1,4,-1
 147 130 l 1,5,-1
 124 0 l 1,6,-1
 9 -110 l 1,0,-1
EndSplineSet
EndChar

StartChar: hyphen
Encoding: 45 45 14
Width: 408
Flags: W
LayerCount: 2
Back
Fore
SplineSet
44 230 m 1,0,-1
 61 324 l 1,1,-1
 340 324 l 1,2,-1
 323 230 l 1,3,-1
 44 230 l 1,0,-1
EndSplineSet
EndChar

StartChar: period
Encoding: 46 46 15
Width: 235
Flags: W
LayerCount: 2
Back
Fore
SplineSet
4 0 m 1,0,-1
 27 130 l 1,1,-1
 152 130 l 1,2,-1
 129 0 l 1,3,-1
 4 0 l 1,0,-1
EndSplineSet
EndChar

StartChar: slash
Encoding: 47 47 16
Width: 538
Flags: W
LayerCount: 2
Back
Fore
SplineSet
88 -85 m 1,0,-1
 -46 -85 l 1,1,-1
 416 700 l 1,2,-1
 550 700 l 1,3,-1
 88 -85 l 1,0,-1
EndSplineSet
EndChar

StartChar: zero
Encoding: 48 48 17
Width: 691
Flags: W
LayerCount: 2
Back
Fore
SplineSet
268 -14 m 0,0,1
 219 -14 219 -14 181 5.5 c 128,-1,2
 143 25 143 25 116.5 60.5 c 128,-1,3
 90 96 90 96 76 146 c 128,-1,4
 62 196 62 196 62 257 c 0,5,6
 62 354 62 354 90.5 438 c 128,-1,7
 119 522 119 522 167 583 c 128,-1,8
 215 644 215 644 277.5 679 c 128,-1,9
 340 714 340 714 407 714 c 0,10,11
 454 714 454 714 492 693.5 c 128,-1,12
 530 673 530 673 556.5 636.5 c 128,-1,13
 583 600 583 600 597.5 548.5 c 128,-1,14
 612 497 612 497 612 435 c 0,15,16
 612 340 612 340 586 258.5 c 128,-1,17
 560 177 560 177 513.5 116 c 128,-1,18
 467 55 467 55 404 20.5 c 128,-1,19
 341 -14 341 -14 268 -14 c 0,0,1
386 601 m 0,20,21
 353 601 353 601 318 579.5 c 128,-1,22
 283 558 283 558 254 515.5 c 128,-1,23
 225 473 225 473 206.5 410 c 128,-1,24
 188 347 188 347 188 265 c 0,25,26
 188 180 188 180 216.5 140.5 c 128,-1,27
 245 101 245 101 290 101 c 0,28,29
 330 101 330 101 366 122 c 128,-1,30
 402 143 402 143 429 184.5 c 128,-1,31
 456 226 456 226 472 286.5 c 128,-1,32
 488 347 488 347 488 426 c 0,33,34
 488 514 488 514 458 557.5 c 128,-1,35
 428 601 428 601 386 601 c 0,20,21
EndSplineSet
EndChar

StartChar: one
Encoding: 49 49 18
Width: 366
Flags: W
LayerCount: 2
Back
Fore
SplineSet
89 0 m 1,0,-1
 181 519 l 1,1,2
 153 492 153 492 101 483 c 1,3,-1
 112 591 l 1,4,5
 125 594 125 594 144 605 c 128,-1,6
 163 616 163 616 181.5 631 c 128,-1,7
 200 646 200 646 216.5 664 c 128,-1,8
 233 682 233 682 241 700 c 1,9,-1
 338 700 l 1,10,-1
 215 0 l 1,11,-1
 89 0 l 1,0,-1
EndSplineSet
EndChar

StartChar: two
Encoding: 50 50 19
Width: 519
Flags: W
LayerCount: 2
Back
Fore
SplineSet
-6 0 m 1,0,1
 68 94 68 94 122.5 164.5 c 128,-1,2
 177 235 177 235 215 287.5 c 128,-1,3
 253 340 253 340 277 378 c 128,-1,4
 301 416 301 416 314.5 443.5 c 128,-1,5
 328 471 328 471 332.5 492 c 128,-1,6
 337 513 337 513 337 532 c 0,7,8
 337 567 337 567 321 587 c 128,-1,9
 305 607 305 607 274 607 c 0,10,11
 244 607 244 607 218 595 c 128,-1,12
 192 583 192 583 171 565.5 c 128,-1,13
 150 548 150 548 134.5 530 c 128,-1,14
 119 512 119 512 111 500 c 1,15,-1
 115 615 l 1,16,17
 125 628 125 628 143.5 645 c 128,-1,18
 162 662 162 662 188 677.5 c 128,-1,19
 214 693 214 693 246.5 703.5 c 128,-1,20
 279 714 279 714 317 714 c 0,21,22
 358 714 358 714 385.5 700.5 c 128,-1,23
 413 687 413 687 429.5 665.5 c 128,-1,24
 446 644 446 644 453 617 c 128,-1,25
 460 590 460 590 460 563 c 0,26,27
 460 525 460 525 447.5 484 c 128,-1,28
 435 443 435 443 408 391.5 c 128,-1,29
 381 340 381 340 337.5 275 c 128,-1,30
 294 210 294 210 232 124 c 1,31,-1
 406 124 l 1,32,-1
 385 0 l 1,33,-1
 -6 0 l 1,0,1
EndSplineSet
EndChar

StartChar: three
Encoding: 51 51 20
Width: 528
Flags: W
LayerCount: 2
Back
Fore
SplineSet
153 -14 m 0,0,1
 124 -14 124 -14 96.5 -8 c 128,-1,2
 69 -2 69 -2 47.5 6.5 c 128,-1,3
 26 15 26 15 11.5 24.5 c 128,-1,4
 -3 34 -3 34 -6 40 c 1,5,-1
 46 158 l 1,6,7
 49 148 49 148 61.5 139 c 128,-1,8
 74 130 74 130 91.5 123.5 c 128,-1,9
 109 117 109 117 129 113 c 128,-1,10
 149 109 149 109 168 109 c 0,11,12
 196 109 196 109 221.5 115.5 c 128,-1,13
 247 122 247 122 265.5 137.5 c 128,-1,14
 284 153 284 153 295 179 c 128,-1,15
 306 205 306 205 306 244 c 0,16,17
 306 262 306 262 302 277.5 c 128,-1,18
 298 293 298 293 288.5 305 c 128,-1,19
 279 317 279 317 263 324 c 128,-1,20
 247 331 247 331 223 331 c 2,21,-1
 135 331 l 1,22,-1
 163 430 l 1,23,-1
 208 430 l 2,24,25
 247 430 247 430 271 440.5 c 128,-1,26
 295 451 295 451 308.5 467 c 128,-1,27
 322 483 322 483 327 502.5 c 128,-1,28
 332 522 332 522 332 541 c 0,29,30
 332 570 332 570 315.5 588 c 128,-1,31
 299 606 299 606 259 606 c 0,32,33
 235 606 235 606 202 598 c 128,-1,34
 169 590 169 590 147 572 c 1,35,-1
 143 668 l 1,36,37
 152 676 152 676 168 684 c 128,-1,38
 184 692 184 692 204.5 699 c 128,-1,39
 225 706 225 706 247.5 710 c 128,-1,40
 270 714 270 714 293 714 c 0,41,42
 344 714 344 714 376.5 700 c 128,-1,43
 409 686 409 686 427.5 664 c 128,-1,44
 446 642 446 642 453.5 615 c 128,-1,45
 461 588 461 588 461 563 c 0,46,47
 461 505 461 505 437.5 461.5 c 128,-1,48
 414 418 414 418 381 388 c 1,49,50
 402 366 402 366 415.5 332 c 128,-1,51
 429 298 429 298 429 254 c 0,52,53
 429 188 429 188 404.5 138 c 128,-1,54
 380 88 380 88 340.5 54 c 128,-1,55
 301 20 301 20 251.5 3 c 128,-1,56
 202 -14 202 -14 153 -14 c 0,0,1
EndSplineSet
EndChar

StartChar: four
Encoding: 52 52 21
Width: 569
Flags: W
LayerCount: 2
Back
Fore
SplineSet
392 190 m 1,0,-1
 358 0 l 1,1,-1
 232 0 l 1,2,-1
 266 190 l 1,3,-1
 -5 190 l 1,4,-1
 375 700 l 1,5,-1
 482 700 l 1,6,-1
 410 294 l 1,7,-1
 487 294 l 1,8,-1
 468 190 l 1,9,-1
 392 190 l 1,0,-1
321 504 m 1,10,-1
 180 294 l 1,11,-1
 284 294 l 1,12,-1
 321 504 l 1,10,-1
EndSplineSet
EndChar

StartChar: five
Encoding: 53 53 22
Width: 528
Flags: W
LayerCount: 2
Back
Fore
SplineSet
169 -13 m 0,0,1
 136 -13 136 -13 107 -6.5 c 128,-1,2
 78 0 78 0 56 9 c 128,-1,3
 34 18 34 18 21.5 27.5 c 128,-1,4
 9 37 9 37 9 43 c 2,5,-1
 59 159 l 1,6,7
 73 138 73 138 106 122.5 c 128,-1,8
 139 107 139 107 185 107 c 0,9,10
 209 107 209 107 232.5 114.5 c 128,-1,11
 256 122 256 122 275.5 139.5 c 128,-1,12
 295 157 295 157 307 185 c 128,-1,13
 319 213 319 213 319 254 c 0,14,15
 319 270 319 270 314 284.5 c 128,-1,16
 309 299 309 299 295.5 309.5 c 128,-1,17
 282 320 282 320 258 326 c 128,-1,18
 234 332 234 332 196 332 c 2,19,-1
 91 332 l 1,20,-1
 197 700 l 1,21,-1
 487 700 l 1,22,-1
 451 576 l 1,23,-1
 269 576 l 1,24,-1
 231 439 l 1,25,26
 337 437 337 437 389 398 c 128,-1,27
 441 359 441 359 441 276 c 0,28,29
 441 205 441 205 416.5 151 c 128,-1,30
 392 97 392 97 353 60.5 c 128,-1,31
 314 24 314 24 265.5 5.5 c 128,-1,32
 217 -13 217 -13 169 -13 c 0,0,1
EndSplineSet
EndChar

StartChar: six
Encoding: 54 54 23
Width: 551
Flags: W
LayerCount: 2
Back
Fore
SplineSet
204 -14 m 0,0,1
 172 -14 172 -14 143.5 -3 c 128,-1,2
 115 8 115 8 93.5 32 c 128,-1,3
 72 56 72 56 59.5 93.5 c 128,-1,4
 47 131 47 131 47 184 c 0,5,6
 47 258 47 258 68.5 325 c 128,-1,7
 90 392 90 392 123.5 449.5 c 128,-1,8
 157 507 157 507 198 553.5 c 128,-1,9
 239 600 239 600 278.5 632.5 c 128,-1,10
 318 665 318 665 351.5 682.5 c 128,-1,11
 385 700 385 700 404 700 c 1,12,-1
 478 650 l 2,13,14
 472 650 472 650 452 638.5 c 128,-1,15
 432 627 432 627 404.5 607.5 c 128,-1,16
 377 588 377 588 345.5 561.5 c 128,-1,17
 314 535 314 535 286 505.5 c 128,-1,18
 258 476 258 476 237 444 c 128,-1,19
 216 412 216 412 209 382 c 1,20,21
 220 395 220 395 235 402.5 c 128,-1,22
 250 410 250 410 264.5 414 c 128,-1,23
 279 418 279 418 292 419.5 c 128,-1,24
 305 421 305 421 311 421 c 0,25,26
 344 421 344 421 373 410.5 c 128,-1,27
 402 400 402 400 423.5 380 c 128,-1,28
 445 360 445 360 457 329 c 128,-1,29
 469 298 469 298 469 258 c 0,30,31
 469 206 469 206 449.5 157 c 128,-1,32
 430 108 430 108 395 70 c 128,-1,33
 360 32 360 32 311 9 c 128,-1,34
 262 -14 262 -14 204 -14 c 0,0,1
285 317 m 0,35,36
 261 317 261 317 239 308 c 128,-1,37
 217 299 217 299 200.5 282.5 c 128,-1,38
 184 266 184 266 174.5 241.5 c 128,-1,39
 165 217 165 217 165 186 c 0,40,41
 165 165 165 165 172 148.5 c 128,-1,42
 179 132 179 132 189.5 121.5 c 128,-1,43
 200 111 200 111 213 105.5 c 128,-1,44
 226 100 226 100 237 100 c 0,45,46
 262 100 262 100 283 112.5 c 128,-1,47
 304 125 304 125 319.5 144.5 c 128,-1,48
 335 164 335 164 344 189 c 128,-1,49
 353 214 353 214 353 240 c 0,50,51
 353 254 353 254 349.5 267.5 c 128,-1,52
 346 281 346 281 338 292 c 128,-1,53
 330 303 330 303 317 310 c 128,-1,54
 304 317 304 317 285 317 c 0,35,36
EndSplineSet
EndChar

StartChar: seven
Encoding: 55 55 24
Width: 502
Flags: W
LayerCount: 2
Back
Fore
SplineSet
157 0 m 1,0,-1
 23 0 l 1,1,-1
 331 576 l 1,2,-1
 100 576 l 1,3,-1
 122 700 l 1,4,-1
 539 700 l 1,5,-1
 157 0 l 1,0,-1
EndSplineSet
EndChar

StartChar: eight
Encoding: 56 56 25
Width: 587
Flags: W
LayerCount: 2
Back
Fore
SplineSet
215 -14 m 0,0,1
 168 -14 168 -14 134 -0.5 c 128,-1,2
 100 13 100 13 78.5 36.5 c 128,-1,3
 57 60 57 60 46.5 90 c 128,-1,4
 36 120 36 120 36 153 c 0,5,6
 36 207 36 207 65 265 c 128,-1,7
 94 323 94 323 160 377 c 1,8,9
 145 398 145 398 138 430.5 c 128,-1,10
 131 463 131 463 131 494 c 0,11,12
 131 534 131 534 142.5 573 c 128,-1,13
 154 612 154 612 180 643.5 c 128,-1,14
 206 675 206 675 249.5 694.5 c 128,-1,15
 293 714 293 714 357 714 c 0,16,17
 400 714 400 714 430.5 703.5 c 128,-1,18
 461 693 461 693 479.5 674.5 c 128,-1,19
 498 656 498 656 506.5 632 c 128,-1,20
 515 608 515 608 515 581 c 0,21,22
 515 521 515 521 486 474 c 128,-1,23
 457 427 457 427 417 386 c 1,24,25
 446 365 446 365 466.5 325 c 128,-1,26
 487 285 487 285 487 234 c 0,27,28
 487 194 487 194 470 150 c 128,-1,29
 453 106 453 106 419 69.5 c 128,-1,30
 385 33 385 33 334 9.5 c 128,-1,31
 283 -14 283 -14 215 -14 c 0,0,1
335 614 m 0,32,33
 289 614 289 614 265 584.5 c 128,-1,34
 241 555 241 555 241 498 c 0,35,36
 241 477 241 477 251.5 456.5 c 128,-1,37
 262 436 262 436 297 425 c 1,38,39
 395 455 395 455 395 553 c 0,40,41
 395 578 395 578 382.5 596 c 128,-1,42
 370 614 370 614 335 614 c 0,32,33
289 332 m 1,43,44
 268 328 268 328 244.5 316 c 128,-1,45
 221 304 221 304 201.5 284 c 128,-1,46
 182 264 182 264 169 236 c 128,-1,47
 156 208 156 208 156 173 c 0,48,49
 156 132 156 132 177.5 110 c 128,-1,50
 199 88 199 88 238 88 c 0,51,52
 301 88 301 88 332 127.5 c 128,-1,53
 363 167 363 167 363 224 c 0,54,55
 363 269 363 269 341 296 c 128,-1,56
 319 323 319 323 289 332 c 1,43,44
EndSplineSet
EndChar

StartChar: nine
Encoding: 57 57 26
Width: 554
Flags: W
LayerCount: 2
Back
Fore
SplineSet
344 714 m 0,0,1
 379 714 379 714 408 703 c 128,-1,2
 437 692 437 692 458 668.5 c 128,-1,3
 479 645 479 645 490.5 608.5 c 128,-1,4
 502 572 502 572 502 520 c 0,5,6
 502 449 502 449 485 383 c 128,-1,7
 468 317 468 317 439.5 259 c 128,-1,8
 411 201 411 201 374 153.5 c 128,-1,9
 337 106 337 106 296.5 72 c 128,-1,10
 256 38 256 38 215.5 19 c 128,-1,11
 175 0 175 0 140 0 c 1,12,-1
 73 50 l 1,13,14
 84 50 84 50 106.5 59.5 c 128,-1,15
 129 69 129 69 157.5 87 c 128,-1,16
 186 105 186 105 216.5 129.5 c 128,-1,17
 247 154 247 154 273.5 183.5 c 128,-1,18
 300 213 300 213 319.5 247 c 128,-1,19
 339 281 339 281 346 317 c 1,20,21
 335 306 335 306 316 298.5 c 128,-1,22
 297 291 297 291 279 286.5 c 128,-1,23
 261 282 261 282 248.5 280.5 c 128,-1,24
 236 279 236 279 237 279 c 1,25,26
 165 279 165 279 121.5 319.5 c 128,-1,27
 78 360 78 360 78 438 c 0,28,29
 78 492 78 492 98 542 c 128,-1,30
 118 592 118 592 153.5 630.5 c 128,-1,31
 189 669 189 669 237.5 691.5 c 128,-1,32
 286 714 286 714 344 714 c 0,0,1
267 383 m 0,33,34
 291 383 291 383 313 392 c 128,-1,35
 335 401 335 401 351.5 418 c 128,-1,36
 368 435 368 435 378 460.5 c 128,-1,37
 388 486 388 486 388 519 c 0,38,39
 388 542 388 542 381.5 557.5 c 128,-1,40
 375 573 375 573 364.5 582.5 c 128,-1,41
 354 592 354 592 342 596 c 128,-1,42
 330 600 330 600 319 600 c 0,43,44
 294 600 294 600 273 587.5 c 128,-1,45
 252 575 252 575 236.5 555 c 128,-1,46
 221 535 221 535 212.5 511 c 128,-1,47
 204 487 204 487 204 463 c 0,48,49
 204 432 204 432 219 407.5 c 128,-1,50
 234 383 234 383 267 383 c 0,33,34
EndSplineSet
EndChar

StartChar: colon
Encoding: 58 58 27
Width: 234
Flags: W
LayerCount: 2
Back
Fore
SplineSet
58 310 m 1,0,-1
 81 440 l 1,1,-1
 205 440 l 1,2,-1
 182 310 l 1,3,-1
 58 310 l 1,0,-1
3 0 m 1,4,-1
 26 130 l 1,5,-1
 151 130 l 1,6,-1
 128 0 l 1,7,-1
 3 0 l 1,4,-1
EndSplineSet
EndChar

StartChar: semicolon
Encoding: 59 59 28
Width: 250
Flags: W
LayerCount: 2
Back
Fore
SplineSet
60 310 m 1,0,-1
 83 440 l 1,1,-1
 221 440 l 1,2,-1
 198 310 l 1,3,-1
 60 310 l 1,0,-1
11 -110 m 1,4,-1
 -11 -96 l 1,5,-1
 33 -10 l 1,6,-1
 6 0 l 1,7,-1
 28 130 l 1,8,-1
 149 130 l 1,9,-1
 126 0 l 1,10,-1
 11 -110 l 1,4,-1
EndSplineSet
EndChar

StartChar: less
Encoding: 60 60 29
Width: 439
Flags: W
LayerCount: 2
Back
Fore
SplineSet
181 78 m 1,0,-1
 28 284 l 1,1,-1
 254 490 l 1,2,-1
 406 490 l 1,3,-1
 180 284 l 1,4,-1
 333 78 l 1,5,-1
 181 78 l 1,0,-1
EndSplineSet
EndChar

StartChar: equal
Encoding: 61 61 30
Width: 485
Flags: W
LayerCount: 2
Back
Fore
SplineSet
67 310 m 1,0,-1
 84 404 l 1,1,-1
 417 404 l 1,2,-1
 400 310 l 1,3,-1
 67 310 l 1,0,-1
39 150 m 1,4,-1
 56 244 l 1,5,-1
 389 244 l 1,6,-1
 372 150 l 1,7,-1
 39 150 l 1,4,-1
EndSplineSet
EndChar

StartChar: greater
Encoding: 62 62 31
Width: 441
Flags: W
LayerCount: 2
Back
Fore
SplineSet
173 78 m 1,0,-1
 21 78 l 1,1,-1
 247 284 l 1,2,-1
 94 490 l 1,3,-1
 246 490 l 1,4,-1
 399 284 l 1,5,-1
 173 78 l 1,0,-1
EndSplineSet
EndChar

StartChar: question
Encoding: 63 63 32
Width: 432
Flags: W
LayerCount: 2
Back
Fore
SplineSet
139 200 m 1,0,1
 140 217 140 217 141 227 c 128,-1,2
 142 237 142 237 143 242 c 128,-1,3
 144 247 144 247 144.5 249 c 128,-1,4
 145 251 145 251 145 253 c 0,5,6
 154 304 154 304 180 344.5 c 128,-1,7
 206 385 206 385 234 422.5 c 128,-1,8
 262 460 262 460 283.5 498 c 128,-1,9
 305 536 305 536 305 581 c 0,10,11
 305 617 305 617 287.5 634.5 c 128,-1,12
 270 652 270 652 238 652 c 0,13,14
 202 652 202 652 172.5 632.5 c 128,-1,15
 143 613 143 613 118 587 c 1,16,-1
 107 679 l 1,17,18
 139 716 139 716 181 733 c 128,-1,19
 223 750 223 750 264 750 c 0,20,21
 307 750 307 750 337.5 735 c 128,-1,22
 368 720 368 720 387 696 c 128,-1,23
 406 672 406 672 414.5 643 c 128,-1,24
 423 614 423 614 423 586 c 0,25,26
 423 552 423 552 410 521.5 c 128,-1,27
 397 491 397 491 377.5 462.5 c 128,-1,28
 358 434 358 434 334 406 c 128,-1,29
 310 378 310 378 288 348 c 128,-1,30
 266 318 266 318 249 285 c 128,-1,31
 232 252 232 252 226 213 c 2,32,-1
 224 200 l 1,33,-1
 139 200 l 1,0,1
83 0 m 1,34,-1
 105 124 l 1,35,-1
 229 124 l 1,36,-1
 207 0 l 1,37,-1
 83 0 l 1,34,-1
EndSplineSet
EndChar

StartChar: at
Encoding: 64 64 33
Width: 696
Flags: W
LayerCount: 2
Back
Fore
SplineSet
511 379 m 1,0,1
 497 399 497 399 473 415.5 c 128,-1,2
 449 432 449 432 411 432 c 0,3,4
 365 432 365 432 315 404 c 128,-1,5
 265 376 265 376 224 331.5 c 128,-1,6
 183 287 183 287 156 232.5 c 128,-1,7
 129 178 129 178 129 124 c 0,8,9
 129 91 129 91 143.5 65.5 c 128,-1,10
 158 40 158 40 194 40 c 0,11,12
 214 40 214 40 237.5 47.5 c 128,-1,13
 261 55 261 55 285.5 70 c 128,-1,14
 310 85 310 85 333.5 106.5 c 128,-1,15
 357 128 357 128 377 156 c 1,16,17
 375 148 375 148 370.5 135 c 128,-1,18
 366 122 366 122 366 102 c 0,19,20
 366 81 366 81 374.5 61.5 c 128,-1,21
 383 42 383 42 406 42 c 0,22,23
 418 42 418 42 435 47.5 c 128,-1,24
 452 53 452 53 469.5 62 c 128,-1,25
 487 71 487 71 504 82.5 c 128,-1,26
 521 94 521 94 534 106 c 1,27,28
 505 63 505 63 468 27.5 c 128,-1,29
 431 -8 431 -8 388 -33.5 c 128,-1,30
 345 -59 345 -59 298.5 -73 c 128,-1,31
 252 -87 252 -87 205 -87 c 0,32,33
 117 -87 117 -87 69 -34 c 128,-1,34
 21 19 21 19 21 114 c 0,35,36
 21 174 21 174 37.5 230.5 c 128,-1,37
 54 287 54 287 83 335.5 c 128,-1,38
 112 384 112 384 151 424 c 128,-1,39
 190 464 190 464 236 493 c 128,-1,40
 282 522 282 522 332.5 537.5 c 128,-1,41
 383 553 383 553 434 553 c 0,42,43
 525 553 525 553 572.5 499 c 128,-1,44
 620 445 620 445 620 353 c 0,45,46
 620 312 620 312 609.5 266.5 c 128,-1,47
 599 221 599 221 578 182.5 c 128,-1,48
 557 144 557 144 525 119 c 128,-1,49
 493 94 493 94 450 94 c 0,50,51
 436 94 436 94 427 99.5 c 128,-1,52
 418 105 418 105 418 128 c 0,53,54
 418 150 418 150 425.5 174.5 c 128,-1,55
 433 199 433 199 446 229 c 128,-1,56
 459 259 459 259 476 295.5 c 128,-1,57
 493 332 493 332 511 379 c 1,0,1
408 371 m 0,58,59
 416 371 416 371 429 368 c 128,-1,60
 442 365 442 365 445 349 c 1,61,62
 431 309 431 309 405.5 266 c 128,-1,63
 380 223 380 223 349.5 187.5 c 128,-1,64
 319 152 319 152 288.5 129 c 128,-1,65
 258 106 258 106 236 106 c 0,66,67
 219 106 219 106 212 119 c 128,-1,68
 205 132 205 132 205 152 c 0,69,70
 205 196 205 196 226.5 235.5 c 128,-1,71
 248 275 248 275 279.5 305 c 128,-1,72
 311 335 311 335 346 353 c 128,-1,73
 381 371 381 371 408 371 c 0,58,59
EndSplineSet
EndChar

StartChar: A
Encoding: 65 65 34
Width: 607
Flags: W
LayerCount: 2
Back
Fore
SplineSet
388 0 m 1,0,-1
 367 169 l 1,1,-1
 171 169 l 1,2,-1
 90 0 l 1,3,-1
 -43 0 l 1,4,-1
 304 700 l 1,5,-1
 421 700 l 1,6,-1
 521 0 l 1,7,-1
 388 0 l 1,0,-1
326 498 m 1,8,-1
 237 293 l 1,9,-1
 344 293 l 1,10,-1
 326 498 l 1,8,-1
EndSplineSet
EndChar

StartChar: B
Encoding: 66 66 35
Width: 616
Flags: W
LayerCount: 2
Back
Fore
SplineSet
26 0 m 1,0,-1
 149 700 l 1,1,-1
 332 700 l 2,2,3
 380 700 380 700 419.5 695 c 128,-1,4
 459 690 459 690 487.5 675 c 128,-1,5
 516 660 516 660 531.5 632.5 c 128,-1,6
 547 605 547 605 547 560 c 0,7,8
 547 497 547 497 523 451.5 c 128,-1,9
 499 406 499 406 463 374 c 1,10,11
 503 354 503 354 526 322 c 128,-1,12
 549 290 549 290 549 239 c 0,13,14
 549 169 549 169 524 123 c 128,-1,15
 499 77 499 77 460 49.5 c 128,-1,16
 421 22 421 22 373.5 11 c 128,-1,17
 326 0 326 0 281 0 c 2,18,-1
 155 0 l 1,19,-1
 26 0 l 1,0,-1
258 591 m 1,20,-1
 228 419 l 1,21,-1
 343 419 l 2,22,23
 354 419 354 419 368.5 423.5 c 128,-1,24
 383 428 383 428 396.5 440 c 128,-1,25
 410 452 410 452 419 473.5 c 128,-1,26
 428 495 428 495 428 530 c 0,27,28
 428 566 428 566 412.5 578.5 c 128,-1,29
 397 591 397 591 369 591 c 2,30,-1
 258 591 l 1,20,-1
210 318 m 1,31,-1
 173 109 l 1,32,-1
 297 109 l 2,33,34
 354 109 354 109 386 138 c 128,-1,35
 418 167 418 167 418 237 c 0,36,37
 418 283 418 283 391.5 300.5 c 128,-1,38
 365 318 365 318 324 318 c 2,39,-1
 210 318 l 1,31,-1
EndSplineSet
EndChar

StartChar: C
Encoding: 67 67 36
Width: 593
Flags: W
LayerCount: 2
Back
Fore
SplineSet
294 -14 m 0,0,1
 236 -14 236 -14 189.5 6.5 c 128,-1,2
 143 27 143 27 110 65.5 c 128,-1,3
 77 104 77 104 59.5 158 c 128,-1,4
 42 212 42 212 42 278 c 0,5,6
 42 374 42 374 72.5 454 c 128,-1,7
 103 534 103 534 154.5 591.5 c 128,-1,8
 206 649 206 649 275.5 681.5 c 128,-1,9
 345 714 345 714 423 714 c 0,10,11
 473 714 473 714 519 703 c 128,-1,12
 565 692 565 692 597 673 c 1,13,-1
 561 551 l 1,14,15
 524 568 524 568 487.5 579.5 c 128,-1,16
 451 591 451 591 401 591 c 0,17,18
 348 591 348 591 307.5 566 c 128,-1,19
 267 541 267 541 239.5 499 c 128,-1,20
 212 457 212 457 197.5 402 c 128,-1,21
 183 347 183 347 183 287 c 0,22,23
 183 248 183 248 191 215.5 c 128,-1,24
 199 183 199 183 215.5 159 c 128,-1,25
 232 135 232 135 256.5 122 c 128,-1,26
 281 109 281 109 315 109 c 0,27,28
 366 109 366 109 406.5 120.5 c 128,-1,29
 447 132 447 132 490 149 c 1,30,-1
 483 27 l 1,31,32
 445 8 445 8 395 -3 c 128,-1,33
 345 -14 345 -14 294 -14 c 0,0,1
EndSplineSet
EndChar

StartChar: D
Encoding: 68 68 37
Width: 702
Flags: W
LayerCount: 2
Back
Fore
SplineSet
26 0 m 1,0,-1
 149 700 l 1,1,-1
 386 700 l 2,2,3
 444 700 444 700 491.5 681 c 128,-1,4
 539 662 539 662 572.5 626 c 128,-1,5
 606 590 606 590 624 538 c 128,-1,6
 642 486 642 486 642 420 c 0,7,8
 642 324 642 324 612 246.5 c 128,-1,9
 582 169 582 169 530 114 c 128,-1,10
 478 59 478 59 409.5 29.5 c 128,-1,11
 341 0 341 0 263 0 c 2,12,-1
 154 0 l 1,13,-1
 26 0 l 1,0,-1
256 577 m 1,14,-1
 176 123 l 1,15,-1
 285 123 l 2,16,17
 338 123 338 123 378.5 145 c 128,-1,18
 419 167 419 167 446 206 c 128,-1,19
 473 245 473 245 487 297 c 128,-1,20
 501 349 501 349 501 409 c 0,21,22
 501 487 501 487 467.5 532 c 128,-1,23
 434 577 434 577 365 577 c 2,24,-1
 256 577 l 1,14,-1
EndSplineSet
EndChar

StartChar: E
Encoding: 69 69 38
Width: 555
Flags: W
LayerCount: 2
Back
Fore
SplineSet
157 0 m 1,0,-1
 26 0 l 1,1,-1
 149 700 l 1,2,-1
 561 700 l 1,3,-1
 539 576 l 1,4,-1
 259 576 l 1,5,-1
 233 427 l 1,6,-1
 448 427 l 1,7,-1
 426 303 l 1,8,-1
 211 303 l 1,9,-1
 180 124 l 1,10,-1
 469 124 l 1,11,-1
 447 0 l 1,12,-1
 157 0 l 1,0,-1
EndSplineSet
EndChar

StartChar: F
Encoding: 70 70 39
Width: 513
Flags: W
LayerCount: 2
Back
Fore
SplineSet
256 576 m 1,0,-1
 229 427 l 1,1,-1
 431 427 l 1,2,-1
 409 303 l 1,3,-1
 207 303 l 1,4,-1
 154 0 l 1,5,-1
 26 0 l 1,6,-1
 149 700 l 1,7,-1
 539 700 l 1,8,-1
 517 576 l 1,9,-1
 256 576 l 1,0,-1
EndSplineSet
EndChar

StartChar: G
Encoding: 71 71 40
Width: 646
Flags: W
LayerCount: 2
Back
Fore
SplineSet
293 -14 m 0,0,1
 236 -14 236 -14 189.5 6.5 c 128,-1,2
 143 27 143 27 110.5 65.5 c 128,-1,3
 78 104 78 104 60 158 c 128,-1,4
 42 212 42 212 42 279 c 0,5,6
 42 374 42 374 72 454 c 128,-1,7
 102 534 102 534 154 591.5 c 128,-1,8
 206 649 206 649 276.5 681.5 c 128,-1,9
 347 714 347 714 427 714 c 0,10,11
 450 714 450 714 475.5 711 c 128,-1,12
 501 708 501 708 526 703 c 128,-1,13
 551 698 551 698 573 690 c 128,-1,14
 595 682 595 682 610 673 c 1,15,-1
 574 551 l 1,16,17
 558 559 558 559 537.5 566.5 c 128,-1,18
 517 574 517 574 495.5 579.5 c 128,-1,19
 474 585 474 585 451.5 588 c 128,-1,20
 429 591 429 591 408 591 c 0,21,22
 351 591 351 591 309 566 c 128,-1,23
 267 541 267 541 239 499.5 c 128,-1,24
 211 458 211 458 197.5 404 c 128,-1,25
 184 350 184 350 184 293 c 0,26,27
 184 212 184 212 219 160.5 c 128,-1,28
 254 109 254 109 325 109 c 0,29,30
 345 109 345 109 363.5 112 c 128,-1,31
 382 115 382 115 405 120 c 1,32,-1
 427 245 l 1,33,-1
 371 245 l 1,34,-1
 389 351 l 1,35,-1
 574 351 l 1,36,-1
 555 243 l 1,37,-1
 519 39 l 1,38,39
 500 28 500 28 472.5 18.5 c 128,-1,40
 445 9 445 9 414 1.5 c 128,-1,41
 383 -6 383 -6 351.5 -10 c 128,-1,42
 320 -14 320 -14 293 -14 c 0,0,1
EndSplineSet
EndChar

StartChar: H
Encoding: 72 72 41
Width: 718
Flags: W
LayerCount: 2
Back
Fore
SplineSet
425 0 m 1,0,-1
 479 303 l 1,1,-1
 207 303 l 1,2,-1
 154 0 l 1,3,-1
 26 0 l 1,4,-1
 149 700 l 1,5,-1
 277 700 l 1,6,-1
 229 427 l 1,7,-1
 501 427 l 1,8,-1
 549 700 l 1,9,-1
 677 700 l 1,10,-1
 553 0 l 1,11,-1
 425 0 l 1,0,-1
EndSplineSet
EndChar

StartChar: I
Encoding: 73 73 42
Width: 283
Flags: W
LayerCount: 2
Back
Fore
SplineSet
26 0 m 1,0,-1
 149 700 l 1,1,-1
 277 700 l 1,2,-1
 154 0 l 1,3,-1
 26 0 l 1,0,-1
EndSplineSet
EndChar

StartChar: J
Encoding: 74 74 43
Width: 283
Flags: W
LayerCount: 2
Back
Fore
SplineSet
-70 -172 m 1,0,-1
 -62 -76 l 1,1,-1
 -28 -76 l 2,2,3
 2 -76 2 -76 17 4 c 2,4,-1
 140 700 l 1,5,-1
 269 700 l 1,6,-1
 141 -24 l 2,7,8
 127 -99 127 -99 80 -135.5 c 128,-1,9
 33 -172 33 -172 -30 -172 c 2,10,-1
 -70 -172 l 1,0,-1
EndSplineSet
EndChar

StartChar: K
Encoding: 75 75 44
Width: 612
Flags: W
LayerCount: 2
Back
Fore
SplineSet
385 0 m 1,0,-1
 236 370 l 1,1,-1
 508 700 l 1,2,-1
 655 700 l 1,3,-1
 383 370 l 1,4,-1
 532 0 l 1,5,-1
 385 0 l 1,0,-1
26 0 m 1,6,-1
 149 700 l 1,7,-1
 277 700 l 1,8,-1
 154 0 l 1,9,-1
 26 0 l 1,6,-1
EndSplineSet
EndChar

StartChar: L
Encoding: 76 76 45
Width: 490
Flags: W
LayerCount: 2
Back
Fore
SplineSet
26 0 m 1,0,-1
 149 700 l 1,1,-1
 277 700 l 1,2,-1
 176 124 l 1,3,-1
 422 124 l 1,4,-1
 400 0 l 1,5,-1
 26 0 l 1,0,-1
EndSplineSet
EndChar

StartChar: M
Encoding: 77 77 46
Width: 809
Flags: W
LayerCount: 2
Back
Fore
SplineSet
541 0 m 1,0,-1
 568 469 l 1,1,-1
 359 147 l 1,2,-1
 263 468 l 1,3,-1
 125 0 l 1,4,-1
 -8 0 l 1,5,-1
 208 700 l 1,6,-1
 312 700 l 1,7,-1
 400 381 l 1,8,-1
 601 700 l 1,9,-1
 704 700 l 1,10,-1
 674 0 l 1,11,-1
 541 0 l 1,0,-1
EndSplineSet
EndChar

StartChar: N
Encoding: 78 78 47
Width: 688
Flags: W
LayerCount: 2
Back
Fore
SplineSet
423 0 m 1,0,-1
 239 480 l 1,1,-1
 154 0 l 1,2,-1
 26 0 l 1,3,-1
 149 700 l 1,4,-1
 272 700 l 1,5,-1
 443 248 l 1,6,-1
 523 700 l 1,7,-1
 651 700 l 1,8,-1
 527 0 l 1,9,-1
 423 0 l 1,0,-1
EndSplineSet
EndChar

StartChar: O
Encoding: 79 79 48
Width: 742
Flags: W
LayerCount: 2
Back
Fore
SplineSet
296 -14 m 0,0,1
 238 -14 238 -14 191 7 c 128,-1,2
 144 28 144 28 111 66 c 128,-1,3
 78 104 78 104 60 158 c 128,-1,4
 42 212 42 212 42 278 c 0,5,6
 42 374 42 374 72.5 454 c 128,-1,7
 103 534 103 534 155.5 591.5 c 128,-1,8
 208 649 208 649 277.5 681.5 c 128,-1,9
 347 714 347 714 425 714 c 0,10,11
 483 714 483 714 530 693 c 128,-1,12
 577 672 577 672 610 634 c 128,-1,13
 643 596 643 596 661 542 c 128,-1,14
 679 488 679 488 679 422 c 0,15,16
 679 326 679 326 648.5 246 c 128,-1,17
 618 166 618 166 565.5 108.5 c 128,-1,18
 513 51 513 51 443.5 18.5 c 128,-1,19
 374 -14 374 -14 296 -14 c 0,0,1
403 591 m 0,20,21
 350 591 350 591 309.5 566.5 c 128,-1,22
 269 542 269 542 240.5 500 c 128,-1,23
 212 458 212 458 197.5 403.5 c 128,-1,24
 183 349 183 349 183 289 c 0,25,26
 183 250 183 250 191 217 c 128,-1,27
 199 184 199 184 216 160 c 128,-1,28
 233 136 233 136 258 122.5 c 128,-1,29
 283 109 283 109 318 109 c 0,30,31
 370 109 370 109 411 133.5 c 128,-1,32
 452 158 452 158 480.5 200 c 128,-1,33
 509 242 509 242 523.5 296.5 c 128,-1,34
 538 351 538 351 538 411 c 0,35,36
 538 450 538 450 530 483 c 128,-1,37
 522 516 522 516 505 540 c 128,-1,38
 488 564 488 564 462.5 577.5 c 128,-1,39
 437 591 437 591 403 591 c 0,20,21
EndSplineSet
EndChar

StartChar: P
Encoding: 80 80 49
Width: 587
Flags: W
LayerCount: 2
Back
Fore
SplineSet
193 230 m 1,0,-1
 152 0 l 1,1,-1
 26 0 l 1,2,-1
 149 700 l 1,3,-1
 318 700 l 2,4,5
 382 700 382 700 430.5 694 c 128,-1,6
 479 688 479 688 511.5 670.5 c 128,-1,7
 544 653 544 653 560.5 621 c 128,-1,8
 577 589 577 589 577 537 c 0,9,10
 577 444 577 444 547.5 384 c 128,-1,11
 518 324 518 324 475 290 c 128,-1,12
 432 256 432 256 383 243 c 128,-1,13
 334 230 334 230 295 230 c 2,14,-1
 193 230 l 1,0,-1
257 593 m 1,15,-1
 214 350 l 1,16,-1
 301 350 l 2,17,18
 344 350 344 350 372 360.5 c 128,-1,19
 400 371 400 371 416.5 391.5 c 128,-1,20
 433 412 433 412 439.5 442.5 c 128,-1,21
 446 473 446 473 446 514 c 0,22,23
 446 554 446 554 425.5 573.5 c 128,-1,24
 405 593 405 593 351 593 c 2,25,-1
 257 593 l 1,15,-1
EndSplineSet
EndChar

StartChar: Q
Encoding: 81 81 50
Width: 742
Flags: W
LayerCount: 2
Back
Fore
SplineSet
537 -10 m 1,0,-1
 483 47 l 1,1,2
 445 17 445 17 396.5 1.5 c 128,-1,3
 348 -14 348 -14 296 -14 c 0,4,5
 238 -14 238 -14 191 7 c 128,-1,6
 144 28 144 28 111 66 c 128,-1,7
 78 104 78 104 60 158 c 128,-1,8
 42 212 42 212 42 278 c 0,9,10
 42 374 42 374 72.5 454 c 128,-1,11
 103 534 103 534 155.5 591.5 c 128,-1,12
 208 649 208 649 277.5 681.5 c 128,-1,13
 347 714 347 714 425 714 c 0,14,15
 483 714 483 714 530 693 c 128,-1,16
 577 672 577 672 610 634 c 128,-1,17
 643 596 643 596 661 542 c 128,-1,18
 679 488 679 488 679 422 c 0,19,20
 679 335 679 335 651 262.5 c 128,-1,21
 623 190 623 190 581 130 c 1,22,-1
 629 79 l 1,23,-1
 537 -10 l 1,0,-1
403 591 m 0,24,25
 351 591 351 591 310.5 566.5 c 128,-1,26
 270 542 270 542 241.5 500.5 c 128,-1,27
 213 459 213 459 198 404 c 128,-1,28
 183 349 183 349 183 289 c 0,29,30
 183 250 183 250 191.5 217 c 128,-1,31
 200 184 200 184 216.5 160 c 128,-1,32
 233 136 233 136 258.5 122.5 c 128,-1,33
 284 109 284 109 318 109 c 0,34,35
 343 109 343 109 359.5 115 c 128,-1,36
 376 121 376 121 392 132 c 1,37,-1
 337 203 l 1,38,-1
 428 292 l 1,39,-1
 488 218 l 1,40,41
 494 237 494 237 502.5 257.5 c 128,-1,42
 511 278 511 278 518 302 c 128,-1,43
 525 326 525 326 530 353.5 c 128,-1,44
 535 381 535 381 535 414 c 0,45,46
 535 453 535 453 527 485.5 c 128,-1,47
 519 518 519 518 502.5 541.5 c 128,-1,48
 486 565 486 565 461.5 578 c 128,-1,49
 437 591 437 591 403 591 c 0,24,25
EndSplineSet
EndChar

StartChar: R
Encoding: 82 82 51
Width: 613
Flags: W
LayerCount: 2
Back
Fore
SplineSet
389 0 m 1,0,-1
 308 260 l 1,1,-1
 198 260 l 1,2,-1
 152 0 l 1,3,-1
 26 0 l 1,4,-1
 149 700 l 1,5,-1
 391 700 l 2,6,7
 430 700 430 700 463.5 691.5 c 128,-1,8
 497 683 497 683 522.5 664.5 c 128,-1,9
 548 646 548 646 562.5 615 c 128,-1,10
 577 584 577 584 577 539 c 0,11,12
 577 490 577 490 564.5 452.5 c 128,-1,13
 552 415 552 415 532 386 c 128,-1,14
 512 357 512 357 486 335 c 128,-1,15
 460 313 460 313 432 294 c 1,16,-1
 521 0 l 1,17,-1
 389 0 l 1,0,-1
257 593 m 1,18,-1
 219 380 l 1,19,-1
 282 380 l 2,20,21
 330 380 330 380 361 388.5 c 128,-1,22
 392 397 392 397 409.5 414.5 c 128,-1,23
 427 432 427 432 433.5 458.5 c 128,-1,24
 440 485 440 485 440 520 c 0,25,26
 440 554 440 554 418.5 573.5 c 128,-1,27
 397 593 397 593 335 593 c 2,28,-1
 257 593 l 1,18,-1
EndSplineSet
EndChar

StartChar: S
Encoding: 83 83 52
Width: 566
Flags: W
LayerCount: 2
Back
Fore
SplineSet
206 -14 m 0,0,1
 128 -14 128 -14 76.5 1.5 c 128,-1,2
 25 17 25 17 5 37 c 1,3,-1
 45 181 l 1,4,5
 52 168 52 168 67.5 155.5 c 128,-1,6
 83 143 83 143 106.5 132.5 c 128,-1,7
 130 122 130 122 160.5 115.5 c 128,-1,8
 191 109 191 109 230 109 c 0,9,10
 279 109 279 109 310.5 128.5 c 128,-1,11
 342 148 342 148 342 198 c 0,12,13
 342 221 342 221 331 238 c 128,-1,14
 320 255 320 255 302.5 268 c 128,-1,15
 285 281 285 281 264 291 c 128,-1,16
 243 301 243 301 223 310 c 0,17,18
 202 319 202 319 176.5 332 c 128,-1,19
 151 345 151 345 128.5 364.5 c 128,-1,20
 106 384 106 384 91 411 c 128,-1,21
 76 438 76 438 76 477 c 0,22,23
 76 496 76 496 80 521 c 128,-1,24
 84 546 84 546 95 572.5 c 128,-1,25
 106 599 106 599 125 624.5 c 128,-1,26
 144 650 144 650 174 670 c 128,-1,27
 204 690 204 690 246 702 c 128,-1,28
 288 714 288 714 345 714 c 0,29,30
 381 714 381 714 412 709 c 128,-1,31
 443 704 443 704 468 696 c 128,-1,32
 493 688 493 688 510.5 678.5 c 128,-1,33
 528 669 528 669 536 660 c 1,34,-1
 502 529 l 1,35,36
 458 560 458 560 416.5 576 c 128,-1,37
 375 592 375 592 326 592 c 0,38,39
 312 592 312 592 291.5 588.5 c 128,-1,40
 271 585 271 585 252.5 575.5 c 128,-1,41
 234 566 234 566 220.5 549.5 c 128,-1,42
 207 533 207 533 207 507 c 0,43,44
 207 489 207 489 215.5 475 c 128,-1,45
 224 461 224 461 238.5 450.5 c 128,-1,46
 253 440 253 440 272.5 432 c 128,-1,47
 292 424 292 424 313 416 c 0,48,49
 339 406 339 406 370 393 c 128,-1,50
 401 380 401 380 427.5 358 c 128,-1,51
 454 336 454 336 471.5 304 c 128,-1,52
 489 272 489 272 489 224 c 0,53,54
 489 181 489 181 478 138.5 c 128,-1,55
 467 96 467 96 436.5 62 c 128,-1,56
 406 28 406 28 350.5 7 c 128,-1,57
 295 -14 295 -14 206 -14 c 0,0,1
EndSplineSet
EndChar

StartChar: T
Encoding: 84 84 53
Width: 564
Flags: W
LayerCount: 2
Back
Fore
SplineSet
383 576 m 1,0,-1
 281 0 l 1,1,-1
 153 0 l 1,2,-1
 255 576 l 1,3,-1
 79 576 l 1,4,-1
 101 700 l 1,5,-1
 581 700 l 1,6,-1
 559 576 l 1,7,-1
 383 576 l 1,0,-1
EndSplineSet
EndChar

StartChar: U
Encoding: 85 85 54
Width: 695
Flags: W
LayerCount: 2
Back
Fore
SplineSet
277 -14 m 0,0,1
 167 -14 167 -14 115 45 c 128,-1,2
 63 104 63 104 63 207 c 0,3,4
 63 250 63 250 72 300 c 2,5,-1
 143 700 l 1,6,-1
 270 700 l 1,7,-1
 207 343 l 2,8,9
 202 314 202 314 199 287.5 c 128,-1,10
 196 261 196 261 196 237 c 0,11,12
 196 208 196 208 201 184.5 c 128,-1,13
 206 161 206 161 218 144.5 c 128,-1,14
 230 128 230 128 250 118.5 c 128,-1,15
 270 109 270 109 299 109 c 0,16,17
 340 109 340 109 369 127.5 c 128,-1,18
 398 146 398 146 418 177.5 c 128,-1,19
 438 209 438 209 451 251.5 c 128,-1,20
 464 294 464 294 473 343 c 2,21,-1
 536 700 l 1,22,-1
 665 700 l 1,23,-1
 594 300 l 2,24,25
 581 229 581 229 555 171 c 128,-1,26
 529 113 529 113 489 72 c 128,-1,27
 449 31 449 31 396 8.5 c 128,-1,28
 343 -14 343 -14 277 -14 c 0,0,1
EndSplineSet
EndChar

StartChar: V
Encoding: 86 86 55
Width: 638
Flags: W
LayerCount: 2
Back
Fore
SplineSet
329 0 m 1,0,-1
 167 0 l 1,1,-1
 70 700 l 1,2,-1
 203 700 l 1,3,-1
 276 169 l 1,4,-1
 534 700 l 1,5,-1
 666 700 l 1,6,-1
 329 0 l 1,0,-1
EndSplineSet
EndChar

StartChar: W
Encoding: 87 87 56
Width: 934
Flags: W
LayerCount: 2
Back
Fore
SplineSet
676 0 m 1,0,-1
 566 0 l 1,1,-1
 500 467 l 1,2,-1
 271 0 l 1,3,-1
 153 0 l 1,4,-1
 87 700 l 1,5,-1
 220 700 l 1,6,-1
 264 203 l 1,7,-1
 499 700 l 1,8,-1
 585 700 l 1,9,-1
 652 216 l 1,10,-1
 863 700 l 1,11,-1
 996 700 l 1,12,-1
 676 0 l 1,0,-1
EndSplineSet
EndChar

StartChar: X
Encoding: 88 88 57
Width: 616
Flags: W
LayerCount: 2
Back
Fore
SplineSet
384 0 m 1,0,-1
 288 257 l 1,1,-1
 102 0 l 1,2,-1
 -49 0 l 1,3,-1
 239 349 l 1,4,-1
 89 700 l 1,5,-1
 237 700 l 1,6,-1
 332 454 l 1,7,-1
 491 700 l 1,8,-1
 641 700 l 1,9,-1
 383 363 l 1,10,-1
 535 0 l 1,11,-1
 384 0 l 1,0,-1
EndSplineSet
EndChar

StartChar: Y
Encoding: 89 89 58
Width: 603
Flags: W
LayerCount: 2
Back
Fore
SplineSet
350 310 m 1,0,-1
 296 0 l 1,1,-1
 169 0 l 1,2,-1
 224 310 l 1,3,-1
 73 700 l 1,4,-1
 209 700 l 1,5,-1
 307 424 l 1,6,-1
 503 700 l 1,7,-1
 639 700 l 1,8,-1
 350 310 l 1,0,-1
EndSplineSet
EndChar

StartChar: Z
Encoding: 90 90 59
Width: 536
Flags: W
LayerCount: 2
Back
Fore
SplineSet
194 124 m 1,0,-1
 422 124 l 1,1,-1
 400 0 l 1,2,-1
 -39 0 l 1,3,-1
 331 576 l 1,4,-1
 103 576 l 1,5,-1
 125 700 l 1,6,-1
 564 700 l 1,7,-1
 194 124 l 1,0,-1
EndSplineSet
EndChar

StartChar: bracketleft
Encoding: 91 91 60
Width: 326
Flags: W
LayerCount: 2
Back
Fore
SplineSet
-8 -136 m 1,0,-1
 148 750 l 1,1,-1
 380 750 l 1,2,-1
 360 641 l 1,3,-1
 242 641 l 1,4,-1
 125 -27 l 1,5,-1
 243 -27 l 1,6,-1
 223 -136 l 1,7,-1
 108 -136 l 1,8,-1
 -8 -136 l 1,0,-1
EndSplineSet
EndChar

StartChar: backslash
Encoding: 92 92 61
Width: 535
Flags: W
LayerCount: 2
Back
Fore
SplineSet
289 -85 m 1,0,-1
 104 700 l 1,1,-1
 241 700 l 1,2,-1
 426 -85 l 1,3,-1
 289 -85 l 1,0,-1
EndSplineSet
EndChar

StartChar: bracketright
Encoding: 93 93 62
Width: 326
Flags: W
LayerCount: 2
Back
Fore
SplineSet
186 751 m 1,0,-1
 302 751 l 1,1,-1
 146 -135 l 1,2,-1
 -86 -135 l 1,3,-1
 -66 -26 l 1,4,-1
 52 -26 l 1,5,-1
 169 642 l 1,6,-1
 51 642 l 1,7,-1
 71 751 l 1,8,-1
 186 751 l 1,0,-1
EndSplineSet
EndChar

StartChar: asciicircum
Encoding: 94 94 63
Width: 491
Flags: W
LayerCount: 2
Back
Fore
SplineSet
341 612 m 1,0,-1
 118 400 l 1,1,-1
 144 547 l 1,2,-1
 367 759 l 1,3,-1
 515 547 l 1,4,-1
 489 400 l 1,5,-1
 341 612 l 1,0,-1
EndSplineSet
EndChar

StartChar: underscore
Encoding: 95 95 64
Width: 536
Flags: W
LayerCount: 2
Back
Fore
SplineSet
-76 -130 m 1,0,-1
 -59 -36 l 1,1,-1
 445 -36 l 1,2,-1
 428 -130 l 1,3,-1
 -76 -130 l 1,0,-1
EndSplineSet
EndChar

StartChar: grave
Encoding: 96 96 65
Width: 291
Flags: W
LayerCount: 2
Back
Fore
SplineSet
170 646 m 1,0,-1
 188 750 l 1,1,-1
 341 659 l 1,2,-1
 328 585 l 1,3,-1
 170 646 l 1,0,-1
EndSplineSet
EndChar

StartChar: a
Encoding: 97 97 66
Width: 584
Flags: W
LayerCount: 2
Back
Fore
SplineSet
479 158 m 2,0,1
 477 145 477 145 476 135.5 c 128,-1,2
 475 126 475 126 475 120 c 0,3,4
 475 99 475 99 485.5 95.5 c 128,-1,5
 496 92 496 92 524 92 c 1,6,-1
 496 -10 l 1,7,8
 458 -10 458 -10 434 -7.5 c 128,-1,9
 410 -5 410 -5 394.5 1 c 128,-1,10
 379 7 379 7 369 18.5 c 128,-1,11
 359 30 359 30 350 48 c 1,12,13
 328 28 328 28 294 9 c 128,-1,14
 260 -10 260 -10 207 -10 c 0,15,16
 162 -10 162 -10 127 6 c 128,-1,17
 92 22 92 22 68 50.5 c 128,-1,18
 44 79 44 79 31 118.5 c 128,-1,19
 18 158 18 158 18 204 c 0,20,21
 18 261 18 261 37.5 316 c 128,-1,22
 57 371 57 371 94.5 413.5 c 128,-1,23
 132 456 132 456 185.5 482 c 128,-1,24
 239 508 239 508 307 508 c 0,25,26
 345 508 345 508 367.5 499.5 c 128,-1,27
 390 491 390 491 409 475 c 1,28,-1
 423 500 l 1,29,-1
 537 500 l 1,30,-1
 479 158 l 2,0,1
296 406 m 0,31,32
 263 406 263 406 235.5 391 c 128,-1,33
 208 376 208 376 188.5 349.5 c 128,-1,34
 169 323 169 323 158 288 c 128,-1,35
 147 253 147 253 147 214 c 0,36,37
 147 159 147 159 170 125.5 c 128,-1,38
 193 92 193 92 245 92 c 0,39,40
 287 92 287 92 313 112.5 c 128,-1,41
 339 133 339 133 354 163.5 c 128,-1,42
 369 194 369 194 374.5 228.5 c 128,-1,43
 380 263 380 263 380 292 c 0,44,45
 380 345 380 345 362 375.5 c 128,-1,46
 344 406 344 406 296 406 c 0,31,32
EndSplineSet
Substitution2: "'smcp' Lowercase to Small Capitals in Latin lookup 1 subtable" A.sc
Substitution2: "'aalt' Access All Alternates in Latin lookup 0 subtable" A.sc
EndChar

StartChar: b
Encoding: 98 98 67
Width: 560
Flags: W
LayerCount: 2
Back
Fore
SplineSet
222 -10 m 0,0,1
 202 -10 202 -10 188 -7.5 c 128,-1,2
 174 -5 174 -5 164 0 c 128,-1,3
 154 5 154 5 146 12 c 128,-1,4
 138 19 138 19 129 28 c 1,5,-1
 125 0 l 1,6,-1
 7 0 l 1,7,-1
 139 750 l 1,8,-1
 264 750 l 1,9,-1
 216 475 l 1,10,11
 226 483 226 483 235.5 489 c 128,-1,12
 245 495 245 495 256 499.5 c 128,-1,13
 267 504 267 504 280.5 506 c 128,-1,14
 294 508 294 508 313 508 c 0,15,16
 362 508 362 508 397.5 491.5 c 128,-1,17
 433 475 433 475 456.5 446.5 c 128,-1,18
 480 418 480 418 491.5 380 c 128,-1,19
 503 342 503 342 503 299 c 0,20,21
 503 241 503 241 485 185.5 c 128,-1,22
 467 130 467 130 432 86.5 c 128,-1,23
 397 43 397 43 344.5 16.5 c 128,-1,24
 292 -10 292 -10 222 -10 c 0,0,1
289 406 m 0,25,26
 233 406 233 406 197.5 355 c 128,-1,27
 162 304 162 304 162 190 c 0,28,29
 162 146 162 146 177.5 119 c 128,-1,30
 193 92 193 92 234 92 c 0,31,32
 266 92 266 92 292 107.5 c 128,-1,33
 318 123 318 123 336 150 c 128,-1,34
 354 177 354 177 364 213 c 128,-1,35
 374 249 374 249 374 290 c 0,36,37
 374 342 374 342 353 374 c 128,-1,38
 332 406 332 406 289 406 c 0,25,26
EndSplineSet
Substitution2: "'smcp' Lowercase to Small Capitals in Latin lookup 1 subtable" B.sc
Substitution2: "'aalt' Access All Alternates in Latin lookup 0 subtable" B.sc
EndChar

StartChar: c
Encoding: 99 99 68
Width: 437
Flags: W
LayerCount: 2
Back
Fore
SplineSet
196 -10 m 0,0,1
 151 -10 151 -10 117.5 6.5 c 128,-1,2
 84 23 84 23 62 51 c 128,-1,3
 40 79 40 79 29 116.5 c 128,-1,4
 18 154 18 154 18 197 c 0,5,6
 18 257 18 257 36.5 313 c 128,-1,7
 55 369 55 369 90 412.5 c 128,-1,8
 125 456 125 456 175 482 c 128,-1,9
 225 508 225 508 288 508 c 0,10,11
 316 508 316 508 335.5 505 c 128,-1,12
 355 502 355 502 370 497 c 128,-1,13
 385 492 385 492 395.5 485 c 128,-1,14
 406 478 406 478 416 471 c 1,15,-1
 389 365 l 1,16,17
 364 385 364 385 338 395.5 c 128,-1,18
 312 406 312 406 279 406 c 0,19,20
 251 406 251 406 227 390.5 c 128,-1,21
 203 375 203 375 185 348 c 128,-1,22
 167 321 167 321 157 285 c 128,-1,23
 147 249 147 249 147 208 c 0,24,25
 147 156 147 156 167 124 c 128,-1,26
 187 92 187 92 224 92 c 0,27,28
 257 92 257 92 286 102.5 c 128,-1,29
 315 113 315 113 347 133 c 1,30,-1
 338 27 l 1,31,32
 313 12 313 12 282 1 c 128,-1,33
 251 -10 251 -10 196 -10 c 0,0,1
EndSplineSet
Substitution2: "'smcp' Lowercase to Small Capitals in Latin lookup 1 subtable" C.sc
Substitution2: "'aalt' Access All Alternates in Latin lookup 0 subtable" C.sc
EndChar

StartChar: d
Encoding: 100 100 69
Width: 561
Flags: W
LayerCount: 2
Back
Fore
SplineSet
307 0 m 1,0,-1
 313 28 l 1,1,2
 301 19 301 19 290 12 c 128,-1,3
 279 5 279 5 267.5 0 c 128,-1,4
 256 -5 256 -5 241.5 -7.5 c 128,-1,5
 227 -10 227 -10 207 -10 c 0,6,7
 157 -10 157 -10 121.5 6.5 c 128,-1,8
 86 23 86 23 63 51 c 128,-1,9
 40 79 40 79 29 116.5 c 128,-1,10
 18 154 18 154 18 196 c 0,11,12
 18 256 18 256 37 312 c 128,-1,13
 56 368 56 368 92 411.5 c 128,-1,14
 128 455 128 455 180 481.5 c 128,-1,15
 232 508 232 508 299 508 c 0,16,17
 336 508 336 508 352.5 499.5 c 128,-1,18
 369 491 369 491 385 475 c 1,19,-1
 434 750 l 1,20,-1
 559 750 l 1,21,-1
 426 0 l 1,22,-1
 307 0 l 1,0,-1
288 406 m 0,23,24
 256 406 256 406 230 390.5 c 128,-1,25
 204 375 204 375 185.5 348 c 128,-1,26
 167 321 167 321 157 285 c 128,-1,27
 147 249 147 249 147 209 c 0,28,29
 147 157 147 157 168.5 124.5 c 128,-1,30
 190 92 190 92 233 92 c 0,31,32
 289 92 289 92 323.5 143.5 c 128,-1,33
 358 195 358 195 358 311 c 0,34,35
 358 353 358 353 343 379.5 c 128,-1,36
 328 406 328 406 288 406 c 0,23,24
EndSplineSet
Substitution2: "'smcp' Lowercase to Small Capitals in Latin lookup 1 subtable" D.sc
Substitution2: "'aalt' Access All Alternates in Latin lookup 0 subtable" D.sc
EndChar

StartChar: e
Encoding: 101 101 70
Width: 488
Flags: W
LayerCount: 2
Back
Fore
SplineSet
463 363 m 0,0,1
 463 317 463 317 443 286 c 128,-1,2
 423 255 423 255 390 235.5 c 128,-1,3
 357 216 357 216 314 207.5 c 128,-1,4
 271 199 271 199 224 199 c 0,5,6
 199 199 199 199 178.5 201 c 128,-1,7
 158 203 158 203 148 205 c 1,8,9
 150 174 150 174 160.5 152.5 c 128,-1,10
 171 131 171 131 187 117.5 c 128,-1,11
 203 104 203 104 222.5 98 c 128,-1,12
 242 92 242 92 263 92 c 0,13,14
 280 92 280 92 300.5 95.5 c 128,-1,15
 321 99 321 99 342 104.5 c 128,-1,16
 363 110 363 110 383.5 117.5 c 128,-1,17
 404 125 404 125 420 133 c 1,18,-1
 406 28 l 1,19,20
 376 13 376 13 332.5 1.5 c 128,-1,21
 289 -10 289 -10 239 -10 c 0,22,23
 182 -10 182 -10 140.5 6.5 c 128,-1,24
 99 23 99 23 71.5 52.5 c 128,-1,25
 44 82 44 82 31 121 c 128,-1,26
 18 160 18 160 18 205 c 0,27,28
 18 262 18 262 38 316.5 c 128,-1,29
 58 371 58 371 95 413.5 c 128,-1,30
 132 456 132 456 184 482 c 128,-1,31
 236 508 236 508 300 508 c 0,32,33
 380 508 380 508 421.5 468.5 c 128,-1,34
 463 429 463 429 463 363 c 0,0,1
295 406 m 0,35,36
 266 406 266 406 242.5 393.5 c 128,-1,37
 219 381 219 381 202 362.5 c 128,-1,38
 185 344 185 344 174 322.5 c 128,-1,39
 163 301 163 301 158 284 c 1,40,41
 174 280 174 280 204 280 c 0,42,43
 250 280 250 280 280 286.5 c 128,-1,44
 310 293 310 293 327.5 304 c 128,-1,45
 345 315 345 315 352 329 c 128,-1,46
 359 343 359 343 359 357 c 0,47,48
 359 374 359 374 351.5 383.5 c 128,-1,49
 344 393 344 393 333.5 398 c 128,-1,50
 323 403 323 403 312.5 404.5 c 128,-1,51
 302 406 302 406 295 406 c 0,35,36
EndSplineSet
Substitution2: "'smcp' Lowercase to Small Capitals in Latin lookup 1 subtable" E.sc
Substitution2: "'aalt' Access All Alternates in Latin lookup 0 subtable" E.sc
EndChar

StartChar: f
Encoding: 102 102 71
Width: 335
Flags: W
LayerCount: 2
Back
Fore
SplineSet
230 398 m 1,0,-1
 160 0 l 1,1,-1
 35 0 l 1,2,-1
 105 398 l 1,3,-1
 47 398 l 1,4,-1
 74 500 l 1,5,-1
 123 500 l 1,6,-1
 144 619 l 2,7,8
 148 643 148 643 159 666.5 c 128,-1,9
 170 690 170 690 187 708.5 c 128,-1,10
 204 727 204 727 226.5 738.5 c 128,-1,11
 249 750 249 750 278 750 c 0,12,13
 301 750 301 750 316 749.5 c 128,-1,14
 331 749 331 749 341.5 748 c 128,-1,15
 352 747 352 747 361 746 c 128,-1,16
 370 745 370 745 382 744 c 1,17,-1
 356 641 l 1,18,19
 342 645 342 645 327.5 645.5 c 128,-1,20
 313 646 313 646 311 646 c 0,21,22
 289 646 289 646 278.5 630 c 128,-1,23
 268 614 268 614 260 568 c 2,24,-1
 248 500 l 1,25,-1
 338 500 l 1,26,-1
 320 398 l 1,27,-1
 230 398 l 1,0,-1
EndSplineSet
Substitution2: "'smcp' Lowercase to Small Capitals in Latin lookup 1 subtable" F.sc
Substitution2: "'aalt' Access All Alternates in Latin lookup 0 subtable" F.sc
EndChar

StartChar: g
Encoding: 103 103 72
Width: 487
Flags: W
LayerCount: 2
Back
Fore
SplineSet
145 -250 m 0,0,1
 95 -250 95 -250 58.5 -239 c 128,-1,2
 22 -228 22 -228 -1 -209.5 c 128,-1,3
 -24 -191 -24 -191 -35 -167.5 c 128,-1,4
 -46 -144 -46 -144 -46 -119 c 0,5,6
 -46 -76 -46 -76 -17.5 -45 c 128,-1,7
 11 -14 11 -14 47 10 c 1,8,9
 37 21 37 21 28.5 36 c 128,-1,10
 20 51 20 51 20 71 c 0,11,12
 20 99 20 99 36 117.5 c 128,-1,13
 52 136 52 136 76 150 c 1,14,15
 57 172 57 172 45.5 206 c 128,-1,16
 34 240 34 240 34 279 c 0,17,18
 34 323 34 323 49.5 364.5 c 128,-1,19
 65 406 65 406 94 438 c 128,-1,20
 123 470 123 470 164 489 c 128,-1,21
 205 508 205 508 256 508 c 0,22,23
 286 508 286 508 310.5 500 c 128,-1,24
 335 492 335 492 349 478 c 1,25,26
 361 486 361 486 387 493 c 128,-1,27
 413 500 413 500 445 500 c 2,28,-1
 483 500 l 1,29,-1
 463 422 l 1,30,-1
 414 422 l 2,31,32
 410 422 410 422 407.5 422 c 128,-1,33
 405 422 405 422 400 421 c 1,34,35
 403 407 403 407 404.5 388 c 128,-1,36
 406 369 406 369 406 352 c 0,37,38
 406 305 406 305 390.5 262 c 128,-1,39
 375 219 375 219 346.5 186 c 128,-1,40
 318 153 318 153 276.5 133.5 c 128,-1,41
 235 114 235 114 184 114 c 0,42,43
 172 114 172 114 163 115.5 c 128,-1,44
 154 117 154 117 144 119 c 1,45,46
 139 115 139 115 137.5 108.5 c 128,-1,47
 136 102 136 102 136 100 c 0,48,49
 136 83 136 83 162.5 76 c 128,-1,50
 189 69 189 69 231 62 c 0,51,52
 252 59 252 59 279 52.5 c 128,-1,53
 306 46 306 46 330 32.5 c 128,-1,54
 354 19 354 19 371 -4.5 c 128,-1,55
 388 -28 388 -28 388 -66 c 0,56,57
 388 -107 388 -107 371.5 -140.5 c 128,-1,58
 355 -174 355 -174 323.5 -198.5 c 128,-1,59
 292 -223 292 -223 247 -236.5 c 128,-1,60
 202 -250 202 -250 145 -250 c 0,0,1
240 417 m 0,61,62
 216 417 216 417 198 406 c 128,-1,63
 180 395 180 395 168 376.5 c 128,-1,64
 156 358 156 358 150 333 c 128,-1,65
 144 308 144 308 144 280 c 0,66,67
 144 246 144 246 157.5 225.5 c 128,-1,68
 171 205 171 205 202 205 c 0,69,70
 225 205 225 205 242.5 216 c 128,-1,71
 260 227 260 227 272 245.5 c 128,-1,72
 284 264 284 264 290 289 c 128,-1,73
 296 314 296 314 296 342 c 0,74,75
 296 376 296 376 282.5 396.5 c 128,-1,76
 269 417 269 417 240 417 c 0,61,62
169 -30 m 0,77,78
 161 -29 161 -29 156.5 -28 c 128,-1,79
 152 -27 152 -27 148.5 -26 c 128,-1,80
 145 -25 145 -25 141 -24 c 128,-1,81
 137 -23 137 -23 128 -21 c 1,82,83
 115 -26 115 -26 102 -32.5 c 128,-1,84
 89 -39 89 -39 79 -48.5 c 128,-1,85
 69 -58 69 -58 62.5 -71 c 128,-1,86
 56 -84 56 -84 56 -100 c 0,87,88
 56 -129 56 -129 80.5 -145.5 c 128,-1,89
 105 -162 105 -162 151 -162 c 0,90,91
 175 -162 175 -162 198 -157 c 128,-1,92
 221 -152 221 -152 239 -142.5 c 128,-1,93
 257 -133 257 -133 268 -119 c 128,-1,94
 279 -105 279 -105 279 -88 c 0,95,96
 279 -72 279 -72 268 -61.5 c 128,-1,97
 257 -51 257 -51 240.5 -45 c 128,-1,98
 224 -39 224 -39 204.5 -35.5 c 128,-1,99
 185 -32 185 -32 169 -30 c 0,77,78
EndSplineSet
Substitution2: "'smcp' Lowercase to Small Capitals in Latin lookup 1 subtable" G.sc
Substitution2: "'aalt' Access All Alternates in Latin lookup 0 subtable" G.sc
EndChar

StartChar: h
Encoding: 104 104 73
Width: 538
Flags: W
LayerCount: 2
Back
Fore
SplineSet
285 0 m 1,0,-1
 332 269 l 2,1,2
 338 302 338 302 338 327 c 0,3,4
 338 406 338 406 274 406 c 0,5,6
 251 406 251 406 232 394.5 c 128,-1,7
 213 383 213 383 195 363 c 1,8,-1
 131 0 l 1,9,-1
 7 0 l 1,10,-1
 139 750 l 1,11,-1
 264 750 l 1,12,-1
 215 474 l 1,13,14
 235 488 235 488 259 498 c 128,-1,15
 283 508 283 508 300 508 c 0,16,17
 388 508 388 508 426 463.5 c 128,-1,18
 464 419 464 419 464 344 c 0,19,20
 464 307 464 307 457 269 c 2,21,-1
 410 0 l 1,22,-1
 285 0 l 1,0,-1
EndSplineSet
Substitution2: "'smcp' Lowercase to Small Capitals in Latin lookup 1 subtable" H.sc
Substitution2: "'aalt' Access All Alternates in Latin lookup 0 subtable" H.sc
EndChar

StartChar: i
Encoding: 105 105 74
Width: 242
Flags: W
LayerCount: 2
Back
Fore
SplineSet
109 576 m 1,0,-1
 130 700 l 1,1,-1
 255 700 l 1,2,-1
 233 576 l 1,3,-1
 109 576 l 1,0,-1
7 0 m 1,4,-1
 95 500 l 1,5,-1
 220 500 l 1,6,-1
 132 0 l 1,7,-1
 7 0 l 1,4,-1
EndSplineSet
Substitution2: "'smcp' Lowercase to Small Capitals in Latin lookup 1 subtable" I.sc
Substitution2: "'aalt' Access All Alternates in Latin lookup 0 subtable" I.sc
EndChar

StartChar: j
Encoding: 106 106 75
Width: 243
Flags: W
LayerCount: 2
Back
Fore
SplineSet
-80 -242 m 1,0,-1
 -72 -140 l 1,1,2
 -55 -140 -55 -140 -45 -138.5 c 128,-1,3
 -35 -137 -35 -137 -29 -129.5 c 128,-1,4
 -23 -122 -23 -122 -18.5 -106 c 128,-1,5
 -14 -90 -14 -90 -9 -60 c 2,6,-1
 90 500 l 1,7,-1
 215 500 l 1,8,-1
 107 -111 l 2,9,10
 102 -138 102 -138 93 -162 c 128,-1,11
 84 -186 84 -186 67.5 -203.5 c 128,-1,12
 51 -221 51 -221 26.5 -231.5 c 128,-1,13
 2 -242 2 -242 -34 -242 c 2,14,-1
 -80 -242 l 1,0,-1
103 576 m 1,15,-1
 125 700 l 1,16,-1
 250 700 l 1,17,-1
 228 576 l 1,18,-1
 103 576 l 1,15,-1
EndSplineSet
Substitution2: "'smcp' Lowercase to Small Capitals in Latin lookup 1 subtable" J.sc
Substitution2: "'aalt' Access All Alternates in Latin lookup 0 subtable" J.sc
EndChar

StartChar: k
Encoding: 107 107 76
Width: 480
Flags: W
LayerCount: 2
Back
Fore
SplineSet
7 0 m 1,0,-1
 139 750 l 1,1,-1
 264 750 l 1,2,-1
 184 295 l 1,3,-1
 355 500 l 1,4,-1
 493 500 l 1,5,-1
 293 260 l 1,6,-1
 402 0 l 1,7,-1
 265 0 l 1,8,-1
 171 222 l 1,9,-1
 132 0 l 1,10,-1
 7 0 l 1,0,-1
EndSplineSet
Substitution2: "'smcp' Lowercase to Small Capitals in Latin lookup 1 subtable" K.sc
Substitution2: "'aalt' Access All Alternates in Latin lookup 0 subtable" K.sc
EndChar

StartChar: l
Encoding: 108 108 77
Width: 264
Flags: W
LayerCount: 2
Back
Fore
SplineSet
166 -10 m 1,0,-1
 119 -10 l 2,1,2
 69 -10 69 -10 46.5 18 c 128,-1,3
 24 46 24 46 24 88 c 0,4,5
 24 103 24 103 27 121 c 2,6,-1
 138 750 l 1,7,-1
 262 750 l 1,8,-1
 160 172 l 2,9,10
 154 137 154 137 154 122 c 0,11,12
 154 99 154 99 163.5 95.5 c 128,-1,13
 173 92 173 92 193 92 c 1,14,-1
 166 -10 l 1,0,-1
EndSplineSet
Substitution2: "'smcp' Lowercase to Small Capitals in Latin lookup 1 subtable" L.sc
Substitution2: "'aalt' Access All Alternates in Latin lookup 0 subtable" L.sc
EndChar

StartChar: m
Encoding: 109 109 78
Width: 836
Flags: W
LayerCount: 2
Back
Fore
SplineSet
560 0 m 1,0,-1
 607 269 l 2,1,2
 610 289 610 289 612 305.5 c 128,-1,3
 614 322 614 322 614 336 c 0,4,5
 614 371 614 371 601 388.5 c 128,-1,6
 588 406 588 406 556 406 c 0,7,8
 533 406 533 406 517 398 c 128,-1,9
 501 390 501 390 489.5 376.5 c 128,-1,10
 478 363 478 363 471.5 345.5 c 128,-1,11
 465 328 465 328 462 309 c 2,12,-1
 408 0 l 1,13,-1
 284 0 l 1,14,-1
 331 269 l 2,15,16
 335 290 335 290 337 307.5 c 128,-1,17
 339 325 339 325 339 339 c 0,18,19
 339 377 339 377 322.5 391.5 c 128,-1,20
 306 406 306 406 271 406 c 0,21,22
 249 406 249 406 231 395.5 c 128,-1,23
 213 385 213 385 196 365 c 1,24,-1
 132 0 l 1,25,-1
 7 0 l 1,26,-1
 95 500 l 1,27,-1
 198 500 l 1,28,-1
 198 461 l 1,29,30
 212 479 212 479 245 493.5 c 128,-1,31
 278 508 278 508 314 508 c 0,32,33
 353 508 353 508 386 489.5 c 128,-1,34
 419 471 419 471 433 432 c 1,35,36
 439 444 439 444 453 457.5 c 128,-1,37
 467 471 467 471 487.5 482 c 128,-1,38
 508 493 508 493 534.5 500.5 c 128,-1,39
 561 508 561 508 591 508 c 0,40,41
 668 508 668 508 703.5 463 c 128,-1,42
 739 418 739 418 739 343 c 0,43,44
 739 326 739 326 737 307.5 c 128,-1,45
 735 289 735 289 732 269 c 2,46,-1
 685 0 l 1,47,-1
 560 0 l 1,0,-1
EndSplineSet
Substitution2: "'smcp' Lowercase to Small Capitals in Latin lookup 1 subtable" M.sc
Substitution2: "'aalt' Access All Alternates in Latin lookup 0 subtable" M.sc
EndChar

StartChar: n
Encoding: 110 110 79
Width: 536
Flags: W
LayerCount: 2
Back
Fore
SplineSet
279 0 m 1,0,-1
 326 269 l 2,1,2
 332 303 332 303 332 329 c 0,3,4
 332 406 332 406 272 406 c 0,5,6
 248 406 248 406 231 394.5 c 128,-1,7
 214 383 214 383 196 363 c 1,8,-1
 132 0 l 1,9,-1
 7 0 l 1,10,-1
 95 500 l 1,11,-1
 217 500 l 1,12,-1
 211 470 l 1,13,14
 225 486 225 486 249 497 c 128,-1,15
 273 508 273 508 296 508 c 0,16,17
 340 508 340 508 370.5 496.5 c 128,-1,18
 401 485 401 485 420.5 464 c 128,-1,19
 440 443 440 443 449 413 c 128,-1,20
 458 383 458 383 458 346 c 0,21,22
 458 328 458 328 456.5 308.5 c 128,-1,23
 455 289 455 289 451 269 c 2,24,-1
 404 0 l 1,25,-1
 279 0 l 1,0,-1
EndSplineSet
Substitution2: "'smcp' Lowercase to Small Capitals in Latin lookup 1 subtable" N.sc
Substitution2: "'aalt' Access All Alternates in Latin lookup 0 subtable" N.sc
EndChar

StartChar: o
Encoding: 111 111 80
Width: 549
Flags: W
LayerCount: 2
Back
Fore
SplineSet
208 -10 m 0,0,1
 161 -10 161 -10 125 7 c 128,-1,2
 89 24 89 24 65 52.5 c 128,-1,3
 41 81 41 81 29 119.5 c 128,-1,4
 17 158 17 158 17 202 c 0,5,6
 17 262 17 262 37.5 317 c 128,-1,7
 58 372 58 372 95.5 414.5 c 128,-1,8
 133 457 133 457 184.5 482.5 c 128,-1,9
 236 508 236 508 299 508 c 0,10,11
 347 508 347 508 382.5 491.5 c 128,-1,12
 418 475 418 475 442 446 c 128,-1,13
 466 417 466 417 478 378.5 c 128,-1,14
 490 340 490 340 490 296 c 0,15,16
 490 236 490 236 469.5 181 c 128,-1,17
 449 126 449 126 412 83.5 c 128,-1,18
 375 41 375 41 323 15.5 c 128,-1,19
 271 -10 271 -10 208 -10 c 0,0,1
281 406 m 0,20,21
 251 406 251 406 226 390.5 c 128,-1,22
 201 375 201 375 183 348 c 128,-1,23
 165 321 165 321 155 285 c 128,-1,24
 145 249 145 249 145 208 c 0,25,26
 145 156 145 156 165.5 124 c 128,-1,27
 186 92 186 92 226 92 c 0,28,29
 256 92 256 92 281 107.5 c 128,-1,30
 306 123 306 123 324 150 c 128,-1,31
 342 177 342 177 352 213 c 128,-1,32
 362 249 362 249 362 290 c 0,33,34
 362 342 362 342 341.5 374 c 128,-1,35
 321 406 321 406 281 406 c 0,20,21
EndSplineSet
Substitution2: "'smcp' Lowercase to Small Capitals in Latin lookup 1 subtable" O.sc
Substitution2: "'aalt' Access All Alternates in Latin lookup 0 subtable" O.sc
EndChar

StartChar: p
Encoding: 112 112 81
Width: 560
Flags: W
LayerCount: 2
Back
Fore
SplineSet
221 -10 m 0,0,1
 202 -10 202 -10 189.5 -8 c 128,-1,2
 177 -6 177 -6 168 -1.5 c 128,-1,3
 159 3 159 3 152 9.5 c 128,-1,4
 145 16 145 16 136 24 c 1,5,-1
 89 -242 l 1,6,-1
 -36 -242 l 1,7,-1
 95 500 l 1,8,-1
 207 500 l 1,9,-1
 211 471 l 1,10,11
 234 488 234 488 258 498 c 128,-1,12
 282 508 282 508 312 508 c 0,13,14
 361 508 361 508 396.5 491.5 c 128,-1,15
 432 475 432 475 455.5 446.5 c 128,-1,16
 479 418 479 418 490.5 380 c 128,-1,17
 502 342 502 342 502 299 c 0,18,19
 502 239 502 239 482.5 183 c 128,-1,20
 463 127 463 127 426.5 84.5 c 128,-1,21
 390 42 390 42 338 16 c 128,-1,22
 286 -10 286 -10 221 -10 c 0,0,1
288 406 m 0,23,24
 231 406 231 406 196.5 355 c 128,-1,25
 162 304 162 304 162 188 c 0,26,27
 162 146 162 146 177 119 c 128,-1,28
 192 92 192 92 232 92 c 0,29,30
 264 92 264 92 290 107.5 c 128,-1,31
 316 123 316 123 335 150 c 128,-1,32
 354 177 354 177 364 212.5 c 128,-1,33
 374 248 374 248 374 289 c 0,34,35
 374 341 374 341 352 373.5 c 128,-1,36
 330 406 330 406 288 406 c 0,23,24
EndSplineSet
Substitution2: "'smcp' Lowercase to Small Capitals in Latin lookup 1 subtable" P.sc
Substitution2: "'aalt' Access All Alternates in Latin lookup 0 subtable" P.sc
EndChar

StartChar: q
Encoding: 113 113 82
Width: 561
Flags: W
LayerCount: 2
Back
Fore
SplineSet
208 -10 m 0,0,1
 160 -10 160 -10 124.5 6.5 c 128,-1,2
 89 23 89 23 65 51.5 c 128,-1,3
 41 80 41 80 29.5 118.5 c 128,-1,4
 18 157 18 157 18 200 c 0,5,6
 18 259 18 259 37 314.5 c 128,-1,7
 56 370 56 370 92 413 c 128,-1,8
 128 456 128 456 180.5 482 c 128,-1,9
 233 508 233 508 300 508 c 0,10,11
 330 508 330 508 350 498 c 128,-1,12
 370 488 370 488 388 471 c 1,13,-1
 402 500 l 1,14,-1
 514 500 l 1,15,-1
 383 -242 l 1,16,-1
 258 -242 l 1,17,-1
 305 24 l 1,18,19
 293 16 293 16 283.5 9.5 c 128,-1,20
 274 3 274 3 263.5 -1.5 c 128,-1,21
 253 -6 253 -6 240 -8 c 128,-1,22
 227 -10 227 -10 208 -10 c 0,0,1
288 406 m 0,23,24
 256 406 256 406 230 390.5 c 128,-1,25
 204 375 204 375 185.5 348 c 128,-1,26
 167 321 167 321 157 285 c 128,-1,27
 147 249 147 249 147 209 c 0,28,29
 147 157 147 157 168.5 124.5 c 128,-1,30
 190 92 190 92 233 92 c 0,31,32
 261 92 261 92 284.5 104.5 c 128,-1,33
 308 117 308 117 324.5 143.5 c 128,-1,34
 341 170 341 170 350 211 c 128,-1,35
 359 252 359 252 359 310 c 0,36,37
 359 352 359 352 343.5 379 c 128,-1,38
 328 406 328 406 288 406 c 0,23,24
EndSplineSet
Substitution2: "'smcp' Lowercase to Small Capitals in Latin lookup 1 subtable" Q.sc
Substitution2: "'aalt' Access All Alternates in Latin lookup 0 subtable" Q.sc
EndChar

StartChar: r
Encoding: 114 114 83
Width: 340
Flags: W
LayerCount: 2
Back
Fore
SplineSet
319 391 m 1,0,-1
 272 391 l 2,1,2
 244 391 244 391 223 376.5 c 128,-1,3
 202 362 202 362 190 341 c 1,4,-1
 129 0 l 1,5,-1
 7 0 l 1,6,-1
 95 500 l 1,7,-1
 216 500 l 1,8,-1
 206 447 l 1,9,10
 212 457 212 457 224 468 c 128,-1,11
 236 479 236 479 252 488 c 128,-1,12
 268 497 268 497 286.5 502.5 c 128,-1,13
 305 508 305 508 324 508 c 2,14,-1
 363 508 l 1,15,-1
 319 391 l 1,0,-1
EndSplineSet
Substitution2: "'smcp' Lowercase to Small Capitals in Latin lookup 1 subtable" R.sc
Substitution2: "'aalt' Access All Alternates in Latin lookup 0 subtable" R.sc
EndChar

StartChar: s
Encoding: 115 115 84
Width: 416
Flags: W
LayerCount: 2
Back
Fore
SplineSet
133 -10 m 0,0,1
 82 -10 82 -10 44 1.5 c 128,-1,2
 6 13 6 13 -13 27 c 1,3,-1
 16 133 l 1,4,5
 26 124 26 124 41.5 115 c 128,-1,6
 57 106 57 106 75 99 c 128,-1,7
 93 92 93 92 111.5 87.5 c 128,-1,8
 130 83 130 83 146 83 c 0,9,10
 186 83 186 83 201 102.5 c 128,-1,11
 216 122 216 122 216 148 c 256,12,13
 216 174 216 174 196.5 186 c 128,-1,14
 177 198 177 198 147 209 c 0,15,16
 127 216 127 216 108.5 224 c 128,-1,17
 90 232 90 232 75.5 245 c 128,-1,18
 61 258 61 258 52 276.5 c 128,-1,19
 43 295 43 295 43 323 c 0,20,21
 43 349 43 349 52 381.5 c 128,-1,22
 61 414 61 414 83.5 442 c 128,-1,23
 106 470 106 470 144 489 c 128,-1,24
 182 508 182 508 239 508 c 0,25,26
 261 508 261 508 283.5 504.5 c 128,-1,27
 306 501 306 501 325.5 496 c 128,-1,28
 345 491 345 491 360 484.5 c 128,-1,29
 375 478 375 478 383 471 c 1,30,-1
 354 365 l 1,31,32
 348 374 348 374 335 384 c 128,-1,33
 322 394 322 394 305.5 401.5 c 128,-1,34
 289 409 289 409 270.5 414 c 128,-1,35
 252 419 252 419 234 419 c 0,36,37
 220 419 220 419 205.5 415.5 c 128,-1,38
 191 412 191 412 179.5 404.5 c 128,-1,39
 168 397 168 397 160.5 385 c 128,-1,40
 153 373 153 373 153 356 c 0,41,42
 153 341 153 341 161 331 c 128,-1,43
 169 321 169 321 181.5 314 c 128,-1,44
 194 307 194 307 210.5 302 c 128,-1,45
 227 297 227 297 244 291 c 0,46,47
 265 284 265 284 283 275 c 128,-1,48
 301 266 301 266 314.5 252.5 c 128,-1,49
 328 239 328 239 335.5 219 c 128,-1,50
 343 199 343 199 343 170 c 0,51,52
 343 135 343 135 333 102.5 c 128,-1,53
 323 70 323 70 299 45 c 128,-1,54
 275 20 275 20 234.5 5 c 128,-1,55
 194 -10 194 -10 133 -10 c 0,0,1
EndSplineSet
Substitution2: "'smcp' Lowercase to Small Capitals in Latin lookup 1 subtable" S.sc
Substitution2: "'aalt' Access All Alternates in Latin lookup 0 subtable" S.sc
EndChar

StartChar: t
Encoding: 116 116 85
Width: 338
Flags: W
LayerCount: 2
Back
Fore
SplineSet
232 -10 m 1,0,-1
 149 -10 l 2,1,2
 122 -10 122 -10 102.5 -1.5 c 128,-1,3
 83 7 83 7 70.5 21 c 128,-1,4
 58 35 58 35 52 53.5 c 128,-1,5
 46 72 46 72 46 93 c 0,6,7
 46 107 46 107 49 121 c 2,8,-1
 98 398 l 1,9,-1
 39 398 l 1,10,-1
 68 500 l 1,11,-1
 116 500 l 1,12,-1
 136 610 l 1,13,-1
 263 623 l 1,14,-1
 241 500 l 1,15,-1
 333 500 l 1,16,-1
 315 398 l 1,17,-1
 223 398 l 1,18,-1
 183 172 l 2,19,20
 177 139 177 139 177 122 c 0,21,22
 177 101 177 101 188 96.5 c 128,-1,23
 199 92 199 92 227 92 c 2,24,-1
 262 92 l 1,25,-1
 232 -10 l 1,0,-1
EndSplineSet
Substitution2: "'smcp' Lowercase to Small Capitals in Latin lookup 1 subtable" T.sc
Substitution2: "'aalt' Access All Alternates in Latin lookup 0 subtable" T.sc
EndChar

StartChar: u
Encoding: 117 117 86
Width: 541
Flags: W
LayerCount: 2
Back
Fore
SplineSet
294 0 m 1,0,-1
 300 30 l 1,1,2
 278 13 278 13 250.5 1.5 c 128,-1,3
 223 -10 223 -10 203 -10 c 0,4,5
 156 -10 156 -10 124 1.5 c 128,-1,6
 92 13 92 13 72.5 34 c 128,-1,7
 53 55 53 55 44 84.5 c 128,-1,8
 35 114 35 114 35 150 c 0,9,10
 35 185 35 185 43 231 c 2,11,-1
 90 500 l 1,12,-1
 215 500 l 1,13,-1
 168 231 l 2,14,15
 162 198 162 198 162 172 c 0,16,17
 162 94 162 94 227 94 c 0,18,19
 253 94 253 94 272.5 105 c 128,-1,20
 292 116 292 116 311 136 c 1,21,-1
 376 500 l 1,22,-1
 500 500 l 1,23,-1
 412 0 l 1,24,-1
 294 0 l 1,0,-1
EndSplineSet
Substitution2: "'smcp' Lowercase to Small Capitals in Latin lookup 1 subtable" U.sc
Substitution2: "'aalt' Access All Alternates in Latin lookup 0 subtable" U.sc
EndChar

StartChar: v
Encoding: 118 118 87
Width: 482
Flags: W
LayerCount: 2
Back
Fore
SplineSet
236 0 m 1,0,-1
 134 0 l 1,1,-1
 37 500 l 1,2,-1
 158 500 l 1,3,-1
 212 154 l 1,4,-1
 390 500 l 1,5,-1
 510 500 l 1,6,-1
 236 0 l 1,0,-1
EndSplineSet
Substitution2: "'smcp' Lowercase to Small Capitals in Latin lookup 1 subtable" V.sc
Substitution2: "'aalt' Access All Alternates in Latin lookup 0 subtable" V.sc
EndChar

StartChar: w
Encoding: 119 119 88
Width: 703
Flags: W
LayerCount: 2
Back
Fore
SplineSet
466 0 m 1,0,-1
 371 0 l 1,1,-1
 336 326 l 1,2,-1
 186 0 l 1,3,-1
 91 0 l 1,4,-1
 48 500 l 1,5,-1
 163 500 l 1,6,-1
 175 151 l 1,7,-1
 316 490 l 1,8,-1
 414 490 l 1,9,-1
 433 151 l 1,10,-1
 570 500 l 1,11,-1
 685 500 l 1,12,-1
 466 0 l 1,0,-1
EndSplineSet
Substitution2: "'smcp' Lowercase to Small Capitals in Latin lookup 1 subtable" W.sc
Substitution2: "'aalt' Access All Alternates in Latin lookup 0 subtable" W.sc
EndChar

StartChar: x
Encoding: 120 120 89
Width: 481
Flags: W
LayerCount: 2
Back
Fore
SplineSet
267 0 m 1,0,-1
 213 148 l 1,1,-1
 110 0 l 1,2,-1
 -39 0 l 1,3,-1
 158 250 l 1,4,-1
 49 500 l 1,5,-1
 198 500 l 1,6,-1
 250 339 l 1,7,-1
 356 500 l 1,8,-1
 505 500 l 1,9,-1
 305 250 l 1,10,-1
 416 0 l 1,11,-1
 267 0 l 1,0,-1
EndSplineSet
Substitution2: "'smcp' Lowercase to Small Capitals in Latin lookup 1 subtable" X.sc
Substitution2: "'aalt' Access All Alternates in Latin lookup 0 subtable" X.sc
EndChar

StartChar: y
Encoding: 121 121 90
Width: 523
Flags: W
LayerCount: 2
Back
Fore
SplineSet
118 -242 m 1,0,-1
 -3 -242 l 1,1,-1
 145 33 l 1,2,-1
 38 500 l 1,3,-1
 177 500 l 1,4,-1
 226 178 l 1,5,-1
 397 500 l 1,6,-1
 535 500 l 1,7,-1
 118 -242 l 1,0,-1
EndSplineSet
Substitution2: "'smcp' Lowercase to Small Capitals in Latin lookup 1 subtable" Y.sc
Substitution2: "'aalt' Access All Alternates in Latin lookup 0 subtable" Y.sc
EndChar

StartChar: z
Encoding: 122 122 91
Width: 461
Flags: W
LayerCount: 2
Back
Fore
SplineSet
199 110 m 1,0,-1
 370 110 l 1,1,-1
 350 0 l 1,2,-1
 -28 0 l 1,3,-1
 224 390 l 1,4,-1
 50 390 l 1,5,-1
 69 500 l 1,6,-1
 451 500 l 1,7,-1
 199 110 l 1,0,-1
EndSplineSet
Substitution2: "'smcp' Lowercase to Small Capitals in Latin lookup 1 subtable" Z.sc
Substitution2: "'aalt' Access All Alternates in Latin lookup 0 subtable" Z.sc
EndChar

StartChar: braceleft
Encoding: 123 123 92
Width: 315
Flags: W
LayerCount: 2
Back
Fore
SplineSet
35 -8 m 0,0,1
 35 16 35 16 41 42.5 c 128,-1,2
 47 69 47 69 54.5 96.5 c 128,-1,3
 62 124 62 124 68.5 151 c 128,-1,4
 75 178 75 178 75 204 c 0,5,6
 75 239 75 239 62 263.5 c 128,-1,7
 49 288 49 288 17 307 c 1,8,9
 41 319 41 319 58 332 c 128,-1,10
 75 345 75 345 87 361.5 c 128,-1,11
 99 378 99 378 107 399 c 128,-1,12
 115 420 115 420 120 449 c 0,13,14
 126 482 126 482 129.5 519 c 128,-1,15
 133 556 133 556 138 585 c 0,16,17
 145 625 145 625 160.5 655.5 c 128,-1,18
 176 686 176 686 202.5 707 c 128,-1,19
 229 728 229 728 269 739 c 128,-1,20
 309 750 309 750 365 750 c 1,21,-1
 345 641 l 1,22,23
 307 641 307 641 286.5 636.5 c 128,-1,24
 266 632 266 632 254 617 c 128,-1,25
 242 602 242 602 235.5 574 c 128,-1,26
 229 546 229 546 221 500 c 0,27,28
 217 480 217 480 215 459 c 128,-1,29
 213 438 213 438 209 418 c 0,30,31
 203 386 203 386 191 356.5 c 128,-1,32
 179 327 179 327 156 307 c 1,33,34
 167 294 167 294 171 276 c 128,-1,35
 175 258 175 258 175 238 c 0,36,37
 175 213 175 213 169.5 191.5 c 128,-1,38
 164 170 164 170 157.5 147.5 c 128,-1,39
 151 125 151 125 145.5 99 c 128,-1,40
 140 73 140 73 140 39 c 0,41,42
 140 -3 140 -3 159 -15 c 128,-1,43
 178 -27 178 -27 228 -27 c 1,44,-1
 208 -136 l 1,45,46
 116 -136 116 -136 75.5 -104 c 128,-1,47
 35 -72 35 -72 35 -8 c 0,0,1
EndSplineSet
EndChar

StartChar: bar
Encoding: 124 124 93
Width: 232
Flags: W
LayerCount: 2
Back
Fore
SplineSet
-22 -210 m 1,0,-1
 147 750 l 1,1,-1
 242 750 l 1,2,-1
 72 -210 l 1,3,-1
 -22 -210 l 1,0,-1
EndSplineSet
EndChar

StartChar: braceright
Encoding: 125 125 94
Width: 316
Flags: W
LayerCount: 2
Back
Fore
SplineSet
168 29 m 0,0,1
 153 -54 153 -54 100.5 -95 c 128,-1,2
 48 -136 48 -136 -59 -136 c 1,3,-1
 -40 -27 l 1,4,5
 -2 -27 -2 -27 19 -22.5 c 128,-1,6
 40 -18 40 -18 52 -3 c 128,-1,7
 64 12 64 12 70.5 40 c 128,-1,8
 77 68 77 68 85 115 c 0,9,10
 90 139 90 139 92 161.5 c 128,-1,11
 94 184 94 184 98 204 c 0,12,13
 103 236 103 236 115 261.5 c 128,-1,14
 127 287 127 287 150 307 c 1,15,16
 139 320 139 320 135 340 c 128,-1,17
 131 360 131 360 131 380 c 0,18,19
 131 401 131 401 136.5 420 c 128,-1,20
 142 439 142 439 148.5 461.5 c 128,-1,21
 155 484 155 484 160.5 511.5 c 128,-1,22
 166 539 166 539 166 576 c 0,23,24
 166 617 166 617 147 629 c 128,-1,25
 128 641 128 641 78 641 c 1,26,-1
 97 750 l 1,27,28
 192 750 192 750 231 716.5 c 128,-1,29
 270 683 270 683 270 622 c 0,30,31
 270 598 270 598 264 572 c 128,-1,32
 258 546 258 546 250.5 518.5 c 128,-1,33
 243 491 243 491 237 463.5 c 128,-1,34
 231 436 231 436 231 410 c 0,35,36
 231 372 231 372 245 349 c 128,-1,37
 259 326 259 326 289 307 c 1,38,39
 264 295 264 295 246.5 281 c 128,-1,40
 229 267 229 267 217 250.5 c 128,-1,41
 205 234 205 234 198 213.5 c 128,-1,42
 191 193 191 193 186 166 c 0,43,44
 180 132 180 132 176.5 95 c 128,-1,45
 173 58 173 58 168 29 c 0,0,1
EndSplineSet
EndChar

StartChar: asciitilde
Encoding: 126 126 95
Width: 460
Flags: W
LayerCount: 2
Back
Fore
SplineSet
267 176 m 0,0,1
 246 176 246 176 232.5 182.5 c 128,-1,2
 219 189 219 189 207.5 197 c 128,-1,3
 196 205 196 205 185.5 211.5 c 128,-1,4
 175 218 175 218 162 218 c 0,5,6
 144 218 144 218 133.5 202 c 128,-1,7
 123 186 123 186 119 171 c 1,8,-1
 30 191 l 1,9,10
 36 216 36 216 50 235 c 128,-1,11
 64 254 64 254 83.5 267 c 128,-1,12
 103 280 103 280 125.5 286.5 c 128,-1,13
 148 293 148 293 169 293 c 0,14,15
 192 293 192 293 204 286.5 c 128,-1,16
 216 280 216 280 224 272 c 128,-1,17
 232 264 232 264 239 257.5 c 128,-1,18
 246 251 246 251 259 251 c 0,19,20
 280 251 280 251 296 267 c 128,-1,21
 312 283 312 283 314 298 c 1,22,-1
 395 278 l 1,23,24
 390 259 390 259 379 241 c 128,-1,25
 368 223 368 223 351.5 208.5 c 128,-1,26
 335 194 335 194 313.5 185 c 128,-1,27
 292 176 292 176 267 176 c 0,0,1
EndSplineSet
EndChar

StartChar: exclamdown
Encoding: 161 161 97
Width: 245
Flags: W
LayerCount: 2
Back
Fore
SplineSet
78 300 m 1,0,-1
 161 300 l 1,1,-1
 79 -250 l 1,2,-1
 -33 -250 l 1,3,-1
 78 300 l 1,0,-1
219 500 m 1,4,-1
 197 376 l 1,5,-1
 70 376 l 1,6,-1
 91 500 l 1,7,-1
 219 500 l 1,4,-1
EndSplineSet
EndChar

StartChar: cent
Encoding: 162 162 98
Width: 463
Flags: W
LayerCount: 2
Back
Fore
SplineSet
242 -32 m 1,0,-1
 140 -32 l 1,1,-1
 175 91 l 1,2,3
 140 97 140 97 114.5 114.5 c 128,-1,4
 89 132 89 132 72.5 158.5 c 128,-1,5
 56 185 56 185 48 218.5 c 128,-1,6
 40 252 40 252 40 290 c 0,7,8
 40 348 40 348 56.5 401 c 128,-1,9
 73 454 73 454 102.5 497 c 128,-1,10
 132 540 132 540 173.5 568.5 c 128,-1,11
 215 597 215 597 266 605 c 1,12,-1
 277 748 l 1,13,-1
 380 748 l 1,14,-1
 341 606 l 1,15,16
 381 604 381 604 402 594 c 128,-1,17
 423 584 423 584 440 570 c 1,18,-1
 410 464 l 1,19,20
 360 505 360 505 306 505 c 0,21,22
 273 505 273 505 247.5 489 c 128,-1,23
 222 473 222 473 204 445 c 128,-1,24
 186 417 186 417 177 380.5 c 128,-1,25
 168 344 168 344 168 303 c 0,26,27
 168 253 168 253 187.5 222 c 128,-1,28
 207 191 207 191 250 191 c 0,29,30
 305 191 305 191 369 232 c 1,31,-1
 361 126 l 1,32,33
 338 112 338 112 312 102 c 128,-1,34
 286 92 286 92 245 89 c 1,35,-1
 242 -32 l 1,0,-1
EndSplineSet
EndChar

StartChar: sterling
Encoding: 163 163 99
Width: 514
Flags: W
LayerCount: 2
Back
Fore
SplineSet
435 551 m 1,0,1
 430 582 430 582 420 594.5 c 128,-1,2
 410 607 410 607 381 607 c 0,3,4
 360 607 360 607 346.5 599 c 128,-1,5
 333 591 333 591 324.5 575 c 128,-1,6
 316 559 316 559 310.5 535 c 128,-1,7
 305 511 305 511 299 480 c 2,8,-1
 286 407 l 1,9,-1
 450 407 l 1,10,-1
 407 303 l 1,11,-1
 264 303 l 1,12,13
 258 275 258 275 252 253.5 c 128,-1,14
 246 232 246 232 239.5 212 c 128,-1,15
 233 192 233 192 223.5 171.5 c 128,-1,16
 214 151 214 151 201 124 c 1,17,-1
 401 124 l 1,18,-1
 379 0 l 1,19,-1
 -19 0 l 1,20,21
 49 70 49 70 85.5 144 c 128,-1,22
 122 218 122 218 144 303 c 1,23,-1
 66 303 l 1,24,-1
 110 407 l 1,25,-1
 168 407 l 1,26,-1
 184 500 l 2,27,28
 190 537 190 537 202.5 574 c 128,-1,29
 215 611 215 611 238 640 c 128,-1,30
 261 669 261 669 297 687.5 c 128,-1,31
 333 706 333 706 386 706 c 0,32,33
 410 706 410 706 434 700.5 c 128,-1,34
 458 695 458 695 477 684 c 128,-1,35
 496 673 496 673 508 655 c 128,-1,36
 520 637 520 637 520 612 c 1,37,-1
 435 551 l 1,0,1
EndSplineSet
EndChar

StartChar: currency
Encoding: 164 164 100
Width: 612
Flags: W
LayerCount: 2
Back
Fore
SplineSet
415 19 m 1,0,-1
 367 118 l 1,1,2
 323 89 323 89 256 89 c 0,3,4
 224 89 224 89 198 96.5 c 128,-1,5
 172 104 172 104 156 118 c 1,6,-1
 74 19 l 1,7,-1
 16 69 l 1,8,-1
 96 166 l 1,9,10
 82 191 82 191 75 226.5 c 128,-1,11
 68 262 68 262 68 298 c 0,12,13
 68 366 68 366 93.5 425 c 128,-1,14
 119 484 119 484 161 530 c 1,15,-1
 114 627 l 1,16,-1
 190 677 l 1,17,-1
 237 578 l 1,18,19
 258 592 258 592 286.5 599.5 c 128,-1,20
 315 607 315 607 347 607 c 0,21,22
 413 607 413 607 448 577 c 1,23,-1
 531 677 l 1,24,-1
 588 627 l 1,25,-1
 507 529 l 1,26,27
 521 504 521 504 528 468.5 c 128,-1,28
 535 433 535 433 535 397 c 0,29,30
 535 328 535 328 509 269.5 c 128,-1,31
 483 211 483 211 443 166 c 1,32,-1
 490 69 l 1,33,-1
 415 19 l 1,0,-1
329 505 m 0,34,35
 300 505 300 505 276 489 c 128,-1,36
 252 473 252 473 234.5 446 c 128,-1,37
 217 419 217 419 207.5 383 c 128,-1,38
 198 347 198 347 198 306 c 0,39,40
 198 255 198 255 217 223 c 128,-1,41
 236 191 236 191 274 191 c 0,42,43
 303 191 303 191 327 207 c 128,-1,44
 351 223 351 223 368.5 250 c 128,-1,45
 386 277 386 277 396 313 c 128,-1,46
 406 349 406 349 406 390 c 0,47,48
 406 441 406 441 386.5 473 c 128,-1,49
 367 505 367 505 329 505 c 0,34,35
EndSplineSet
EndChar

StartChar: yen
Encoding: 165 165 101
Width: 690
Flags: W
LayerCount: 2
Back
Fore
SplineSet
423 337 m 1,0,-1
 545 337 l 1,1,-1
 507 268 l 1,2,-1
 388 268 l 1,3,-1
 377 207 l 1,4,-1
 522 207 l 1,5,-1
 484 138 l 1,6,-1
 365 138 l 1,7,-1
 341 0 l 1,8,-1
 213 0 l 1,9,-1
 237 138 l 1,10,-1
 94 138 l 1,11,-1
 130 207 l 1,12,-1
 250 207 l 1,13,-1
 260 268 l 1,14,-1
 117 268 l 1,15,-1
 152 337 l 1,16,-1
 250 337 l 1,17,-1
 100 700 l 1,18,-1
 235 700 l 1,19,-1
 352 424 l 1,20,-1
 566 700 l 1,21,-1
 701 700 l 1,22,-1
 423 337 l 1,0,-1
EndSplineSet
EndChar

StartChar: brokenbar
Encoding: 166 166 102
Width: 221
Flags: W
LayerCount: 2
Back
Fore
SplineSet
66 284 m 1,0,-1
 148 750 l 1,1,-1
 227 750 l 1,2,-1
 145 284 l 1,3,-1
 66 284 l 1,0,-1
-21 -210 m 1,4,-1
 50 190 l 1,5,-1
 129 190 l 1,6,-1
 58 -210 l 1,7,-1
 -21 -210 l 1,4,-1
EndSplineSet
EndChar

StartChar: section
Encoding: 167 167 103
Width: 450
Flags: W
LayerCount: 2
Back
Fore
SplineSet
298 186 m 1,0,1
 304 172 304 172 309.5 152.5 c 128,-1,2
 315 133 315 133 315 108 c 256,3,4
 315 83 315 83 307 49.5 c 128,-1,5
 299 16 299 16 278 -14 c 128,-1,6
 257 -44 257 -44 220.5 -64.5 c 128,-1,7
 184 -85 184 -85 127 -85 c 0,8,9
 109 -85 109 -85 90 -81.5 c 128,-1,10
 71 -78 71 -78 54 -72 c 128,-1,11
 37 -66 37 -66 24.5 -59 c 128,-1,12
 12 -52 12 -52 6 -44 c 1,13,-1
 31 61 l 1,14,15
 52 41 52 41 83 26 c 128,-1,16
 114 11 114 11 138 11 c 0,17,18
 152 11 152 11 167.5 14 c 128,-1,19
 183 17 183 17 195.5 24.5 c 128,-1,20
 208 32 208 32 216.5 45.5 c 128,-1,21
 225 59 225 59 225 80 c 0,22,23
 225 102 225 102 211.5 116.5 c 128,-1,24
 198 131 198 131 178.5 142 c 128,-1,25
 159 153 159 153 135.5 164.5 c 128,-1,26
 112 176 112 176 92.5 193 c 128,-1,27
 73 210 73 210 59.5 235 c 128,-1,28
 46 260 46 260 46 299 c 0,29,30
 46 360 46 360 70.5 408 c 128,-1,31
 95 456 95 456 143 479 c 1,32,33
 137 492 137 492 132.5 511 c 128,-1,34
 128 530 128 530 128 554 c 0,35,36
 128 581 128 581 136.5 615 c 128,-1,37
 145 649 145 649 166.5 679 c 128,-1,38
 188 709 188 709 224.5 729.5 c 128,-1,39
 261 750 261 750 318 750 c 0,40,41
 335 750 335 750 354 746.5 c 128,-1,42
 373 743 373 743 390 737 c 128,-1,43
 407 731 407 731 420 723.5 c 128,-1,44
 433 716 433 716 438 709 c 1,45,-1
 413 604 l 1,46,47
 391 624 391 624 361 639 c 128,-1,48
 331 654 331 654 306 654 c 0,49,50
 292 654 292 654 276 651 c 128,-1,51
 260 648 260 648 246.5 640.5 c 128,-1,52
 233 633 233 633 224.5 620 c 128,-1,53
 216 607 216 607 216 586 c 0,54,55
 216 563 216 563 229.5 549 c 128,-1,56
 243 535 243 535 263 523.5 c 128,-1,57
 283 512 283 512 307 500.5 c 128,-1,58
 331 489 331 489 351 472 c 128,-1,59
 371 455 371 455 384.5 429.5 c 128,-1,60
 398 404 398 404 398 365 c 0,61,62
 398 304 398 304 373.5 256.5 c 128,-1,63
 349 209 349 209 298 186 c 1,0,1
202 408 m 1,64,65
 185 408 185 408 167 389.5 c 128,-1,66
 149 371 149 371 149 342 c 0,67,68
 149 321 149 321 159 305 c 128,-1,69
 169 289 169 289 182.5 278 c 128,-1,70
 196 267 196 267 211 259 c 128,-1,71
 226 251 226 251 237 247 c 0,72,73
 241 247 241 247 252 253.5 c 128,-1,74
 263 260 263 260 273.5 270.5 c 128,-1,75
 284 281 284 281 292.5 295 c 128,-1,76
 301 309 301 309 301 324 c 0,77,78
 301 344 301 344 291.5 358 c 128,-1,79
 282 372 282 372 268 381.5 c 128,-1,80
 254 391 254 391 236 397 c 128,-1,81
 218 403 218 403 202 408 c 1,64,65
EndSplineSet
EndChar

StartChar: dieresis
Encoding: 168 168 104
Width: 405
Flags: W
LayerCount: 2
Back
Fore
SplineSet
313 594 m 1,0,-1
 332 700 l 1,1,-1
 430 700 l 1,2,-1
 411 594 l 1,3,-1
 313 594 l 1,0,-1
188 594 m 1,4,-1
 207 700 l 1,5,-1
 305 700 l 1,6,-1
 286 594 l 1,7,-1
 188 594 l 1,4,-1
EndSplineSet
EndChar

StartChar: copyright
Encoding: 169 169 105
Width: 695
Flags: W
LayerCount: 2
Back
Fore
SplineSet
284 37 m 0,0,1
 232 37 232 37 189.5 56 c 128,-1,2
 147 75 147 75 117 109.5 c 128,-1,3
 87 144 87 144 71 192.5 c 128,-1,4
 55 241 55 241 55 301 c 0,5,6
 55 387 55 387 82.5 459 c 128,-1,7
 110 531 110 531 157.5 583 c 128,-1,8
 205 635 205 635 267.5 664 c 128,-1,9
 330 693 330 693 400 693 c 0,10,11
 452 693 452 693 494 674.5 c 128,-1,12
 536 656 536 656 566 621.5 c 128,-1,13
 596 587 596 587 612 538.5 c 128,-1,14
 628 490 628 490 628 430 c 0,15,16
 628 344 628 344 600.5 272 c 128,-1,17
 573 200 573 200 526 147.5 c 128,-1,18
 479 95 479 95 416.5 66 c 128,-1,19
 354 37 354 37 284 37 c 0,0,1
388 623 m 0,20,21
 326 623 326 623 279 597 c 128,-1,22
 232 571 232 571 199.5 527 c 128,-1,23
 167 483 167 483 150.5 425 c 128,-1,24
 134 367 134 367 134 304 c 0,25,26
 134 261 134 261 143.5 225 c 128,-1,27
 153 189 153 189 173 162.5 c 128,-1,28
 193 136 193 136 223.5 121 c 128,-1,29
 254 106 254 106 296 106 c 0,30,31
 357 106 357 106 404 132 c 128,-1,32
 451 158 451 158 483 202.5 c 128,-1,33
 515 247 515 247 532 305 c 128,-1,34
 549 363 549 363 549 426 c 0,35,36
 549 469 549 469 539.5 505 c 128,-1,37
 530 541 530 541 510 567 c 128,-1,38
 490 593 490 593 459.5 608 c 128,-1,39
 429 623 429 623 388 623 c 0,20,21
318 190 m 0,40,41
 261 190 261 190 228 228.5 c 128,-1,42
 195 267 195 267 195 330 c 0,43,44
 195 375 195 375 209.5 413 c 128,-1,45
 224 451 224 451 249 478.5 c 128,-1,46
 274 506 274 506 307.5 521.5 c 128,-1,47
 341 537 341 537 379 537 c 0,48,49
 405 537 405 537 429.5 530.5 c 128,-1,50
 454 524 454 524 472 514 c 1,51,-1
 446 429 l 1,52,53
 426 439 426 439 406.5 445.5 c 128,-1,54
 387 452 387 452 364 452 c 0,55,56
 329 452 329 452 308 420 c 128,-1,57
 287 388 287 388 287 340 c 0,58,59
 287 311 287 311 298.5 292.5 c 128,-1,60
 310 274 310 274 333 274 c 256,61,62
 356 274 356 274 377.5 281 c 128,-1,63
 399 288 399 288 424 299 c 1,64,-1
 419 215 l 1,65,66
 397 203 397 203 370 196.5 c 128,-1,67
 343 190 343 190 318 190 c 0,40,41
EndSplineSet
EndChar

StartChar: ordfeminine
Encoding: 170 170 106
Width: 353
Flags: W
LayerCount: 2
Back
Fore
SplineSet
324 434 m 1,0,-1
 268 434 l 2,1,2
 263 434 263 434 255.5 436 c 128,-1,3
 248 438 248 438 240.5 441 c 128,-1,4
 233 444 233 444 226 447.5 c 128,-1,5
 219 451 219 451 216 454 c 1,6,7
 199 444 199 444 180 438.5 c 128,-1,8
 161 433 161 433 142 433 c 0,9,10
 113 433 113 433 91 450 c 128,-1,11
 69 467 69 467 69 505 c 0,12,13
 69 533 69 533 81 552.5 c 128,-1,14
 93 572 93 572 111 585.5 c 128,-1,15
 129 599 129 599 149.5 607.5 c 128,-1,16
 170 616 170 616 188 621 c 128,-1,17
 206 626 206 626 218 628.5 c 128,-1,18
 230 631 230 631 230 634 c 0,19,20
 230 639 230 639 224 643 c 128,-1,21
 218 647 218 647 200 647 c 0,22,23
 177 647 177 647 158 641.5 c 128,-1,24
 139 636 139 636 116 632 c 1,25,-1
 126 713 l 1,26,27
 169 725 169 725 196 728.5 c 128,-1,28
 223 732 223 732 237 732 c 0,29,30
 280 732 280 732 309 713 c 128,-1,31
 338 694 338 694 338 659 c 0,32,33
 338 654 338 654 337.5 653 c 128,-1,34
 337 652 337 652 337 650 c 2,35,-1
 318 543 l 2,36,37
 317 538 317 538 316.5 535 c 128,-1,38
 316 532 316 532 316 529 c 0,39,40
 316 519 316 519 325 519 c 2,41,-1
 341 519 l 1,42,-1
 324 434 l 1,0,-1
218 563 m 2,43,44
 214 563 214 563 207.5 561.5 c 128,-1,45
 201 560 201 560 194.5 556 c 128,-1,46
 188 552 188 552 183.5 544 c 128,-1,47
 179 536 179 536 179 523 c 0,48,49
 179 515 179 515 181.5 506 c 128,-1,50
 184 497 184 497 190 497 c 0,51,52
 200 497 200 497 207 501 c 1,53,-1
 218 563 l 2,43,44
EndSplineSet
EndChar

StartChar: guillemotleft
Encoding: 171 171 107
Width: 594
Flags: W
LayerCount: 2
Back
Fore
SplineSet
347 78 m 1,0,-1
 245 284 l 1,1,-1
 420 490 l 1,2,-1
 570 490 l 1,3,-1
 396 284 l 1,4,-1
 498 78 l 1,5,-1
 347 78 l 1,0,-1
113 78 m 1,6,-1
 11 284 l 1,7,-1
 186 490 l 1,8,-1
 337 490 l 1,9,-1
 162 284 l 1,10,-1
 264 78 l 1,11,-1
 113 78 l 1,6,-1
EndSplineSet
EndChar

StartChar: logicalnot
Encoding: 172 172 108
Width: 569
Flags: W
LayerCount: 2
Back
Fore
SplineSet
347 151 m 1,0,-1
 375 312 l 1,1,-1
 61 312 l 1,2,-1
 78 406 l 1,3,-1
 492 406 l 1,4,-1
 447 151 l 1,5,-1
 347 151 l 1,0,-1
EndSplineSet
EndChar

StartChar: uni00AD
Encoding: 173 173 109
Width: 408
Flags: W
LayerCount: 2
Back
Fore
SplineSet
44 230 m 1,0,-1
 61 324 l 1,1,-1
 340 324 l 1,2,-1
 323 230 l 1,3,-1
 44 230 l 1,0,-1
EndSplineSet
EndChar

StartChar: registered
Encoding: 174 174 110
Width: 695
Flags: W
LayerCount: 2
Back
Fore
SplineSet
284 37 m 0,0,1
 232 37 232 37 189.5 56 c 128,-1,2
 147 75 147 75 117 109.5 c 128,-1,3
 87 144 87 144 71 192.5 c 128,-1,4
 55 241 55 241 55 301 c 0,5,6
 55 387 55 387 82.5 459 c 128,-1,7
 110 531 110 531 157.5 583 c 128,-1,8
 205 635 205 635 267.5 664 c 128,-1,9
 330 693 330 693 400 693 c 0,10,11
 452 693 452 693 494 674.5 c 128,-1,12
 536 656 536 656 566 621.5 c 128,-1,13
 596 587 596 587 612 538.5 c 128,-1,14
 628 490 628 490 628 430 c 0,15,16
 628 344 628 344 600.5 272 c 128,-1,17
 573 200 573 200 526 147.5 c 128,-1,18
 479 95 479 95 416.5 66 c 128,-1,19
 354 37 354 37 284 37 c 0,0,1
387 622 m 0,20,21
 326 622 326 622 279.5 596 c 128,-1,22
 233 570 233 570 201 526.5 c 128,-1,23
 169 483 169 483 152.5 425 c 128,-1,24
 136 367 136 367 136 304 c 0,25,26
 136 262 136 262 145.5 225.5 c 128,-1,27
 155 189 155 189 175 163 c 128,-1,28
 195 137 195 137 225.5 122 c 128,-1,29
 256 107 256 107 297 107 c 0,30,31
 358 107 358 107 405 133.5 c 128,-1,32
 452 160 452 160 483.5 204 c 128,-1,33
 515 248 515 248 531 306 c 128,-1,34
 547 364 547 364 547 427 c 0,35,36
 547 469 547 469 537.5 505 c 128,-1,37
 528 541 528 541 508.5 567 c 128,-1,38
 489 593 489 593 458.5 607.5 c 128,-1,39
 428 622 428 622 387 622 c 0,20,21
357 203 m 1,40,-1
 323 315 l 1,41,-1
 305 315 l 1,42,-1
 285 203 l 1,43,-1
 196 203 l 1,44,-1
 255 538 l 1,45,-1
 373 538 l 2,46,47
 414 538 414 538 440.5 520 c 128,-1,48
 467 502 467 502 467 454 c 0,49,50
 467 411 467 411 447 382.5 c 128,-1,51
 427 354 427 354 409 341 c 1,52,-1
 453 203 l 1,53,-1
 357 203 l 1,40,-1
331 463 m 1,54,-1
 320 396 l 1,55,-1
 335 396 l 2,56,57
 358 396 358 396 367 407.5 c 128,-1,58
 376 419 376 419 376 442 c 0,59,60
 376 452 376 452 371 457.5 c 128,-1,61
 366 463 366 463 349 463 c 2,62,-1
 331 463 l 1,54,-1
EndSplineSet
EndChar

StartChar: degree
Encoding: 176 176 111
Width: 319
Flags: W
LayerCount: 2
Back
Fore
SplineSet
183 482 m 0,0,1
 135 482 135 482 110 514.5 c 128,-1,2
 85 547 85 547 85 593 c 0,3,4
 85 624 85 624 95.5 653.5 c 128,-1,5
 106 683 106 683 125.5 705.5 c 128,-1,6
 145 728 145 728 172 741.5 c 128,-1,7
 199 755 199 755 231 755 c 0,8,9
 280 755 280 755 304.5 722.5 c 128,-1,10
 329 690 329 690 329 643 c 0,11,12
 329 611 329 611 318.5 582 c 128,-1,13
 308 553 308 553 288.5 531 c 128,-1,14
 269 509 269 509 242.5 495.5 c 128,-1,15
 216 482 216 482 183 482 c 0,0,1
222 704 m 0,16,17
 208 704 208 704 196 695 c 128,-1,18
 184 686 184 686 175 671 c 128,-1,19
 166 656 166 656 160.5 636 c 128,-1,20
 155 616 155 616 155 594 c 0,21,22
 155 566 155 566 164.5 549.5 c 128,-1,23
 174 533 174 533 192 533 c 0,24,25
 207 533 207 533 219 542 c 128,-1,26
 231 551 231 551 239.5 566 c 128,-1,27
 248 581 248 581 253 601 c 128,-1,28
 258 621 258 621 258 644 c 0,29,30
 258 671 258 671 249 687.5 c 128,-1,31
 240 704 240 704 222 704 c 0,16,17
EndSplineSet
EndChar

StartChar: plusminus
Encoding: 177 177 112
Width: 474
Flags: W
LayerCount: 2
Back
Fore
SplineSet
278 310 m 1,0,-1
 255 182 l 1,1,-1
 159 182 l 1,2,-1
 182 310 l 1,3,-1
 63 310 l 1,4,-1
 80 404 l 1,5,-1
 198 404 l 1,6,-1
 221 532 l 1,7,-1
 317 532 l 1,8,-1
 295 404 l 1,9,-1
 413 404 l 1,10,-1
 396 310 l 1,11,-1
 278 310 l 1,0,-1
14 30 m 1,12,-1
 31 124 l 1,13,-1
 364 124 l 1,14,-1
 347 30 l 1,15,-1
 14 30 l 1,12,-1
EndSplineSet
EndChar

StartChar: twosuperior
Encoding: 178 178 113
Width: 303
Flags: W
LayerCount: 2
Back
Fore
SplineSet
23 320 m 1,0,1
 86 396 86 396 123 444.5 c 128,-1,2
 160 493 160 493 179.5 523.5 c 128,-1,3
 199 554 199 554 204.5 572.5 c 128,-1,4
 210 591 210 591 210 606 c 0,5,6
 210 618 210 618 206 625.5 c 128,-1,7
 202 633 202 633 191 633 c 0,8,9
 173 633 173 633 157 623.5 c 128,-1,10
 141 614 141 614 128 602 c 128,-1,11
 115 590 115 590 106.5 578.5 c 128,-1,12
 98 567 98 567 96 563 c 2,13,-1
 100 650 l 1,14,15
 117 673 117 673 148 689.5 c 128,-1,16
 179 706 179 706 220 706 c 0,17,18
 244 706 244 706 260 698.5 c 128,-1,19
 276 691 276 691 285 679.5 c 128,-1,20
 294 668 294 668 298 653.5 c 128,-1,21
 302 639 302 639 302 625 c 0,22,23
 302 587 302 587 278 540 c 128,-1,24
 254 493 254 493 203 419 c 1,25,-1
 278 419 l 1,26,-1
 260 320 l 1,27,-1
 23 320 l 1,0,1
EndSplineSet
EndChar

StartChar: threesuperior
Encoding: 179 179 114
Width: 298
Flags: W
LayerCount: 2
Back
Fore
SplineSet
121 312 m 0,0,1
 103 312 103 312 87 315.5 c 128,-1,2
 71 319 71 319 58 323.5 c 128,-1,3
 45 328 45 328 36.5 333 c 128,-1,4
 28 338 28 338 27 342 c 2,5,-1
 67 432 l 1,6,7
 72 425 72 425 89 417.5 c 128,-1,8
 106 410 106 410 134 410 c 0,9,10
 170 410 170 410 179.5 424 c 128,-1,11
 189 438 189 438 189 455 c 0,12,13
 189 469 189 469 184.5 479 c 128,-1,14
 180 489 180 489 169 489 c 2,15,-1
 104 489 l 1,16,-1
 123 561 l 1,17,-1
 157 561 l 2,18,19
 169 561 169 561 177.5 565.5 c 128,-1,20
 186 570 186 570 190.5 576 c 128,-1,21
 195 582 195 582 197 589 c 128,-1,22
 199 596 199 596 199 601 c 0,23,24
 199 616 199 616 187.5 623 c 128,-1,25
 176 630 176 630 159 630 c 0,26,27
 145 630 145 630 132 626 c 128,-1,28
 119 622 119 622 111 616 c 1,29,-1
 108 681 l 1,30,31
 122 692 122 692 147 699 c 128,-1,32
 172 706 172 706 199 706 c 0,33,34
 223 706 223 706 238.5 700 c 128,-1,35
 254 694 254 694 263.5 683.5 c 128,-1,36
 273 673 273 673 277 660 c 128,-1,37
 281 647 281 647 281 632 c 0,38,39
 281 602 281 602 268.5 573 c 128,-1,40
 256 544 256 544 239 532 c 1,41,42
 263 510 263 510 271 489.5 c 128,-1,43
 279 469 279 469 279 449 c 0,44,45
 279 416 279 416 264.5 390 c 128,-1,46
 250 364 250 364 227.5 347 c 128,-1,47
 205 330 205 330 176.5 321 c 128,-1,48
 148 312 148 312 121 312 c 0,0,1
EndSplineSet
EndChar

StartChar: acute
Encoding: 180 180 115
Width: 291
Flags: W
LayerCount: 2
Back
Fore
SplineSet
159 585 m 1,0,-1
 172 659 l 1,1,-1
 356 750 l 1,2,-1
 338 646 l 1,3,-1
 159 585 l 1,0,-1
EndSplineSet
EndChar

StartChar: mu
Encoding: 181 181 116
Width: 603
Flags: W
LayerCount: 2
Back
Fore
SplineSet
469 -10 m 1,0,-1
 421 -10 l 2,1,2
 385 -10 385 -10 363.5 4 c 128,-1,3
 342 18 342 18 333 42 c 1,4,5
 323 32 323 32 308 23 c 128,-1,6
 293 14 293 14 277 7 c 128,-1,7
 261 0 261 0 245 -4 c 128,-1,8
 229 -8 229 -8 216 -8 c 0,9,10
 193 -8 193 -8 175 -4.5 c 128,-1,11
 157 -1 157 -1 147 6 c 1,12,-1
 104 -242 l 1,13,-1
 -22 -242 l 1,14,-1
 109 500 l 1,15,-1
 234 500 l 1,16,-1
 187 231 l 2,17,18
 181 199 181 199 181 175 c 0,19,20
 181 94 181 94 243 94 c 0,21,22
 267 94 267 94 289 105 c 128,-1,23
 311 116 311 116 326 136 c 1,24,-1
 390 500 l 1,25,-1
 516 500 l 1,26,-1
 458 172 l 2,27,28
 455 153 455 153 453 140.5 c 128,-1,29
 451 128 451 128 451 119 c 0,30,31
 451 100 451 100 458.5 96 c 128,-1,32
 466 92 466 92 483 92 c 2,33,-1
 495 92 l 1,34,-1
 469 -10 l 1,0,-1
EndSplineSet
EndChar

StartChar: paragraph
Encoding: 182 182 117
Width: 607
Flags: W
LayerCount: 2
Back
Fore
SplineSet
520 593 m 1,0,-1
 415 0 l 1,1,-1
 320 0 l 1,2,-1
 425 593 l 1,3,-1
 384 593 l 1,4,-1
 280 0 l 1,5,-1
 207 0 l 1,6,-1
 247 229 l 1,7,8
 200 232 200 232 165 250.5 c 128,-1,9
 130 269 130 269 107 296.5 c 128,-1,10
 84 324 84 324 72.5 359 c 128,-1,11
 61 394 61 394 61 431 c 0,12,13
 61 480 61 480 81.5 528 c 128,-1,14
 102 576 102 576 140.5 614 c 128,-1,15
 179 652 179 652 235.5 676 c 128,-1,16
 292 700 292 700 364 700 c 2,17,-1
 598 700 l 1,18,-1
 579 593 l 1,19,-1
 520 593 l 1,0,-1
EndSplineSet
EndChar

StartChar: periodcentered
Encoding: 183 183 118
Width: 230
Flags: W
LayerCount: 2
Back
Fore
SplineSet
41 213 m 1,0,-1
 64 343 l 1,1,-1
 176 343 l 1,2,-1
 153 213 l 1,3,-1
 41 213 l 1,0,-1
EndSplineSet
EndChar

StartChar: cedilla
Encoding: 184 184 119
Width: 290
Flags: W
LayerCount: 2
Back
Fore
SplineSet
166 -185 m 1,0,-1
 87 -194 l 1,1,-1
 174 -61 l 1,2,-1
 284 -52 l 1,3,-1
 166 -185 l 1,0,-1
EndSplineSet
EndChar

StartChar: onesuperior
Encoding: 185 185 120
Width: 220
Flags: W
LayerCount: 2
Back
Fore
SplineSet
70 320 m 1,0,-1
 115 568 l 1,1,2
 106 565 106 565 83 565 c 1,3,-1
 96 639 l 2,4,5
 100 639 100 639 109 644.5 c 128,-1,6
 118 650 118 650 127.5 658.5 c 128,-1,7
 137 667 137 667 145 677.5 c 128,-1,8
 153 688 153 688 155 698 c 1,9,-1
 231 698 l 1,10,-1
 165 320 l 1,11,-1
 70 320 l 1,0,-1
EndSplineSet
EndChar

StartChar: ordmasculine
Encoding: 186 186 121
Width: 370
Flags: W
LayerCount: 2
Back
Fore
SplineSet
200 434 m 0,0,1
 170 434 170 434 147 444.5 c 128,-1,2
 124 455 124 455 108.5 472 c 128,-1,3
 93 489 93 489 85 512 c 128,-1,4
 77 535 77 535 77 560 c 0,5,6
 77 592 77 592 90 623 c 128,-1,7
 103 654 103 654 126 678 c 128,-1,8
 149 702 149 702 181.5 717 c 128,-1,9
 214 732 214 732 253 732 c 0,10,11
 284 732 284 732 307 721.5 c 128,-1,12
 330 711 330 711 345.5 694 c 128,-1,13
 361 677 361 677 368.5 654.5 c 128,-1,14
 376 632 376 632 376 607 c 0,15,16
 376 575 376 575 363.5 544 c 128,-1,17
 351 513 351 513 328 488.5 c 128,-1,18
 305 464 305 464 272.5 449 c 128,-1,19
 240 434 240 434 200 434 c 0,0,1
239 655 m 0,20,21
 228 655 228 655 217.5 647 c 128,-1,22
 207 639 207 639 199.5 626.5 c 128,-1,23
 192 614 192 614 187.5 598 c 128,-1,24
 183 582 183 582 183 566 c 0,25,26
 183 544 183 544 191 527.5 c 128,-1,27
 199 511 199 511 214 511 c 0,28,29
 225 511 225 511 235.5 519 c 128,-1,30
 246 527 246 527 253.5 539.5 c 128,-1,31
 261 552 261 552 265.5 568 c 128,-1,32
 270 584 270 584 270 600 c 0,33,34
 270 622 270 622 262.5 638.5 c 128,-1,35
 255 655 255 655 239 655 c 0,20,21
EndSplineSet
EndChar

StartChar: guillemotright
Encoding: 187 187 122
Width: 595
Flags: W
LayerCount: 2
Back
Fore
SplineSet
384 78 m 1,0,-1
 233 78 l 1,1,-1
 408 284 l 1,2,-1
 306 490 l 1,3,-1
 456 490 l 1,4,-1
 559 284 l 1,5,-1
 384 78 l 1,0,-1
149 78 m 1,6,-1
 -1 78 l 1,7,-1
 174 284 l 1,8,-1
 72 490 l 1,9,-1
 222 490 l 1,10,-1
 324 284 l 1,11,-1
 149 78 l 1,6,-1
EndSplineSet
EndChar

StartChar: questiondown
Encoding: 191 191 126
Width: 429
Flags: W
LayerCount: 2
Back
Fore
SplineSet
268 300 m 1,0,1
 266 283 266 283 265 273 c 128,-1,2
 264 263 264 263 263 258 c 128,-1,3
 262 253 262 253 261.5 250.5 c 128,-1,4
 261 248 261 248 261 247 c 0,5,6
 252 196 252 196 226 155 c 128,-1,7
 200 114 200 114 172.5 76.5 c 128,-1,8
 145 39 145 39 123.5 1.5 c 128,-1,9
 102 -36 102 -36 102 -81 c 0,10,11
 102 -117 102 -117 119.5 -134.5 c 128,-1,12
 137 -152 137 -152 168 -152 c 0,13,14
 204 -152 204 -152 233.5 -132.5 c 128,-1,15
 263 -113 263 -113 289 -87 c 1,16,-1
 299 -179 l 1,17,18
 267 -216 267 -216 225 -233 c 128,-1,19
 183 -250 183 -250 142 -250 c 0,20,21
 99 -250 99 -250 68.5 -235 c 128,-1,22
 38 -220 38 -220 19 -196 c 128,-1,23
 0 -172 0 -172 -8.5 -143 c 128,-1,24
 -17 -114 -17 -114 -17 -86 c 0,25,26
 -17 -52 -17 -52 -4 -21.5 c 128,-1,27
 9 9 9 9 28.5 37.5 c 128,-1,28
 48 66 48 66 72 94 c 128,-1,29
 96 122 96 122 118 152 c 128,-1,30
 140 182 140 182 157 215 c 128,-1,31
 174 248 174 248 180 287 c 2,32,-1
 182 300 l 1,33,-1
 268 300 l 1,0,1
323 500 m 1,34,-1
 302 376 l 1,35,-1
 177 376 l 1,36,-1
 199 500 l 1,37,-1
 323 500 l 1,34,-1
EndSplineSet
EndChar

StartChar: AE
Encoding: 198 198 133
Width: 843
Flags: W
LayerCount: 2
Back
Fore
SplineSet
439 0 m 1,0,-1
 315 0 l 1,1,-1
 344 169 l 1,2,-1
 178 169 l 1,3,-1
 79 0 l 1,4,-1
 -56 0 l 1,5,-1
 374 700 l 1,6,-1
 823 700 l 1,7,-1
 801 576 l 1,8,-1
 541 576 l 1,9,-1
 514 427 l 1,10,-1
 715 427 l 1,11,-1
 693 303 l 1,12,-1
 493 303 l 1,13,-1
 461 124 l 1,14,-1
 729 124 l 1,15,-1
 707 0 l 1,16,-1
 439 0 l 1,0,-1
416 573 m 1,17,-1
 259 293 l 1,18,-1
 366 293 l 1,19,-1
 416 573 l 1,17,-1
EndSplineSet
EndChar

StartChar: Eth
Encoding: 208 208 143
Width: 716
Flags: W
LayerCount: 2
Back
Fore
SplineSet
32 0 m 1,0,-1
 85 299 l 1,1,-1
 4 299 l 1,2,-1
 21 393 l 1,3,-1
 101 393 l 1,4,-1
 156 700 l 1,5,-1
 394 700 l 2,6,7
 452 700 452 700 499.5 681 c 128,-1,8
 547 662 547 662 580.5 626 c 128,-1,9
 614 590 614 590 632 538 c 128,-1,10
 650 486 650 486 650 420 c 0,11,12
 650 324 650 324 620 246.5 c 128,-1,13
 590 169 590 169 538 114 c 128,-1,14
 486 59 486 59 417 29.5 c 128,-1,15
 348 0 348 0 270 0 c 2,16,-1
 163 0 l 1,17,-1
 32 0 l 1,0,-1
264 577 m 1,18,-1
 231 393 l 1,19,-1
 337 393 l 1,20,-1
 320 299 l 1,21,-1
 215 299 l 1,22,-1
 184 123 l 1,23,-1
 292 123 l 2,24,25
 345 123 345 123 385.5 145 c 128,-1,26
 426 167 426 167 453.5 205.5 c 128,-1,27
 481 244 481 244 495 296.5 c 128,-1,28
 509 349 509 349 509 409 c 0,29,30
 509 487 509 487 475 532 c 128,-1,31
 441 577 441 577 372 577 c 2,32,-1
 264 577 l 1,18,-1
EndSplineSet
EndChar

StartChar: multiply
Encoding: 215 215 150
Width: 442
Flags: W
LayerCount: 2
Back
Fore
SplineSet
270 109 m 1,0,-1
 199 216 l 1,1,-1
 90 109 l 1,2,-1
 36 170 l 1,3,-1
 145 277 l 1,4,-1
 74 384 l 1,5,-1
 149 445 l 1,6,-1
 221 338 l 1,7,-1
 330 445 l 1,8,-1
 384 384 l 1,9,-1
 275 277 l 1,10,-1
 346 170 l 1,11,-1
 270 109 l 1,0,-1
EndSplineSet
EndChar

StartChar: Oslash
Encoding: 216 216 151
Width: 741
Flags: W
LayerCount: 2
Back
Fore
SplineSet
302 -14 m 0,0,1
 262 -14 262 -14 227.5 -4.5 c 128,-1,2
 193 5 193 5 169 22 c 1,3,-1
 130 -31 l 1,4,-1
 -7 -31 l 1,5,-1
 90 87 l 1,6,7
 69 121 69 121 58 171 c 128,-1,8
 47 221 47 221 47 276 c 0,9,10
 47 372 47 372 77.5 452.5 c 128,-1,11
 108 533 108 533 160.5 591 c 128,-1,12
 213 649 213 649 282.5 681.5 c 128,-1,13
 352 714 352 714 430 714 c 0,14,15
 509 714 509 714 558 680 c 1,16,-1
 584 716 l 1,17,-1
 721 716 l 1,18,-1
 638 615 l 1,19,20
 660 581 660 581 672 530.5 c 128,-1,21
 684 480 684 480 684 423 c 0,22,23
 684 327 684 327 653.5 246.5 c 128,-1,24
 623 166 623 166 571 108.5 c 128,-1,25
 519 51 519 51 449.5 18.5 c 128,-1,26
 380 -14 380 -14 302 -14 c 0,0,1
259 126 m 1,27,28
 267 118 267 118 284 113.5 c 128,-1,29
 301 109 301 109 323 109 c 0,30,31
 375 109 375 109 416.5 133.5 c 128,-1,32
 458 158 458 158 486.5 200.5 c 128,-1,33
 515 243 515 243 530 299.5 c 128,-1,34
 545 356 545 356 545 419 c 0,35,36
 545 440 545 440 543.5 463.5 c 128,-1,37
 542 487 542 487 539 502 c 1,38,-1
 259 126 l 1,27,28
408 591 m 0,39,40
 355 591 355 591 314 566.5 c 128,-1,41
 273 542 273 542 244.5 499 c 128,-1,42
 216 456 216 456 201 399 c 128,-1,43
 186 342 186 342 186 278 c 0,44,45
 186 259 186 259 187 237.5 c 128,-1,46
 188 216 188 216 190 202 c 1,47,-1
 467 575 l 1,48,49
 459 583 459 583 443.5 587 c 128,-1,50
 428 591 428 591 408 591 c 0,39,40
EndSplineSet
EndChar

StartChar: Thorn
Encoding: 222 222 157
Width: 550
Flags: W
LayerCount: 2
Back
Fore
SplineSet
172 114 m 1,0,-1
 152 0 l 1,1,-1
 26 0 l 1,2,-1
 149 700 l 1,3,-1
 275 700 l 1,4,-1
 255 584 l 1,5,-1
 297 584 l 2,6,7
 361 584 361 584 409.5 578 c 128,-1,8
 458 572 458 572 491 554.5 c 128,-1,9
 524 537 524 537 540.5 505 c 128,-1,10
 557 473 557 473 557 421 c 0,11,12
 557 328 557 328 527.5 268 c 128,-1,13
 498 208 498 208 455 174 c 128,-1,14
 412 140 412 140 362.5 127 c 128,-1,15
 313 114 313 114 274 114 c 2,16,-1
 172 114 l 1,0,-1
236 477 m 1,17,-1
 193 234 l 1,18,-1
 280 234 l 2,19,20
 323 234 323 234 351 244.5 c 128,-1,21
 379 255 379 255 395.5 275.5 c 128,-1,22
 412 296 412 296 418.5 326.5 c 128,-1,23
 425 357 425 357 425 398 c 0,24,25
 425 438 425 438 404.5 457.5 c 128,-1,26
 384 477 384 477 330 477 c 2,27,-1
 236 477 l 1,17,-1
EndSplineSet
EndChar

StartChar: germandbls
Encoding: 223 223 158
Width: 553
Flags: W
LayerCount: 2
Back
Fore
SplineSet
249 -10 m 0,0,1
 238 -10 238 -10 223 -9 c 128,-1,2
 208 -8 208 -8 192 -5 c 1,3,-1
 209 92 l 1,4,5
 248 92 248 92 275.5 93.5 c 128,-1,6
 303 95 303 95 319.5 102.5 c 128,-1,7
 336 110 336 110 343.5 127 c 128,-1,8
 351 144 351 144 351 176 c 256,9,10
 351 208 351 208 338.5 231 c 128,-1,11
 326 254 326 254 310.5 273.5 c 128,-1,12
 295 293 295 293 282.5 311.5 c 128,-1,13
 270 330 270 330 270 351 c 0,14,15
 270 376 270 376 287 398 c 128,-1,16
 304 420 304 420 325 445 c 128,-1,17
 346 470 346 470 363 501.5 c 128,-1,18
 380 533 380 533 380 578 c 0,19,20
 380 615 380 615 364.5 630.5 c 128,-1,21
 349 646 349 646 330 646 c 0,22,23
 301 646 301 646 284.5 625 c 128,-1,24
 268 604 268 604 260 560 c 2,25,-1
 137 -136 l 1,26,-1
 12 -136 l 1,27,-1
 106 398 l 1,28,-1
 48 398 l 1,29,-1
 75 500 l 1,30,-1
 124 500 l 1,31,-1
 134 555 l 2,32,33
 151 646 151 646 204.5 698 c 128,-1,34
 258 750 258 750 349 750 c 0,35,36
 371 750 371 750 397.5 741 c 128,-1,37
 424 732 424 732 446.5 713 c 128,-1,38
 469 694 469 694 484.5 664.5 c 128,-1,39
 500 635 500 635 500 593 c 0,40,41
 500 544 500 544 484.5 507 c 128,-1,42
 469 470 469 470 451 442.5 c 128,-1,43
 433 415 433 415 417.5 396 c 128,-1,44
 402 377 402 377 402 364 c 256,45,46
 402 351 402 351 414 337 c 128,-1,47
 426 323 426 323 441 303.5 c 128,-1,48
 456 284 456 284 468 256 c 128,-1,49
 480 228 480 228 480 188 c 0,50,51
 480 133 480 133 461 95.5 c 128,-1,52
 442 58 442 58 410 34.5 c 128,-1,53
 378 11 378 11 336.5 0.5 c 128,-1,54
 295 -10 295 -10 249 -10 c 0,0,1
EndSplineSet
EndChar

StartChar: ae
Encoding: 230 230 165
Width: 768
Flags: W
LayerCount: 2
Back
Fore
SplineSet
395 223 m 1,0,1
 396 188 396 188 404.5 163 c 128,-1,2
 413 138 413 138 426.5 122.5 c 128,-1,3
 440 107 440 107 457.5 99.5 c 128,-1,4
 475 92 475 92 493 92 c 0,5,6
 508 92 508 92 529 95.5 c 128,-1,7
 550 99 550 99 571.5 104.5 c 128,-1,8
 593 110 593 110 612.5 117.5 c 128,-1,9
 632 125 632 125 646 133 c 1,10,-1
 629 28 l 1,11,12
 603 13 603 13 561.5 1.5 c 128,-1,13
 520 -10 520 -10 471 -10 c 0,14,15
 401 -10 401 -10 360.5 16 c 128,-1,16
 320 42 320 42 308 84 c 1,17,18
 288 63 288 63 268.5 45 c 128,-1,19
 249 27 249 27 227 13.5 c 128,-1,20
 205 0 205 0 179 -7.5 c 128,-1,21
 153 -15 153 -15 122 -15 c 0,22,23
 59 -15 59 -15 25 16.5 c 128,-1,24
 -9 48 -9 48 -9 102 c 0,25,26
 -9 146 -9 146 6 178 c 128,-1,27
 21 210 21 210 45 233.5 c 128,-1,28
 69 257 69 257 99 272 c 128,-1,29
 129 287 129 287 160.5 296 c 128,-1,30
 192 305 192 305 221.5 309 c 128,-1,31
 251 313 251 313 273 314 c 1,32,33
 277 333 277 333 277 350 c 0,34,35
 277 376 277 376 263 388.5 c 128,-1,36
 249 401 249 401 217 401 c 256,37,38
 185 401 185 401 154 392 c 128,-1,39
 123 383 123 383 81 363 c 1,40,-1
 88 464 l 1,41,42
 181 508 181 508 268 508 c 0,43,44
 298 508 298 508 318.5 504 c 128,-1,45
 339 500 339 500 352.5 489.5 c 128,-1,46
 366 479 366 479 373.5 462 c 128,-1,47
 381 445 381 445 386 419 c 1,48,49
 392 435 392 435 407 451 c 128,-1,50
 422 467 422 467 444 479.5 c 128,-1,51
 466 492 466 492 493.5 500 c 128,-1,52
 521 508 521 508 552 508 c 0,53,54
 620 508 620 508 659.5 461.5 c 128,-1,55
 699 415 699 415 699 336 c 0,56,57
 699 310 699 310 694 285.5 c 128,-1,58
 689 261 689 261 673 223 c 1,59,-1
 395 223 l 1,0,1
530 406 m 0,60,61
 491 406 491 406 458 378.5 c 128,-1,62
 425 351 425 351 411 307 c 1,63,-1
 587 307 l 1,64,65
 590 323 590 323 590 340 c 0,66,67
 590 366 590 366 577.5 386 c 128,-1,68
 565 406 565 406 530 406 c 0,60,61
266 230 m 1,69,70
 245 230 245 230 220.5 224 c 128,-1,71
 196 218 196 218 175 206 c 128,-1,72
 154 194 154 194 140 174.5 c 128,-1,73
 126 155 126 155 126 127 c 0,74,75
 126 106 126 106 136.5 93.5 c 128,-1,76
 147 81 147 81 164 81 c 0,77,78
 178 81 178 81 194.5 90.5 c 128,-1,79
 211 100 211 100 225.5 118.5 c 128,-1,80
 240 137 240 137 251.5 165 c 128,-1,81
 263 193 263 193 266 230 c 1,69,70
EndSplineSet
Substitution2: "'smcp' Lowercase to Small Capitals in Latin lookup 1 subtable" AE.sc
Substitution2: "'aalt' Access All Alternates in Latin lookup 0 subtable" AE.sc
EndChar

StartChar: eth
Encoding: 240 240 175
Width: 500
Flags: W
LayerCount: 2
Back
Fore
SplineSet
173 -13 m 0,0,1
 135 -13 135 -13 103.5 0.5 c 128,-1,2
 72 14 72 14 49.5 38 c 128,-1,3
 27 62 27 62 14.5 95.5 c 128,-1,4
 2 129 2 129 2 169 c 0,5,6
 2 214 2 214 18.5 259.5 c 128,-1,7
 35 305 35 305 65.5 342 c 128,-1,8
 96 379 96 379 139.5 402.5 c 128,-1,9
 183 426 183 426 236 426 c 0,10,11
 271 426 271 426 291 414.5 c 128,-1,12
 311 403 311 403 328 387 c 1,13,14
 328 392 328 392 328.5 397 c 128,-1,15
 329 402 329 402 329 407 c 0,16,17
 329 423 329 423 327 443 c 128,-1,18
 325 463 325 463 321.5 481.5 c 128,-1,19
 318 500 318 500 312.5 515.5 c 128,-1,20
 307 531 307 531 300 538 c 1,21,22
 271 515 271 515 237.5 500 c 128,-1,23
 204 485 204 485 168 481 c 1,24,-1
 143 554 l 1,25,26
 166 554 166 554 196 566 c 128,-1,27
 226 578 226 578 255 598 c 1,28,29
 237 621 237 621 211.5 632 c 128,-1,30
 186 643 186 643 159 648 c 1,31,-1
 209 701 l 1,32,33
 279 700 279 700 328 649 c 1,34,35
 344 664 344 664 360.5 679.5 c 128,-1,36
 377 695 377 695 389 711 c 1,37,-1
 454 695 l 1,38,39
 434 669 434 669 414.5 645.5 c 128,-1,40
 395 622 395 622 376 601 c 1,41,42
 403 556 403 556 419 488 c 128,-1,43
 435 420 435 420 435 345 c 0,44,45
 435 240 435 240 410 170.5 c 128,-1,46
 385 101 385 101 346.5 60.5 c 128,-1,47
 308 20 308 20 262 3.5 c 128,-1,48
 216 -13 216 -13 173 -13 c 0,0,1
230 329 m 0,49,50
 202 329 202 329 181 316 c 128,-1,51
 160 303 160 303 146 283 c 128,-1,52
 132 263 132 263 125 237.5 c 128,-1,53
 118 212 118 212 118 187 c 0,54,55
 118 147 118 147 135 117.5 c 128,-1,56
 152 88 152 88 192 88 c 0,57,58
 210 88 210 88 230.5 96.5 c 128,-1,59
 251 105 251 105 268.5 123 c 128,-1,60
 286 141 286 141 297.5 169.5 c 128,-1,61
 309 198 309 198 309 238 c 0,62,63
 309 281 309 281 290 305 c 128,-1,64
 271 329 271 329 230 329 c 0,49,50
EndSplineSet
EndChar

StartChar: divide
Encoding: 247 247 182
Width: 543
Flags: W
LayerCount: 2
Back
Fore
SplineSet
210 404 m 1,0,-1
 233 534 l 1,1,-1
 358 534 l 1,2,-1
 335 404 l 1,3,-1
 210 404 l 1,0,-1
38 230 m 1,4,-1
 55 324 l 1,5,-1
 469 324 l 1,6,-1
 452 230 l 1,7,-1
 38 230 l 1,4,-1
142 20 m 1,8,-1
 165 150 l 1,9,-1
 290 150 l 1,10,-1
 267 20 l 1,11,-1
 142 20 l 1,8,-1
EndSplineSet
EndChar

StartChar: oslash
Encoding: 248 248 183
Width: 545
Flags: W
LayerCount: 2
Back
Fore
SplineSet
204 -10 m 0,0,1
 170 -10 170 -10 149 -2 c 1,2,-1
 130 -36 l 1,3,-1
 21 -36 l 1,4,-1
 68 39 l 1,5,6
 43 66 43 66 30 109 c 128,-1,7
 17 152 17 152 17 200 c 0,8,9
 17 260 17 260 37 315.5 c 128,-1,10
 57 371 57 371 94 414 c 128,-1,11
 131 457 131 457 182.5 482.5 c 128,-1,12
 234 508 234 508 296 508 c 0,13,14
 329 508 329 508 348 500 c 1,15,-1
 368 534 l 1,16,-1
 479 534 l 1,17,-1
 432 459 l 1,18,19
 457 431 457 431 470 388 c 128,-1,20
 483 345 483 345 483 297 c 0,21,22
 483 237 483 237 462.5 182 c 128,-1,23
 442 127 442 127 405.5 84 c 128,-1,24
 369 41 369 41 317.5 15.5 c 128,-1,25
 266 -10 266 -10 204 -10 c 0,0,1
214 94 m 2,26,27
 216 92 216 92 222 92 c 0,28,29
 252 92 252 92 277 108 c 128,-1,30
 302 124 302 124 320 152.5 c 128,-1,31
 338 181 338 181 348 220 c 128,-1,32
 358 259 358 259 358 306 c 0,33,34
 358 316 358 316 357.5 328.5 c 128,-1,35
 357 341 357 341 357 349 c 2,36,-1
 214 94 l 2,26,27
279 406 m 0,37,38
 249 406 249 406 223.5 390 c 128,-1,39
 198 374 198 374 180 344.5 c 128,-1,40
 162 315 162 315 151.5 274 c 128,-1,41
 141 233 141 233 141 184 c 0,42,43
 141 176 141 176 141.5 165 c 128,-1,44
 142 154 142 154 142 149 c 2,45,-1
 283 404 l 2,46,47
 283 406 283 406 279 406 c 0,37,38
EndSplineSet
EndChar

StartChar: thorn
Encoding: 254 254 189
Width: 557
Flags: W
LayerCount: 2
Back
Fore
SplineSet
222 -10 m 0,0,1
 191 -10 191 -10 174 -1.5 c 128,-1,2
 157 7 157 7 137 24 c 1,3,-1
 90 -242 l 1,4,-1
 -35 -242 l 1,5,-1
 140 750 l 1,6,-1
 265 750 l 1,7,-1
 216 475 l 1,8,9
 237 491 237 491 258 499.5 c 128,-1,10
 279 508 279 508 311 508 c 0,11,12
 358 508 358 508 392.5 491.5 c 128,-1,13
 427 475 427 475 449.5 447 c 128,-1,14
 472 419 472 419 483 381.5 c 128,-1,15
 494 344 494 344 494 301 c 0,16,17
 494 241 494 241 475.5 185 c 128,-1,18
 457 129 457 129 421.5 85.5 c 128,-1,19
 386 42 386 42 335.5 16 c 128,-1,20
 285 -10 285 -10 222 -10 c 0,0,1
289 406 m 0,21,22
 259 406 259 406 236 388.5 c 128,-1,23
 213 371 213 371 197.5 342 c 128,-1,24
 182 313 182 313 174 276 c 128,-1,25
 166 239 166 239 166 200 c 0,26,27
 166 152 166 152 182 122 c 128,-1,28
 198 92 198 92 233 92 c 0,29,30
 261 92 261 92 285.5 108 c 128,-1,31
 310 124 310 124 327.5 151 c 128,-1,32
 345 178 345 178 355 214 c 128,-1,33
 365 250 365 250 365 291 c 0,34,35
 365 342 365 342 345.5 374 c 128,-1,36
 326 406 326 406 289 406 c 0,21,22
EndSplineSet
EndChar

StartChar: dotlessi
Encoding: 305 305 193
Width: 242
Flags: W
LayerCount: 2
Back
Fore
SplineSet
7 0 m 1,0,-1
 95 500 l 1,1,-1
 220 500 l 1,2,-1
 132 0 l 1,3,-1
 7 0 l 1,0,-1
EndSplineSet
EndChar

StartChar: OE
Encoding: 338 338 194
Width: 1029
Flags: W
LayerCount: 2
Back
Fore
SplineSet
619 0 m 1,0,-1
 480 0 l 1,1,-1
 490 55 l 1,2,3
 455 22 455 22 405 4 c 128,-1,4
 355 -14 355 -14 299 -14 c 0,5,6
 240 -14 240 -14 193 7 c 128,-1,7
 146 28 146 28 112 66 c 128,-1,8
 78 104 78 104 60 158.5 c 128,-1,9
 42 213 42 213 42 279 c 0,10,11
 42 375 42 375 73 454.5 c 128,-1,12
 104 534 104 534 156.5 592 c 128,-1,13
 209 650 209 650 279 682 c 128,-1,14
 349 714 349 714 427 714 c 0,15,16
 484 714 484 714 527.5 696 c 128,-1,17
 571 678 571 678 594 645 c 1,18,-1
 604 700 l 1,19,-1
 998 700 l 1,20,-1
 976 576 l 1,21,-1
 715 576 l 1,22,-1
 689 427 l 1,23,-1
 890 427 l 1,24,-1
 869 303 l 1,25,-1
 667 303 l 1,26,-1
 636 124 l 1,27,-1
 905 124 l 1,28,-1
 883 0 l 1,29,-1
 619 0 l 1,0,-1
406 591 m 0,30,31
 353 591 353 591 312 566.5 c 128,-1,32
 271 542 271 542 243 500.5 c 128,-1,33
 215 459 215 459 200 404 c 128,-1,34
 185 349 185 349 185 289 c 0,35,36
 185 250 185 250 193.5 217 c 128,-1,37
 202 184 202 184 218.5 160 c 128,-1,38
 235 136 235 136 260.5 122.5 c 128,-1,39
 286 109 286 109 321 109 c 0,40,41
 373 109 373 109 414 133.5 c 128,-1,42
 455 158 455 158 483.5 199.5 c 128,-1,43
 512 241 512 241 527 296 c 128,-1,44
 542 351 542 351 542 411 c 0,45,46
 542 450 542 450 533.5 483 c 128,-1,47
 525 516 525 516 508.5 540 c 128,-1,48
 492 564 492 564 466 577.5 c 128,-1,49
 440 591 440 591 406 591 c 0,30,31
EndSplineSet
EndChar

StartChar: oe
Encoding: 339 339 195
Width: 864
Flags: W
LayerCount: 2
Back
Fore
SplineSet
482 223 m 1,0,1
 484 153 484 153 513 122.5 c 128,-1,2
 542 92 542 92 589 92 c 0,3,4
 604 92 604 92 622.5 95.5 c 128,-1,5
 641 99 641 99 661 104.5 c 128,-1,6
 681 110 681 110 700.5 117.5 c 128,-1,7
 720 125 720 125 735 133 c 1,8,-1
 720 28 l 1,9,10
 691 13 691 13 649.5 1.5 c 128,-1,11
 608 -10 608 -10 558 -10 c 0,12,13
 504 -10 504 -10 460.5 11.5 c 128,-1,14
 417 33 417 33 389 71 c 1,15,16
 349 33 349 33 305.5 11.5 c 128,-1,17
 262 -10 262 -10 207 -10 c 0,18,19
 160 -10 160 -10 124.5 6.5 c 128,-1,20
 89 23 89 23 65 52 c 128,-1,21
 41 81 41 81 29 119.5 c 128,-1,22
 17 158 17 158 17 202 c 0,23,24
 17 261 17 261 37.5 316.5 c 128,-1,25
 58 372 58 372 95 414.5 c 128,-1,26
 132 457 132 457 183.5 482.5 c 128,-1,27
 235 508 235 508 297 508 c 0,28,29
 354 508 354 508 389.5 486.5 c 128,-1,30
 425 465 425 465 451 429 c 1,31,32
 486 465 486 465 526 486.5 c 128,-1,33
 566 508 566 508 623 508 c 0,34,35
 660 508 660 508 691 495.5 c 128,-1,36
 722 483 722 483 744 459.5 c 128,-1,37
 766 436 766 436 778 403 c 128,-1,38
 790 370 790 370 790 330 c 0,39,40
 790 297 790 297 783 273.5 c 128,-1,41
 776 250 776 250 765 223 c 1,42,-1
 482 223 l 1,0,1
611 406 m 0,43,44
 569 406 569 406 541.5 378 c 128,-1,45
 514 350 514 350 500 307 c 1,46,-1
 662 307 l 1,47,48
 666 323 666 323 666 345 c 0,49,50
 666 369 666 369 654.5 387.5 c 128,-1,51
 643 406 643 406 611 406 c 0,43,44
279 406 m 0,52,53
 250 406 250 406 225.5 390.5 c 128,-1,54
 201 375 201 375 183 348 c 128,-1,55
 165 321 165 321 155 285 c 128,-1,56
 145 249 145 249 145 208 c 0,57,58
 145 156 145 156 165.5 124 c 128,-1,59
 186 92 186 92 224 92 c 0,60,61
 252 92 252 92 277 107.5 c 128,-1,62
 302 123 302 123 320 149.5 c 128,-1,63
 338 176 338 176 348.5 212 c 128,-1,64
 359 248 359 248 359 290 c 0,65,66
 359 342 359 342 339 374 c 128,-1,67
 319 406 319 406 279 406 c 0,52,53
EndSplineSet
Substitution2: "'smcp' Lowercase to Small Capitals in Latin lookup 1 subtable" OE.sc
Substitution2: "'aalt' Access All Alternates in Latin lookup 0 subtable" OE.sc
EndChar

StartChar: florin
Encoding: 402 402 201
Width: 349
Flags: W
LayerCount: 2
Back
Fore
SplineSet
391 608 m 1,0,1
 377 611 377 611 365.5 613 c 128,-1,2
 354 615 354 615 343 615 c 0,3,4
 327 615 327 615 315 609 c 128,-1,5
 303 603 303 603 293.5 589.5 c 128,-1,6
 284 576 284 576 275 554 c 128,-1,7
 266 532 266 532 256 500 c 1,8,-1
 363 500 l 1,9,-1
 340 418 l 1,10,-1
 229 418 l 1,11,-1
 74 -81 l 2,12,13
 60 -126 60 -126 41.5 -157 c 128,-1,14
 23 -188 23 -188 4 -207 c 128,-1,15
 -15 -226 -15 -226 -33.5 -234 c 128,-1,16
 -52 -242 -52 -242 -66 -242 c 2,17,-1
 -101 -242 l 1,18,-1
 -105 -140 l 1,19,20
 -92 -140 -92 -140 -81.5 -137 c 128,-1,21
 -71 -134 -71 -134 -62 -125.5 c 128,-1,22
 -53 -117 -53 -117 -45 -101.5 c 128,-1,23
 -37 -86 -37 -86 -29 -60 c 2,24,-1
 115 418 l 1,25,-1
 51 418 l 1,26,-1
 74 500 l 1,27,-1
 141 500 l 1,28,-1
 153 539 l 2,29,30
 179 621 179 621 233 667.5 c 128,-1,31
 287 714 287 714 351 714 c 0,32,33
 386 714 386 714 419 702 c 1,34,-1
 391 608 l 1,0,1
EndSplineSet
EndChar

StartChar: uni0237
Encoding: 567 567 202
Width: 243
Flags: W
LayerCount: 2
Back
Fore
SplineSet
-80 -242 m 1,0,-1
 -72 -140 l 1,1,2
 -55 -140 -55 -140 -45 -138.5 c 128,-1,3
 -35 -137 -35 -137 -29 -129.5 c 128,-1,4
 -23 -122 -23 -122 -18.5 -106 c 128,-1,5
 -14 -90 -14 -90 -9 -60 c 2,6,-1
 90 500 l 1,7,-1
 215 500 l 1,8,-1
 107 -111 l 2,9,10
 102 -138 102 -138 93 -162 c 128,-1,11
 84 -186 84 -186 67.5 -203.5 c 128,-1,12
 51 -221 51 -221 26.5 -231.5 c 128,-1,13
 2 -242 2 -242 -34 -242 c 2,14,-1
 -80 -242 l 1,0,-1
EndSplineSet
EndChar

StartChar: circumflex
Encoding: 710 710 203
Width: 428
Flags: W
LayerCount: 2
Back
Fore
SplineSet
321 656 m 1,0,-1
 176 585 l 1,1,-1
 189 659 l 1,2,-1
 337 750 l 1,3,-1
 454 659 l 1,4,-1
 441 585 l 1,5,-1
 321 656 l 1,0,-1
EndSplineSet
EndChar

StartChar: caron
Encoding: 711 711 204
Width: 428
Flags: W
LayerCount: 2
Back
Fore
SplineSet
308 585 m 1,0,-1
 192 676 l 1,1,-1
 205 750 l 1,2,-1
 325 679 l 1,3,-1
 470 750 l 1,4,-1
 457 676 l 1,5,-1
 308 585 l 1,0,-1
EndSplineSet
EndChar

StartChar: ring
Encoding: 730 730 205
Width: 281
Flags: W
LayerCount: 2
Back
Fore
SplineSet
236 576 m 0,0,1
 199 576 199 576 177.5 598 c 128,-1,2
 156 620 156 620 156 652 c 0,3,4
 156 672 156 672 164.5 690.5 c 128,-1,5
 173 709 173 709 188 723.5 c 128,-1,6
 203 738 203 738 223.5 746.5 c 128,-1,7
 244 755 244 755 267 755 c 0,8,9
 305 755 305 755 325.5 733 c 128,-1,10
 346 711 346 711 346 679 c 0,11,12
 346 658 346 658 337.5 639.5 c 128,-1,13
 329 621 329 621 314.5 607 c 128,-1,14
 300 593 300 593 280 584.5 c 128,-1,15
 260 576 260 576 236 576 c 0,0,1
258 706 m 0,16,17
 241 706 241 706 229 691.5 c 128,-1,18
 217 677 217 677 217 656 c 0,19,20
 217 642 217 642 224 633 c 128,-1,21
 231 624 231 624 244 624 c 0,22,23
 262 624 262 624 274 638 c 128,-1,24
 286 652 286 652 286 673 c 0,25,26
 286 688 286 688 278.5 697 c 128,-1,27
 271 706 271 706 258 706 c 0,16,17
EndSplineSet
EndChar

StartChar: tilde
Encoding: 732 732 206
Width: 507
Flags: W
LayerCount: 2
Back
Fore
SplineSet
416 599 m 0,0,1
 395 599 395 599 381.5 605.5 c 128,-1,2
 368 612 368 612 356.5 620 c 128,-1,3
 345 628 345 628 334.5 634.5 c 128,-1,4
 324 641 324 641 311 641 c 0,5,6
 293 641 293 641 282.5 625 c 128,-1,7
 272 609 272 609 268 594 c 1,8,-1
 179 614 l 1,9,10
 185 639 185 639 199 658 c 128,-1,11
 213 677 213 677 232.5 690 c 128,-1,12
 252 703 252 703 274.5 709.5 c 128,-1,13
 297 716 297 716 318 716 c 0,14,15
 341 716 341 716 353 709.5 c 128,-1,16
 365 703 365 703 373 695 c 128,-1,17
 381 687 381 687 388 680.5 c 128,-1,18
 395 674 395 674 408 674 c 0,19,20
 429 674 429 674 445 690 c 128,-1,21
 461 706 461 706 463 721 c 1,22,-1
 544 701 l 1,23,24
 539 682 539 682 528 664 c 128,-1,25
 517 646 517 646 500.5 631.5 c 128,-1,26
 484 617 484 617 462.5 608 c 128,-1,27
 441 599 441 599 416 599 c 0,0,1
EndSplineSet
EndChar

StartChar: endash
Encoding: 8211 8211 207
Width: 484
Flags: W
LayerCount: 2
Back
Fore
SplineSet
44 230 m 1,0,-1
 61 324 l 1,1,-1
 410 324 l 1,2,-1
 393 230 l 1,3,-1
 44 230 l 1,0,-1
EndSplineSet
EndChar

StartChar: emdash
Encoding: 8212 8212 208
Width: 571
Flags: W
LayerCount: 2
Back
Fore
SplineSet
44 230 m 1,0,-1
 61 324 l 1,1,-1
 493 324 l 1,2,-1
 476 230 l 1,3,-1
 44 230 l 1,0,-1
EndSplineSet
EndChar

StartChar: quoteleft
Encoding: 8216 8216 209
Width: 211
Flags: W
LayerCount: 2
Back
Fore
SplineSet
219 750 m 1,0,-1
 241 736 l 1,1,-1
 197 650 l 1,2,-1
 225 640 l 1,3,-1
 202 510 l 1,4,-1
 81 510 l 1,5,-1
 104 640 l 1,6,-1
 219 750 l 1,0,-1
EndSplineSet
EndChar

StartChar: quoteright
Encoding: 8217 8217 210
Width: 194
Flags: W
LayerCount: 2
Back
Fore
SplineSet
104 510 m 1,0,-1
 82 524 l 1,1,-1
 126 610 l 1,2,-1
 99 620 l 1,3,-1
 121 750 l 1,4,-1
 242 750 l 1,5,-1
 219 620 l 1,6,-1
 104 510 l 1,0,-1
EndSplineSet
EndChar

StartChar: quotesinglbase
Encoding: 8218 8218 211
Width: 234
Flags: W
LayerCount: 2
Back
Fore
SplineSet
9 -110 m 1,0,-1
 -13 -96 l 1,1,-1
 31 -10 l 1,2,-1
 4 0 l 1,3,-1
 26 130 l 1,4,-1
 147 130 l 1,5,-1
 124 0 l 1,6,-1
 9 -110 l 1,0,-1
EndSplineSet
EndChar

StartChar: quotedblleft
Encoding: 8220 8220 212
Width: 412
Flags: W
LayerCount: 2
Back
Fore
SplineSet
219 750 m 1,0,-1
 241 736 l 1,1,-1
 197 650 l 1,2,-1
 225 640 l 1,3,-1
 202 510 l 1,4,-1
 81 510 l 1,5,-1
 104 640 l 1,6,-1
 219 750 l 1,0,-1
408 750 m 1,7,-1
 430 736 l 1,8,-1
 386 650 l 1,9,-1
 414 640 l 1,10,-1
 391 510 l 1,11,-1
 270 510 l 1,12,-1
 293 640 l 1,13,-1
 408 750 l 1,7,-1
EndSplineSet
EndChar

StartChar: quotedblright
Encoding: 8221 8221 213
Width: 396
Flags: W
LayerCount: 2
Back
Fore
SplineSet
293 510 m 1,0,-1
 271 524 l 1,1,-1
 315 610 l 1,2,-1
 288 620 l 1,3,-1
 310 750 l 1,4,-1
 431 750 l 1,5,-1
 408 620 l 1,6,-1
 293 510 l 1,0,-1
104 510 m 1,7,-1
 82 524 l 1,8,-1
 126 610 l 1,9,-1
 99 620 l 1,10,-1
 121 750 l 1,11,-1
 242 750 l 1,12,-1
 219 620 l 1,13,-1
 104 510 l 1,7,-1
EndSplineSet
EndChar

StartChar: quotedblbase
Encoding: 8222 8222 214
Width: 455
Flags: W
LayerCount: 2
Back
Fore
SplineSet
9 -110 m 1,0,-1
 -13 -96 l 1,1,-1
 31 -10 l 1,2,-1
 4 0 l 1,3,-1
 26 130 l 1,4,-1
 147 130 l 1,5,-1
 124 0 l 1,6,-1
 9 -110 l 1,0,-1
216 -110 m 1,7,-1
 194 -96 l 1,8,-1
 238 -10 l 1,9,-1
 211 0 l 1,10,-1
 233 130 l 1,11,-1
 354 130 l 1,12,-1
 331 0 l 1,13,-1
 216 -110 l 1,7,-1
EndSplineSet
EndChar

StartChar: dagger
Encoding: 8224 8224 215
Width: 413
Flags: W
LayerCount: 2
Back
Fore
SplineSet
262 375 m 1,0,-1
 262 257 l 1,1,-1
 190 0 l 1,2,-1
 97 0 l 1,3,-1
 116 257 l 1,4,-1
 158 375 l 1,5,-1
 46 349 l 1,6,-1
 69 481 l 1,7,-1
 176 454 l 1,8,-1
 176 607 l 1,9,-1
 326 607 l 1,10,-1
 275 454 l 1,11,-1
 388 481 l 1,12,-1
 365 349 l 1,13,-1
 262 375 l 1,0,-1
EndSplineSet
EndChar

StartChar: daggerdbl
Encoding: 8225 8225 216
Width: 461
Flags: W
LayerCount: 2
Back
Fore
SplineSet
233 94 m 1,0,-1
 233 -59 l 1,1,-1
 83 -59 l 1,2,-1
 134 94 l 1,3,-1
 21 67 l 1,4,-1
 44 199 l 1,5,-1
 143 173 l 1,6,-1
 143 274 l 1,7,-1
 182 375 l 1,8,-1
 71 349 l 1,9,-1
 94 481 l 1,10,-1
 200 454 l 1,11,-1
 200 607 l 1,12,-1
 351 607 l 1,13,-1
 300 454 l 1,14,-1
 413 481 l 1,15,-1
 389 349 l 1,16,-1
 290 375 l 1,17,-1
 290 274 l 1,18,-1
 252 173 l 1,19,-1
 363 199 l 1,20,-1
 340 67 l 1,21,-1
 233 94 l 1,0,-1
EndSplineSet
EndChar

StartChar: bullet
Encoding: 8226 8226 217
Width: 292
Flags: W
LayerCount: 2
Back
Fore
SplineSet
117 169 m 0,0,1
 81 169 81 169 58.5 196 c 128,-1,2
 36 223 36 223 36 261 c 0,3,4
 36 286 36 286 46 309 c 128,-1,5
 56 332 56 332 73 349.5 c 128,-1,6
 90 367 90 367 111 377 c 128,-1,7
 132 387 132 387 155 387 c 0,8,9
 191 387 191 387 213.5 360 c 128,-1,10
 236 333 236 333 236 295 c 0,11,12
 236 269 236 269 226 246.5 c 128,-1,13
 216 224 216 224 199 206.5 c 128,-1,14
 182 189 182 189 160.5 179 c 128,-1,15
 139 169 139 169 117 169 c 0,0,1
EndSplineSet
EndChar

StartChar: ellipsis
Encoding: 8230 8230 218
Width: 688
Flags: W
LayerCount: 2
Back
Fore
SplineSet
4 0 m 1,0,-1
 27 130 l 1,1,-1
 152 130 l 1,2,-1
 129 0 l 1,3,-1
 4 0 l 1,0,-1
216 0 m 1,4,-1
 239 130 l 1,5,-1
 364 130 l 1,6,-1
 341 0 l 1,7,-1
 216 0 l 1,4,-1
429 0 m 1,8,-1
 452 130 l 1,9,-1
 577 130 l 1,10,-1
 554 0 l 1,11,-1
 429 0 l 1,8,-1
EndSplineSet
EndChar

StartChar: perthousand
Encoding: 8240 8240 219
Width: 1164
Flags: W
LayerCount: 2
Back
Fore
SplineSet
185 -12 m 1,0,-1
 80 -12 l 1,1,-1
 586 700 l 1,2,-1
 691 700 l 1,3,-1
 185 -12 l 1,0,-1
181 335 m 0,4,5
 129 335 129 335 100.5 373 c 128,-1,6
 72 411 72 411 72 474 c 0,7,8
 72 525 72 525 86.5 567.5 c 128,-1,9
 101 610 101 610 126 640 c 128,-1,10
 151 670 151 670 183 687 c 128,-1,11
 215 704 215 704 251 704 c 0,12,13
 302 704 302 704 331 666.5 c 128,-1,14
 360 629 360 629 360 564 c 0,15,16
 360 515 360 515 346.5 473 c 128,-1,17
 333 431 333 431 309.5 400.5 c 128,-1,18
 286 370 286 370 253 352.5 c 128,-1,19
 220 335 220 335 181 335 c 0,4,5
237 632 m 0,20,21
 224 632 224 632 209.5 622.5 c 128,-1,22
 195 613 195 613 182.5 594 c 128,-1,23
 170 575 170 575 161.5 546.5 c 128,-1,24
 153 518 153 518 153 479 c 0,25,26
 153 442 153 442 164.5 424.5 c 128,-1,27
 176 407 176 407 195 407 c 0,28,29
 232 407 232 407 255.5 447 c 128,-1,30
 279 487 279 487 279 558 c 0,31,32
 279 596 279 596 266.5 614 c 128,-1,33
 254 632 254 632 237 632 c 0,20,21
543 -9 m 0,34,35
 490 -9 490 -9 461.5 29 c 128,-1,36
 433 67 433 67 433 130 c 0,37,38
 433 181 433 181 447.5 223.5 c 128,-1,39
 462 266 462 266 487 296 c 128,-1,40
 512 326 512 326 544 343 c 128,-1,41
 576 360 576 360 612 360 c 0,42,43
 663 360 663 360 692 322.5 c 128,-1,44
 721 285 721 285 721 220 c 0,45,46
 721 171 721 171 707.5 129 c 128,-1,47
 694 87 694 87 670.5 56.5 c 128,-1,48
 647 26 647 26 614.5 8.5 c 128,-1,49
 582 -9 582 -9 543 -9 c 0,34,35
599 288 m 0,50,51
 585 288 585 288 570.5 278.5 c 128,-1,52
 556 269 556 269 543.5 250 c 128,-1,53
 531 231 531 231 522.5 202.5 c 128,-1,54
 514 174 514 174 514 135 c 0,55,56
 514 98 514 98 526 80.5 c 128,-1,57
 538 63 538 63 557 63 c 0,58,59
 594 63 594 63 617.5 103 c 128,-1,60
 641 143 641 143 641 214 c 0,61,62
 641 252 641 252 628.5 270 c 128,-1,63
 616 288 616 288 599 288 c 0,50,51
867 -9 m 0,64,65
 815 -9 815 -9 786.5 29 c 128,-1,66
 758 67 758 67 758 130 c 0,67,68
 758 181 758 181 772.5 223.5 c 128,-1,69
 787 266 787 266 812 296 c 128,-1,70
 837 326 837 326 869 343 c 128,-1,71
 901 360 901 360 937 360 c 0,72,73
 988 360 988 360 1017 322.5 c 128,-1,74
 1046 285 1046 285 1046 220 c 0,75,76
 1046 171 1046 171 1032.5 129 c 128,-1,77
 1019 87 1019 87 995 56.5 c 128,-1,78
 971 26 971 26 938.5 8.5 c 128,-1,79
 906 -9 906 -9 867 -9 c 0,64,65
923 288 m 0,80,81
 910 288 910 288 895 278.5 c 128,-1,82
 880 269 880 269 867.5 250 c 128,-1,83
 855 231 855 231 846.5 202.5 c 128,-1,84
 838 174 838 174 838 135 c 0,85,86
 838 98 838 98 850 80.5 c 128,-1,87
 862 63 862 63 881 63 c 0,88,89
 918 63 918 63 941.5 103 c 128,-1,90
 965 143 965 143 965 214 c 0,91,92
 965 252 965 252 952.5 270 c 128,-1,93
 940 288 940 288 923 288 c 0,80,81
EndSplineSet
EndChar

StartChar: guilsinglleft
Encoding: 8249 8249 220
Width: 343
Flags: W
LayerCount: 2
Back
Fore
SplineSet
110 78 m 1,0,-1
 12 284 l 1,1,-1
 182 490 l 1,2,-1
 329 490 l 1,3,-1
 159 284 l 1,4,-1
 257 78 l 1,5,-1
 110 78 l 1,0,-1
EndSplineSet
EndChar

StartChar: guilsinglright
Encoding: 8250 8250 221
Width: 343
Flags: W
LayerCount: 2
Back
Fore
SplineSet
146 78 m 1,0,-1
 -1 78 l 1,1,-1
 169 284 l 1,2,-1
 72 490 l 1,3,-1
 219 490 l 1,4,-1
 316 284 l 1,5,-1
 146 78 l 1,0,-1
EndSplineSet
EndChar

StartChar: uni2070
Encoding: 8304 8304 222
Width: 391
Flags: W
LayerCount: 2
Back
Fore
SplineSet
185 312 m 0,0,1
 126 312 126 312 95 354 c 128,-1,2
 64 396 64 396 64 462 c 0,3,4
 64 513 64 513 80 557.5 c 128,-1,5
 96 602 96 602 123 635 c 128,-1,6
 150 668 150 668 186 687 c 128,-1,7
 222 706 222 706 261 706 c 0,8,9
 318 706 318 706 349.5 662.5 c 128,-1,10
 381 619 381 619 381 551 c 0,11,12
 381 502 381 502 366.5 458.5 c 128,-1,13
 352 415 352 415 326 382.5 c 128,-1,14
 300 350 300 350 264 331 c 128,-1,15
 228 312 228 312 185 312 c 0,0,1
245 622 m 0,16,17
 233 622 233 622 218 613 c 128,-1,18
 203 604 203 604 189.5 585.5 c 128,-1,19
 176 567 176 567 167 538 c 128,-1,20
 158 509 158 509 158 470 c 256,21,22
 158 431 158 431 171 415 c 128,-1,23
 184 399 184 399 201 399 c 0,24,25
 217 399 217 399 232.5 407 c 128,-1,26
 248 415 248 415 260.5 432 c 128,-1,27
 273 449 273 449 280.5 476.5 c 128,-1,28
 288 504 288 504 288 543 c 0,29,30
 288 585 288 585 274 603.5 c 128,-1,31
 260 622 260 622 245 622 c 0,16,17
EndSplineSet
EndChar

StartChar: uni2074
Encoding: 8308 8308 223
Width: 342
Flags: W
LayerCount: 2
Back
Fore
SplineSet
279 423 m 1,0,-1
 261 320 l 1,1,-1
 166 320 l 1,2,-1
 185 423 l 1,3,-1
 27 423 l 1,4,-1
 244 698 l 1,5,-1
 328 698 l 1,6,-1
 292 494 l 1,7,-1
 336 494 l 1,8,-1
 324 423 l 1,9,-1
 279 423 l 1,0,-1
210 570 m 1,10,-1
 156 494 l 1,11,-1
 197 494 l 1,12,-1
 210 570 l 1,10,-1
EndSplineSet
EndChar

StartChar: uni2075
Encoding: 8309 8309 224
Width: 303
Flags: W
LayerCount: 2
Back
Fore
SplineSet
140 314 m 256,0,1
 115 314 115 314 96 319 c 128,-1,2
 77 324 77 324 64 331.5 c 128,-1,3
 51 339 51 339 44.5 346 c 128,-1,4
 38 353 38 353 38 358 c 2,5,-1
 76 444 l 2,6,7
 78 439 78 439 86.5 431.5 c 128,-1,8
 95 424 95 424 107 417.5 c 128,-1,9
 119 411 119 411 132.5 406.5 c 128,-1,10
 146 402 146 402 159 402 c 0,11,12
 177 402 177 402 189.5 413.5 c 128,-1,13
 202 425 202 425 202 454 c 0,14,15
 202 461 202 461 193 470.5 c 128,-1,16
 184 480 184 480 155 480 c 2,17,-1
 77 480 l 1,18,-1
 141 698 l 1,19,-1
 310 698 l 1,20,-1
 283 599 l 1,21,-1
 193 599 l 1,22,-1
 180 556 l 1,23,24
 229 555 229 555 256.5 534 c 128,-1,25
 284 513 284 513 284 465 c 0,26,27
 284 423 284 423 271 394 c 128,-1,28
 258 365 258 365 237 347 c 128,-1,29
 216 329 216 329 190.5 321.5 c 128,-1,30
 165 314 165 314 140 314 c 256,0,1
EndSplineSet
EndChar

StartChar: uni2076
Encoding: 8310 8310 225
Width: 313
Flags: W
LayerCount: 2
Back
Fore
SplineSet
149 312 m 0,0,1
 108 312 108 312 83 339 c 128,-1,2
 58 366 58 366 58 426 c 0,3,4
 58 488 58 488 83 538 c 128,-1,5
 108 588 108 588 142 623.5 c 128,-1,6
 176 659 176 659 209.5 678 c 128,-1,7
 243 697 243 697 260 698 c 1,8,-1
 317 661 l 1,9,10
 308 661 308 661 293.5 653 c 128,-1,11
 279 645 279 645 263 632.5 c 128,-1,12
 247 620 247 620 230.5 605 c 128,-1,13
 214 590 214 590 201 576.5 c 128,-1,14
 188 563 188 563 179.5 553 c 128,-1,15
 171 543 171 543 172 540 c 1,16,17
 174 542 174 542 181 543.5 c 128,-1,18
 188 545 188 545 196 546 c 128,-1,19
 204 547 204 547 209.5 547.5 c 128,-1,20
 215 548 215 548 214 548 c 1,21,22
 252 548 252 548 276.5 525 c 128,-1,23
 301 502 301 502 301 459 c 0,24,25
 301 432 301 432 289.5 405.5 c 128,-1,26
 278 379 278 379 257.5 358.5 c 128,-1,27
 237 338 237 338 209.5 325 c 128,-1,28
 182 312 182 312 149 312 c 0,0,1
193 473 m 0,29,30
 166 473 166 473 155.5 463.5 c 128,-1,31
 145 454 145 454 145 428 c 0,32,33
 145 416 145 416 156 408 c 128,-1,34
 167 400 167 400 172 400 c 0,35,36
 178 400 178 400 185.5 403.5 c 128,-1,37
 193 407 193 407 200.5 413.5 c 128,-1,38
 208 420 208 420 213 428.5 c 128,-1,39
 218 437 218 437 218 447 c 0,40,41
 218 458 218 458 208 465.5 c 128,-1,42
 198 473 198 473 193 473 c 0,29,30
EndSplineSet
EndChar

StartChar: uni2077
Encoding: 8311 8311 226
Width: 295
Flags: W
LayerCount: 2
Back
Fore
SplineSet
145 320 m 1,0,-1
 40 320 l 1,1,-1
 190 599 l 1,2,-1
 88 599 l 1,3,-1
 105 698 l 1,4,-1
 352 698 l 1,5,-1
 145 320 l 1,0,-1
EndSplineSet
EndChar

StartChar: uni2078
Encoding: 8312 8312 227
Width: 333
Flags: W
LayerCount: 2
Back
Fore
SplineSet
157 312 m 0,0,1
 100 312 100 312 75 338.5 c 128,-1,2
 50 365 50 365 50 402 c 0,3,4
 50 433 50 433 65 465.5 c 128,-1,5
 80 498 80 498 108 524 c 1,6,7
 93 554 93 554 93 587 c 0,8,9
 93 610 93 610 101 631.5 c 128,-1,10
 109 653 109 653 125 669.5 c 128,-1,11
 141 686 141 686 165 696 c 128,-1,12
 189 706 189 706 220 706 c 0,13,14
 245 706 245 706 262 699.5 c 128,-1,15
 279 693 279 693 289 682 c 128,-1,16
 299 671 299 671 303.5 656.5 c 128,-1,17
 308 642 308 642 308 626 c 0,18,19
 308 598 308 598 297.5 570 c 128,-1,20
 287 542 287 542 273 525 c 1,21,22
 305 484 305 484 305 439 c 0,23,24
 305 414 305 414 295 391 c 128,-1,25
 285 368 285 368 266 350.5 c 128,-1,26
 247 333 247 333 219.5 322.5 c 128,-1,27
 192 312 192 312 157 312 c 0,0,1
214 640 m 0,28,29
 193 640 193 640 182 624.5 c 128,-1,30
 171 609 171 609 171 591 c 0,31,32
 171 578 171 578 176.5 567.5 c 128,-1,33
 182 557 182 557 196 553 c 1,34,35
 219 558 219 558 230.5 574 c 128,-1,36
 242 590 242 590 242 607 c 0,37,38
 242 620 242 620 235 629 c 128,-1,39
 228 638 228 638 214 640 c 0,28,29
189 494 m 1,40,41
 177 493 177 493 166 486 c 128,-1,42
 155 479 155 479 147 468.5 c 128,-1,43
 139 458 139 458 134 444.5 c 128,-1,44
 129 431 129 431 129 418 c 0,45,46
 129 404 129 404 137 392.5 c 128,-1,47
 145 381 145 381 168 381 c 256,48,49
 191 381 191 381 207.5 394 c 128,-1,50
 224 407 224 407 224 435 c 0,51,52
 224 453 224 453 216 470.5 c 128,-1,53
 208 488 208 488 189 494 c 1,40,41
EndSplineSet
EndChar

StartChar: uni2079
Encoding: 8313 8313 228
Width: 310
Flags: W
LayerCount: 2
Back
Fore
SplineSet
227 706 m 0,0,1
 272 706 272 706 295.5 677 c 128,-1,2
 319 648 319 648 319 592 c 0,3,4
 319 545 319 545 300 496.5 c 128,-1,5
 281 448 281 448 251 409 c 128,-1,6
 221 370 221 370 183 345 c 128,-1,7
 145 320 145 320 107 320 c 1,8,-1
 63 357 l 1,9,10
 76 357 76 357 101 369.5 c 128,-1,11
 126 382 126 382 151.5 401 c 128,-1,12
 177 420 177 420 196.5 442 c 128,-1,13
 216 464 216 464 219 483 c 1,14,15
 207 475 207 475 198 473 c 128,-1,16
 189 471 189 471 169 471 c 0,17,18
 157 471 157 471 141 477 c 128,-1,19
 125 483 125 483 110 495 c 128,-1,20
 95 507 95 507 85 524.5 c 128,-1,21
 75 542 75 542 75 564 c 0,22,23
 75 589 75 589 86.5 614 c 128,-1,24
 98 639 98 639 118.5 659.5 c 128,-1,25
 139 680 139 680 166.5 693 c 128,-1,26
 194 706 194 706 227 706 c 0,0,1
189 545 m 0,27,28
 211 545 211 545 224 554 c 128,-1,29
 237 563 237 563 237 593 c 0,30,31
 237 603 237 603 233.5 609 c 128,-1,32
 230 615 230 615 225.5 618 c 128,-1,33
 221 621 221 621 217.5 621.5 c 128,-1,34
 214 622 214 622 213 622 c 0,35,36
 195 622 195 622 182.5 604.5 c 128,-1,37
 170 587 170 587 170 572 c 0,38,39
 170 558 170 558 177 551.5 c 128,-1,40
 184 545 184 545 189 545 c 0,27,28
EndSplineSet
EndChar

StartChar: Euro
Encoding: 8364 8364 239
Width: 680
Flags: W
LayerCount: 2
Back
Fore
SplineSet
376 17 m 0,0,1
 285 17 285 17 224.5 67.5 c 128,-1,2
 164 118 164 118 148 209 c 1,3,-1
 17 209 l 1,4,-1
 61 295 l 1,5,-1
 142 295 l 1,6,7
 143 307 143 307 145.5 326 c 128,-1,8
 148 345 148 345 150 358 c 1,9,-1
 66 358 l 1,10,-1
 112 445 l 1,11,-1
 176 445 l 1,12,13
 198 500 198 500 231 544 c 128,-1,14
 264 588 264 588 305.5 619 c 128,-1,15
 347 650 347 650 395 666.5 c 128,-1,16
 443 683 443 683 494 683 c 0,17,18
 538 683 538 683 579 674 c 128,-1,19
 620 665 620 665 652 646 c 1,20,-1
 619 533 l 1,21,22
 585 550 585 550 551.5 561.5 c 128,-1,23
 518 573 518 573 474 573 c 0,24,25
 413 573 413 573 370.5 538.5 c 128,-1,26
 328 504 328 504 302 445 c 1,27,-1
 525 445 l 1,28,-1
 479 358 l 1,29,-1
 274 358 l 1,30,31
 272 344 272 344 269 325 c 128,-1,32
 266 306 266 306 266 295 c 1,33,-1
 482 295 l 1,34,-1
 438 209 l 1,35,-1
 279 209 l 1,36,37
 290 170 290 170 318.5 148.5 c 128,-1,38
 347 127 347 127 396 127 c 0,39,40
 440 127 440 127 477 138.5 c 128,-1,41
 514 150 514 150 554 167 c 1,42,-1
 548 54 l 1,43,44
 510 35 510 35 465.5 26 c 128,-1,45
 421 17 421 17 376 17 c 0,0,1
EndSplineSet
EndChar

StartChar: trademark
Encoding: 8482 8482 240
Width: 718
Flags: W
LayerCount: 2
Back
Fore
SplineSet
470 425 m 1,0,-1
 431 549 l 1,1,-1
 371 337 l 1,2,-1
 286 337 l 1,3,-1
 395 700 l 1,4,-1
 448 700 l 1,5,-1
 498 552 l 1,6,-1
 600 700 l 1,7,-1
 654 700 l 1,8,-1
 635 337 l 1,9,-1
 549 337 l 1,10,-1
 565 549 l 1,11,-1
 482 425 l 1,12,-1
 470 425 l 1,0,-1
341 622 m 1,13,-1
 259 622 l 1,14,-1
 208 337 l 1,15,-1
 125 337 l 1,16,-1
 175 622 l 1,17,-1
 90 622 l 1,18,-1
 104 700 l 1,19,-1
 365 700 l 1,20,-1
 341 622 l 1,13,-1
EndSplineSet
EndChar

StartChar: M.sc
Encoding: 65537 -1 241
Width: 732
Flags: W
LayerCount: 2
Back
Fore
SplineSet
480 0 m 1,0,-1
 499 362 l 1,1,-1
 318 113 l 1,2,-1
 225 361 l 1,3,-1
 118 0 l 1,4,-1
 -9 0 l 1,5,-1
 173 581 l 1,6,-1
 271 581 l 1,7,-1
 357 329 l 1,8,-1
 530 581 l 1,9,-1
 629 581 l 1,10,-1
 607 0 l 1,11,-1
 480 0 l 1,0,-1
EndSplineSet
EndChar

StartChar: L.sc
Encoding: 65538 -1 242
Width: 436
Flags: W
LayerCount: 2
Back
Fore
SplineSet
20 0 m 1,0,-1
 122 581 l 1,1,-1
 245 581 l 1,2,-1
 163 120 l 1,3,-1
 375 120 l 1,4,-1
 354 0 l 1,5,-1
 20 0 l 1,0,-1
EndSplineSet
EndChar

StartChar: S.sc
Encoding: 65539 -1 243
Width: 510
Flags: W
LayerCount: 2
Back
Fore
SplineSet
183 -12 m 0,0,1
 117 -12 117 -12 69.5 2 c 128,-1,2
 22 16 22 16 2 33 c 1,3,-1
 40 170 l 1,4,5
 55 146 55 146 96.5 126.5 c 128,-1,6
 138 107 138 107 207 107 c 0,7,8
 256 107 256 107 274 120 c 128,-1,9
 292 133 292 133 292 166 c 0,10,11
 292 184 292 184 283 197 c 128,-1,12
 274 210 274 210 259 219.5 c 128,-1,13
 244 229 244 229 225 237 c 128,-1,14
 206 245 206 245 187 252 c 0,15,16
 165 260 165 260 142.5 270.5 c 128,-1,17
 120 281 120 281 101.5 297 c 128,-1,18
 83 313 83 313 71.5 335.5 c 128,-1,19
 60 358 60 358 60 390 c 256,20,21
 60 422 60 422 73.5 457.5 c 128,-1,22
 87 493 87 493 115.5 523 c 128,-1,23
 144 553 144 553 189.5 573 c 128,-1,24
 235 593 235 593 298 593 c 0,25,26
 328 593 328 593 355.5 588.5 c 128,-1,27
 383 584 383 584 405.5 577 c 128,-1,28
 428 570 428 570 445 561.5 c 128,-1,29
 462 553 462 553 470 545 c 1,30,-1
 437 423 l 1,31,32
 393 451 393 451 355 463 c 128,-1,33
 317 475 317 475 278 475 c 0,34,35
 265 475 265 475 248.5 473.5 c 128,-1,36
 232 472 232 472 218 466.5 c 128,-1,37
 204 461 204 461 194 450 c 128,-1,38
 184 439 184 439 184 420 c 0,39,40
 184 406 184 406 192 395.5 c 128,-1,41
 200 385 200 385 213 377 c 128,-1,42
 226 369 226 369 243.5 362.5 c 128,-1,43
 261 356 261 356 279 350 c 0,44,45
 304 341 304 341 331.5 330 c 128,-1,46
 359 319 359 319 381.5 301 c 128,-1,47
 404 283 404 283 418.5 256.5 c 128,-1,48
 433 230 433 230 433 191 c 0,49,50
 433 178 433 178 430.5 157.5 c 128,-1,51
 428 137 428 137 419.5 114.5 c 128,-1,52
 411 92 411 92 395 69.5 c 128,-1,53
 379 47 379 47 351 29 c 128,-1,54
 323 11 323 11 282 -0.5 c 128,-1,55
 241 -12 241 -12 183 -12 c 0,0,1
EndSplineSet
EndChar

StartChar: J.sc
Encoding: 65540 -1 244
Width: 267
Flags: W
LayerCount: 2
Back
Fore
SplineSet
-57 -143 m 1,0,-1
 -48 -45 l 1,1,-1
 -13 -45 l 2,2,3
 6 -45 6 -45 15 6 c 2,4,-1
 116 581 l 1,5,-1
 239 581 l 1,6,-1
 134 -16 l 2,7,8
 128 -49 128 -49 114 -73 c 128,-1,9
 100 -97 100 -97 80 -112.5 c 128,-1,10
 60 -128 60 -128 35.5 -135.5 c 128,-1,11
 11 -143 11 -143 -16 -143 c 2,12,-1
 -57 -143 l 1,0,-1
EndSplineSet
EndChar

StartChar: O.sc
Encoding: 65541 -1 245
Width: 662
Flags: W
LayerCount: 2
Back
Fore
SplineSet
262 -12 m 0,0,1
 209 -12 209 -12 166.5 6 c 128,-1,2
 124 24 124 24 94 56.5 c 128,-1,3
 64 89 64 89 47.5 134.5 c 128,-1,4
 31 180 31 180 31 236 c 0,5,6
 31 314 31 314 58 379.5 c 128,-1,7
 85 445 85 445 131 492.5 c 128,-1,8
 177 540 177 540 238 566.5 c 128,-1,9
 299 593 299 593 368 593 c 0,10,11
 420 593 420 593 462.5 575 c 128,-1,12
 505 557 505 557 535 525 c 128,-1,13
 565 493 565 493 581 447.5 c 128,-1,14
 597 402 597 402 597 347 c 0,15,16
 597 269 597 269 570.5 203 c 128,-1,17
 544 137 544 137 498.5 89 c 128,-1,18
 453 41 453 41 392 14.5 c 128,-1,19
 331 -12 331 -12 262 -12 c 0,0,1
347 474 m 0,20,21
 303 474 303 474 269.5 456 c 128,-1,22
 236 438 236 438 213 407 c 128,-1,23
 190 376 190 376 178 334.5 c 128,-1,24
 166 293 166 293 166 246 c 0,25,26
 166 183 166 183 194.5 145 c 128,-1,27
 223 107 223 107 283 107 c 0,28,29
 327 107 327 107 360.5 125 c 128,-1,30
 394 143 394 143 416.5 174 c 128,-1,31
 439 205 439 205 450.5 247 c 128,-1,32
 462 289 462 289 462 336 c 0,33,34
 462 398 462 398 434 436 c 128,-1,35
 406 474 406 474 347 474 c 0,20,21
EndSplineSet
EndChar

StartChar: N.sc
Encoding: 65542 -1 246
Width: 618
Flags: W
LayerCount: 2
Back
Fore
SplineSet
370 0 m 1,0,-1
 207 366 l 1,1,-1
 142 0 l 1,2,-1
 20 0 l 1,3,-1
 122 581 l 1,4,-1
 237 581 l 1,5,-1
 390 238 l 1,6,-1
 451 581 l 1,7,-1
 573 581 l 1,8,-1
 470 0 l 1,9,-1
 370 0 l 1,0,-1
EndSplineSet
EndChar

StartChar: H.sc
Encoding: 65543 -1 247
Width: 642
Flags: W
LayerCount: 2
Back
Fore
SplineSet
368 0 m 1,0,-1
 411 243 l 1,1,-1
 185 243 l 1,2,-1
 142 0 l 1,3,-1
 20 0 l 1,4,-1
 122 581 l 1,5,-1
 245 581 l 1,6,-1
 206 362 l 1,7,-1
 432 362 l 1,8,-1
 470 581 l 1,9,-1
 594 581 l 1,10,-1
 491 0 l 1,11,-1
 368 0 l 1,0,-1
EndSplineSet
EndChar

StartChar: R.sc
Encoding: 65544 -1 248
Width: 559
Flags: W
LayerCount: 2
Back
Fore
SplineSet
345 0 m 1,0,-1
 272 210 l 1,1,-1
 177 210 l 1,2,-1
 140 0 l 1,3,-1
 20 0 l 1,4,-1
 122 581 l 1,5,-1
 346 581 l 2,6,7
 380 581 380 581 410.5 574 c 128,-1,8
 441 567 441 567 463.5 551 c 128,-1,9
 486 535 486 535 499 509 c 128,-1,10
 512 483 512 483 512 446 c 0,11,12
 512 402 512 402 501.5 370.5 c 128,-1,13
 491 339 491 339 473.5 316 c 128,-1,14
 456 293 456 293 434 275.5 c 128,-1,15
 412 258 412 258 388 242 c 1,16,-1
 470 0 l 1,17,-1
 345 0 l 1,0,-1
224 479 m 1,18,-1
 197 322 l 1,19,-1
 238 322 l 2,20,21
 287 322 287 322 316 330 c 128,-1,22
 345 338 345 338 359 352 c 128,-1,23
 373 366 373 366 377 385 c 128,-1,24
 381 404 381 404 381 426 c 0,25,26
 381 451 381 451 363 465 c 128,-1,27
 345 479 345 479 288 479 c 2,28,-1
 224 479 l 1,18,-1
EndSplineSet
EndChar

StartChar: I.sc
Encoding: 65545 -1 249
Width: 267
Flags: W
LayerCount: 2
Back
Fore
SplineSet
20 0 m 1,0,-1
 122 581 l 1,1,-1
 245 581 l 1,2,-1
 142 0 l 1,3,-1
 20 0 l 1,0,-1
EndSplineSet
EndChar

StartChar: OE.sc
Encoding: 65546 -1 250
Width: 914
Flags: W
LayerCount: 2
Back
Fore
SplineSet
547 0 m 1,0,-1
 419 0 l 1,1,-1
 425 33 l 1,2,3
 402 15 402 15 358.5 1.5 c 128,-1,4
 315 -12 315 -12 265 -12 c 0,5,6
 212 -12 212 -12 168.5 6 c 128,-1,7
 125 24 125 24 94.5 56.5 c 128,-1,8
 64 89 64 89 47.5 134.5 c 128,-1,9
 31 180 31 180 31 236 c 0,10,11
 31 314 31 314 58 380 c 128,-1,12
 85 446 85 446 131.5 493 c 128,-1,13
 178 540 178 540 240 566.5 c 128,-1,14
 302 593 302 593 372 593 c 0,15,16
 422 593 422 593 460.5 579.5 c 128,-1,17
 499 566 499 566 516 548 c 1,18,-1
 522 581 l 1,19,-1
 880 581 l 1,20,-1
 859 461 l 1,21,-1
 629 461 l 1,22,-1
 612 362 l 1,23,-1
 788 362 l 1,24,-1
 767 243 l 1,25,-1
 591 243 l 1,26,-1
 569 120 l 1,27,-1
 806 120 l 1,28,-1
 785 0 l 1,29,-1
 547 0 l 1,0,-1
351 474 m 0,30,31
 308 474 308 474 274 456.5 c 128,-1,32
 240 439 240 439 217 408 c 128,-1,33
 194 377 194 377 181.5 336 c 128,-1,34
 169 295 169 295 169 248 c 0,35,36
 169 185 169 185 197.5 146 c 128,-1,37
 226 107 226 107 286 107 c 0,38,39
 329 107 329 107 363.5 125 c 128,-1,40
 398 143 398 143 421 173.5 c 128,-1,41
 444 204 444 204 456.5 245 c 128,-1,42
 469 286 469 286 469 333 c 0,43,44
 469 396 469 396 440 435 c 128,-1,45
 411 474 411 474 351 474 c 0,30,31
EndSplineSet
EndChar

StartChar: Q.sc
Encoding: 65547 -1 251
Width: 662
Flags: W
LayerCount: 2
Back
Fore
SplineSet
473 -14 m 1,0,-1
 424 35 l 1,1,2
 392 12 392 12 349.5 0 c 128,-1,3
 307 -12 307 -12 262 -12 c 0,4,5
 209 -12 209 -12 166.5 6 c 128,-1,6
 124 24 124 24 94 56.5 c 128,-1,7
 64 89 64 89 47.5 134.5 c 128,-1,8
 31 180 31 180 31 236 c 0,9,10
 31 314 31 314 58 379.5 c 128,-1,11
 85 445 85 445 131 492.5 c 128,-1,12
 177 540 177 540 238 566.5 c 128,-1,13
 299 593 299 593 368 593 c 0,14,15
 420 593 420 593 462.5 575 c 128,-1,16
 505 557 505 557 535 525 c 128,-1,17
 565 493 565 493 581 447.5 c 128,-1,18
 597 402 597 402 597 347 c 0,19,20
 597 276 597 276 573.5 217 c 128,-1,21
 550 158 550 158 518 116 c 1,22,-1
 562 73 l 1,23,-1
 473 -14 l 1,0,-1
347 474 m 0,24,25
 303 474 303 474 269.5 456 c 128,-1,26
 236 438 236 438 213 407 c 128,-1,27
 190 376 190 376 178 334.5 c 128,-1,28
 166 293 166 293 166 246 c 0,29,30
 166 183 166 183 194.5 145 c 128,-1,31
 223 107 223 107 283 107 c 0,32,33
 303 107 303 107 313.5 111 c 128,-1,34
 324 115 324 115 334 119 c 1,35,-1
 287 172 l 1,36,-1
 376 258 l 1,37,-1
 427 205 l 1,38,39
 428 213 428 213 433 225 c 128,-1,40
 438 237 438 237 443 253.5 c 128,-1,41
 448 270 448 270 452.5 291 c 128,-1,42
 457 312 457 312 457 339 c 0,43,44
 457 399 457 399 430.5 436.5 c 128,-1,45
 404 474 404 474 347 474 c 0,24,25
EndSplineSet
EndChar

StartChar: K.sc
Encoding: 65548 -1 252
Width: 563
Flags: W
LayerCount: 2
Back
Fore
SplineSet
342 0 m 1,0,-1
 209 307 l 1,1,-1
 444 581 l 1,2,-1
 585 581 l 1,3,-1
 350 307 l 1,4,-1
 482 0 l 1,5,-1
 342 0 l 1,0,-1
20 0 m 1,6,-1
 122 581 l 1,7,-1
 245 581 l 1,8,-1
 142 0 l 1,9,-1
 20 0 l 1,6,-1
EndSplineSet
EndChar

StartChar: F.sc
Encoding: 65549 -1 253
Width: 464
Flags: W
LayerCount: 2
Back
Fore
SplineSet
224 461 m 1,0,-1
 206 362 l 1,1,-1
 381 362 l 1,2,-1
 360 243 l 1,3,-1
 185 243 l 1,4,-1
 142 0 l 1,5,-1
 20 0 l 1,6,-1
 122 581 l 1,7,-1
 472 581 l 1,8,-1
 451 461 l 1,9,-1
 224 461 l 1,0,-1
EndSplineSet
EndChar

StartChar: G.sc
Encoding: 65550 -1 254
Width: 578
Flags: W
LayerCount: 2
Back
Fore
SplineSet
259 -12 m 0,0,1
 207 -12 207 -12 165 6 c 128,-1,2
 123 24 123 24 93 56 c 128,-1,3
 63 88 63 88 47 133.5 c 128,-1,4
 31 179 31 179 31 235 c 0,5,6
 31 313 31 313 57.5 378.5 c 128,-1,7
 84 444 84 444 129.5 492 c 128,-1,8
 175 540 175 540 236.5 566.5 c 128,-1,9
 298 593 298 593 369 593 c 0,10,11
 390 593 390 593 413 590.5 c 128,-1,12
 436 588 436 588 458.5 583.5 c 128,-1,13
 481 579 481 579 500.5 572.5 c 128,-1,14
 520 566 520 566 534 558 c 1,15,-1
 498 439 l 1,16,17
 470 454 470 454 429 464 c 128,-1,18
 388 474 388 474 351 474 c 0,19,20
 304 474 304 474 269.5 455.5 c 128,-1,21
 235 437 235 437 212 406.5 c 128,-1,22
 189 376 189 376 178 335.5 c 128,-1,23
 167 295 167 295 167 250 c 0,24,25
 167 186 167 186 196 146.5 c 128,-1,26
 225 107 225 107 285 107 c 0,27,28
 302 107 302 107 316.5 109 c 128,-1,29
 331 111 331 111 351 113 c 1,30,-1
 366 194 l 1,31,-1
 324 194 l 1,32,-1
 341 291 l 1,33,-1
 505 291 l 1,34,-1
 488 193 l 1,35,-1
 459 32 l 1,36,37
 443 23 443 23 419 15 c 128,-1,38
 395 7 395 7 367 1 c 128,-1,39
 339 -5 339 -5 311 -8.5 c 128,-1,40
 283 -12 283 -12 259 -12 c 0,0,1
EndSplineSet
EndChar

StartChar: E.sc
Encoding: 65551 -1 255
Width: 502
Flags: W
LayerCount: 2
Back
Fore
SplineSet
148 0 m 1,0,-1
 20 0 l 1,1,-1
 122 581 l 1,2,-1
 495 581 l 1,3,-1
 474 461 l 1,4,-1
 228 461 l 1,5,-1
 211 362 l 1,6,-1
 398 362 l 1,7,-1
 377 243 l 1,8,-1
 190 243 l 1,9,-1
 168 120 l 1,10,-1
 422 120 l 1,11,-1
 401 0 l 1,12,-1
 148 0 l 1,0,-1
EndSplineSet
EndChar

StartChar: D.sc
Encoding: 65552 -1 256
Width: 627
Flags: W
LayerCount: 2
Back
Fore
SplineSet
20 0 m 1,0,-1
 122 581 l 1,1,-1
 336 581 l 2,2,3
 388 581 388 581 430 565 c 128,-1,4
 472 549 472 549 502 518.5 c 128,-1,5
 532 488 532 488 548.5 444.5 c 128,-1,6
 565 401 565 401 565 346 c 0,7,8
 565 266 565 266 538.5 202 c 128,-1,9
 512 138 512 138 467 93 c 128,-1,10
 422 48 422 48 361.5 24 c 128,-1,11
 301 0 301 0 233 0 c 2,12,-1
 140 0 l 1,13,-1
 20 0 l 1,0,-1
224 462 m 1,14,-1
 163 119 l 1,15,-1
 254 119 l 2,16,17
 299 119 299 119 332 135 c 128,-1,18
 365 151 365 151 387 180 c 128,-1,19
 409 209 409 209 419.5 248 c 128,-1,20
 430 287 430 287 430 334 c 0,21,22
 430 394 430 394 402 428 c 128,-1,23
 374 462 374 462 315 462 c 2,24,-1
 224 462 l 1,14,-1
EndSplineSet
EndChar

StartChar: C.sc
Encoding: 65553 -1 257
Width: 533
Flags: W
LayerCount: 2
Back
Fore
SplineSet
258 -12 m 0,0,1
 206 -12 206 -12 164 5.5 c 128,-1,2
 122 23 122 23 92.5 55.5 c 128,-1,3
 63 88 63 88 47 133.5 c 128,-1,4
 31 179 31 179 31 235 c 0,5,6
 31 313 31 313 57.5 378.5 c 128,-1,7
 84 444 84 444 129.5 492 c 128,-1,8
 175 540 175 540 236 566.5 c 128,-1,9
 297 593 297 593 365 593 c 0,10,11
 410 593 410 593 451.5 584 c 128,-1,12
 493 575 493 575 522 559 c 1,13,-1
 487 442 l 1,14,15
 454 458 454 458 421.5 466 c 128,-1,16
 389 474 389 474 344 474 c 0,17,18
 300 474 300 474 266.5 455.5 c 128,-1,19
 233 437 233 437 210.5 405.5 c 128,-1,20
 188 374 188 374 177 332.5 c 128,-1,21
 166 291 166 291 166 244 c 0,22,23
 166 182 166 182 193 144.5 c 128,-1,24
 220 107 220 107 277 107 c 0,25,26
 324 107 324 107 359.5 115 c 128,-1,27
 395 123 395 123 434 139 c 1,28,-1
 428 23 l 1,29,30
 394 6 394 6 348.5 -3 c 128,-1,31
 303 -12 303 -12 258 -12 c 0,0,1
EndSplineSet
EndChar

StartChar: V.sc
Encoding: 65554 -1 258
Width: 570
Flags: W
LayerCount: 2
Back
Fore
SplineSet
300 0 m 1,0,-1
 142 0 l 1,1,-1
 51 581 l 1,2,-1
 178 581 l 1,3,-1
 249 167 l 1,4,-1
 462 581 l 1,5,-1
 587 581 l 1,6,-1
 300 0 l 1,0,-1
EndSplineSet
EndChar

StartChar: W.sc
Encoding: 65555 -1 259
Width: 835
Flags: W
LayerCount: 2
Back
Fore
SplineSet
562 0 m 1,0,-1
 466 0 l 1,1,-1
 407 340 l 1,2,-1
 231 0 l 1,3,-1
 125 0 l 1,4,-1
 68 581 l 1,5,-1
 195 581 l 1,6,-1
 233 211 l 1,7,-1
 413 587 l 1,8,-1
 486 587 l 1,9,-1
 544 227 l 1,10,-1
 703 581 l 1,11,-1
 829 581 l 1,12,-1
 562 0 l 1,0,-1
EndSplineSet
EndChar

StartChar: B.sc
Encoding: 65556 -1 260
Width: 562
Flags: W
LayerCount: 2
Back
Fore
SplineSet
20 0 m 1,0,-1
 122 581 l 1,1,-1
 292 581 l 2,2,3
 335 581 335 581 370.5 576.5 c 128,-1,4
 406 572 406 572 432 559 c 128,-1,5
 458 546 458 546 472.5 522.5 c 128,-1,6
 487 499 487 499 487 461 c 0,7,8
 487 434 487 434 480.5 410.5 c 128,-1,9
 474 387 474 387 463.5 367.5 c 128,-1,10
 453 348 453 348 440 333.5 c 128,-1,11
 427 319 427 319 414 311 c 1,12,13
 449 296 449 296 471.5 269.5 c 128,-1,14
 494 243 494 243 494 197 c 0,15,16
 494 142 494 142 471.5 104.5 c 128,-1,17
 449 67 449 67 414 43.5 c 128,-1,18
 379 20 379 20 336.5 10 c 128,-1,19
 294 0 294 0 254 0 c 2,20,-1
 141 0 l 1,21,-1
 20 0 l 1,0,-1
227 480 m 1,22,-1
 204 352 l 1,23,-1
 309 352 l 2,24,25
 316 352 316 352 327.5 356 c 128,-1,26
 339 360 339 360 349.5 369.5 c 128,-1,27
 360 379 360 379 367.5 394 c 128,-1,28
 375 409 375 409 375 431 c 0,29,30
 375 457 375 457 364 468.5 c 128,-1,31
 353 480 353 480 331 480 c 2,32,-1
 227 480 l 1,22,-1
189 262 m 1,33,-1
 160 101 l 1,34,-1
 278 101 l 2,35,36
 321 101 321 101 345 126 c 128,-1,37
 369 151 369 151 369 199 c 0,38,39
 369 234 369 234 346.5 248 c 128,-1,40
 324 262 324 262 286 262 c 2,41,-1
 189 262 l 1,33,-1
EndSplineSet
EndChar

StartChar: AE.sc
Encoding: 65557 -1 261
Width: 748
Flags: W
LayerCount: 2
Back
Fore
SplineSet
394 0 m 1,0,-1
 276 0 l 1,1,-1
 300 135 l 1,2,-1
 157 135 l 1,3,-1
 74 0 l 1,4,-1
 -57 0 l 1,5,-1
 319 581 l 1,6,-1
 722 581 l 1,7,-1
 701 461 l 1,8,-1
 473 461 l 1,9,-1
 456 362 l 1,10,-1
 631 362 l 1,11,-1
 610 243 l 1,12,-1
 435 243 l 1,13,-1
 413 120 l 1,14,-1
 648 120 l 1,15,-1
 627 0 l 1,16,-1
 394 0 l 1,0,-1
357 459 m 1,17,-1
 234 253 l 1,18,-1
 321 253 l 1,19,-1
 357 459 l 1,17,-1
EndSplineSet
EndChar

StartChar: X.sc
Encoding: 65558 -1 262
Width: 563
Flags: W
LayerCount: 2
Back
Fore
SplineSet
337 0 m 1,0,-1
 255 200 l 1,1,-1
 98 0 l 1,2,-1
 -48 0 l 1,3,-1
 209 290 l 1,4,-1
 70 581 l 1,5,-1
 212 581 l 1,6,-1
 297 389 l 1,7,-1
 422 581 l 1,8,-1
 568 581 l 1,9,-1
 346 302 l 1,10,-1
 485 0 l 1,11,-1
 337 0 l 1,0,-1
EndSplineSet
EndChar

StartChar: A.sc
Encoding: 65559 -1 263
Width: 542
Flags: W
LayerCount: 2
Back
Fore
SplineSet
337 0 m 1,0,-1
 316 131 l 1,1,-1
 149 131 l 1,2,-1
 83 0 l 1,3,-1
 -44 0 l 1,4,-1
 257 581 l 1,5,-1
 367 581 l 1,6,-1
 463 0 l 1,7,-1
 337 0 l 1,0,-1
276 382 m 1,8,-1
 214 251 l 1,9,-1
 294 251 l 1,10,-1
 276 382 l 1,8,-1
EndSplineSet
EndChar

StartChar: Y.sc
Encoding: 65560 -1 264
Width: 540
Flags: W
LayerCount: 2
Back
Fore
SplineSet
308 251 m 1,0,-1
 263 0 l 1,1,-1
 145 0 l 1,2,-1
 189 251 l 1,3,-1
 49 581 l 1,4,-1
 179 581 l 1,5,-1
 268 359 l 1,6,-1
 434 581 l 1,7,-1
 564 581 l 1,8,-1
 308 251 l 1,0,-1
EndSplineSet
EndChar

StartChar: Z.sc
Encoding: 65561 -1 265
Width: 484
Flags: W
LayerCount: 2
Back
Fore
SplineSet
187 120 m 1,0,-1
 377 120 l 1,1,-1
 356 0 l 1,2,-1
 -36 0 l 1,3,-1
 272 461 l 1,4,-1
 82 461 l 1,5,-1
 103 581 l 1,6,-1
 495 581 l 1,7,-1
 187 120 l 1,0,-1
EndSplineSet
EndChar

StartChar: U.sc
Encoding: 65562 -1 266
Width: 621
Flags: W
LayerCount: 2
Back
Fore
SplineSet
244 -12 m 0,0,1
 144 -12 144 -12 97.5 40 c 128,-1,2
 51 92 51 92 51 179 c 0,3,4
 51 196 51 196 52.5 213.5 c 128,-1,5
 54 231 54 231 58 250 c 2,6,-1
 116 581 l 1,7,-1
 238 581 l 1,8,-1
 186 285 l 2,9,10
 182 263 182 263 179.5 243.5 c 128,-1,11
 177 224 177 224 177 206 c 0,12,13
 177 160 177 160 196.5 133.5 c 128,-1,14
 216 107 216 107 265 107 c 0,15,16
 298 107 298 107 322 120 c 128,-1,17
 346 133 346 133 362.5 156.5 c 128,-1,18
 379 180 379 180 389.5 213 c 128,-1,19
 400 246 400 246 407 285 c 2,20,-1
 459 581 l 1,21,-1
 581 581 l 1,22,-1
 523 250 l 2,23,24
 513 191 513 191 490.5 143 c 128,-1,25
 468 95 468 95 433 60.5 c 128,-1,26
 398 26 398 26 351 7 c 128,-1,27
 304 -12 304 -12 244 -12 c 0,0,1
EndSplineSet
EndChar

StartChar: P.sc
Encoding: 65563 -1 267
Width: 536
Flags: W
LayerCount: 2
Back
Fore
SplineSet
172 184 m 1,0,-1
 140 0 l 1,1,-1
 20 0 l 1,2,-1
 122 581 l 1,3,-1
 266 581 l 2,4,5
 329 581 329 581 375.5 576 c 128,-1,6
 422 571 422 571 453 556 c 128,-1,7
 484 541 484 541 499 514 c 128,-1,8
 514 487 514 487 514 442 c 0,9,10
 514 362 514 362 487 311.5 c 128,-1,11
 460 261 460 261 420.5 232.5 c 128,-1,12
 381 204 381 204 336 194 c 128,-1,13
 291 184 291 184 256 184 c 2,14,-1
 172 184 l 1,0,-1
225 482 m 1,15,-1
 193 299 l 1,16,-1
 263 299 l 2,17,18
 300 299 300 299 324.5 305 c 128,-1,19
 349 311 349 311 363.5 325 c 128,-1,20
 378 339 378 339 383.5 362.5 c 128,-1,21
 389 386 389 386 389 421 c 0,22,23
 389 451 389 451 372 466.5 c 128,-1,24
 355 482 355 482 308 482 c 2,25,-1
 225 482 l 1,15,-1
EndSplineSet
EndChar

StartChar: T.sc
Encoding: 65564 -1 268
Width: 498
Flags: W
LayerCount: 2
Back
Fore
SplineSet
330 461 m 1,0,-1
 249 0 l 1,1,-1
 126 0 l 1,2,-1
 207 461 l 1,3,-1
 52 461 l 1,4,-1
 73 581 l 1,5,-1
 507 581 l 1,6,-1
 486 461 l 1,7,-1
 330 461 l 1,0,-1
EndSplineSet
EndChar
